SplineFontDB: 3.2
FontName: SolarControl
FullName: SolarControl
FamilyName: SolarControl
Weight: Regular
Copyright: Copyright (c) 2024, Bob
UComments: "2024-12-21: Created with FontForge (http://fontforge.org)"
Version: 001.000
ItalicAngle: 0
UnderlinePosition: -100
UnderlineWidth: 50
Ascent: 800
Descent: 200
InvalidEm: 0
LayerCount: 2
Layer: 0 0 "Back" 1
Layer: 1 0 "Fore" 0
XUID: [1021 683 186340066 3066813]
StyleMap: 0x0000
FSType: 0
OS2Version: 0
OS2_WeightWidthSlopeOnly: 0
OS2_UseTypoMetrics: 1
CreationTime: 1734788550
ModificationTime: 1763298730
OS2TypoAscent: 0
OS2TypoAOffset: 1
OS2TypoDescent: 0
OS2TypoDOffset: 1
OS2TypoLinegap: 90
OS2WinAscent: 0
OS2WinAOffset: 1
OS2WinDescent: 0
OS2WinDOffset: 1
HheadAscent: 0
HheadAOffset: 1
HheadDescent: 0
HheadDOffset: 1
MarkAttachClasses: 1
DEI: 91125
Encoding: Custom
UnicodeInterp: none
NameList: AGL For New Fonts
DisplaySize: -48
AntiAlias: 1
FitToEm: 0
WinInfo: 0 16 4
BeginPrivate: 0
EndPrivate
Grid
-320.500442505 1300 m 0
 -320.500442505 -700 l 1024
EndSplineSet
BeginChars: 57 57

StartChar: NameMe.0
Encoding: 0 57344 0
Width: 1000
Flags: H
LayerCount: 2
Fore
SplineSet
530.4375 763.5 m 2
 530.46875 763.5 l 2
 568.5 720.8125 902.375 342.125 902.375 190.625 c 0
 902.375 24.3125 723.46875 -176.5625 501.3125 -176.5625 c 0
 283.9375 -176.5625 97.65625 25.34375 97.65625 190.625 c 0
 97.65625 339.03125 409.6875 693.9375 472.25 763.59375 c 2
 472.28125 763.625 l 2
 479.40625 771.5625 489.75 776.5625 501.28125 776.5625 c 1
 501.28125 776.5625 l 1
 501.34375 776.5625 l 2
 512.90625 776.53125 523.28125 771.5 530.4375 763.5 c 2
501.28125 -98.4375 m 0
 685.53125 -98.4375 824.21875 76.90625 824.21875 190.625 c 0
 824.21875 276.15625 636.90625 521.78125 501.1875 678.4375 c 1
 364.5 521.8125 175.75 276.0625 175.75 190.625 c 0
 175.75 76.90625 315.5625 -98.4375 501.28125 -98.4375 c 0
486.1875 21.5 m 2
 486.21875 21.5625 l 1
 486.5 21.5 l 2
 503.25 17.09375 515.59375 1.84375 515.59375 -16.28125 c 0
 515.59375 -37.84375 498.125 -55.3125 476.5625 -55.34375 c 1
 476.5625 -55.34375 l 1
 476.53125 -55.34375 476.46875 -55.34375 476.40625 -55.34375 c 0
 473 -55.34375 469.71875 -54.90625 466.84375 -54.125 c 2
 464.25 -53.5 l 2
 357.9375 -22.75 271.59375 55.03125 228.28125 158.25 c 1
 228.375 157.96875 l 1
 226.75 162.25 225.84375 166.9375 225.84375 171.8125 c 0
 225.84375 193.375 243.34375 210.875 264.90625 210.875 c 0
 281.5 210.875 295.6875 200.53125 301.4375 185.6875 c 2
 302.15625 183.8125 l 2
 336.03125 106.5625 402.46875 46.8125 486.1875 21.5 c 2
EndSplineSet
Validated: 5
EndChar

StartChar: NameMe.1
Encoding: 1 57345 1
Width: 1000
Flags: H
LayerCount: 2
Fore
SplineSet
533.015625 493.48828125 m 0
 533.015625 475.2734375 518.21484375 460.474609375 500.001953125 460.474609375 c 0
 481.7734375 460.474609375 466.98828125 475.2734375 466.98828125 493.48828125 c 0
 466.98828125 511.716796875 481.7734375 526.501953125 500.001953125 526.501953125 c 0
 518.21484375 526.501953125 533.015625 511.716796875 533.015625 493.48828125 c 0
143.6484375 170.1484375 m 0
 161.86328125 170.1484375 176.662109375 155.36328125 176.662109375 137.134765625 c 0
 176.662109375 118.921875 161.86328125 104.13671875 143.6484375 104.13671875 c 0
 125.419921875 104.13671875 110.63671875 118.921875 110.63671875 137.134765625 c 0
 110.63671875 155.36328125 125.419921875 170.1484375 143.6484375 170.1484375 c 0
224.66796875 412.453125 m 0
 237.568359375 425.353515625 258.46875 425.353515625 271.369140625 412.453125 c 0
 284.251953125 399.552734375 284.251953125 378.66796875 271.369140625 365.767578125 c 0
 258.46875 352.8828125 237.56640625 352.8828125 224.66796875 365.767578125 c 0
 211.796875 378.66796875 211.796875 399.5546875 224.66796875 412.453125 c 0
728.6328125 412.453125 m 0
 741.53125 425.353515625 762.41796875 425.353515625 775.318359375 412.453125 c 0
 788.201171875 399.552734375 788.201171875 378.66796875 775.318359375 365.767578125 c 0
 762.43359375 352.8828125 741.53125 352.8828125 728.6328125 365.767578125 c 0
 715.748046875 378.66796875 715.748046875 399.5546875 728.6328125 412.453125 c 0
856.3515625 170.1484375 m 0
 874.56640625 170.1484375 889.3515625 155.36328125 889.3515625 137.134765625 c 0
 889.3515625 118.921875 874.56640625 104.13671875 856.3515625 104.13671875 c 0
 838.125 104.13671875 823.33984375 118.921875 823.33984375 137.134765625 c 0
 823.33984375 155.36328125 838.123046875 170.1484375 856.3515625 170.1484375 c 0
617.330078125 416.10546875 m 0
 620.65625 414.84375 622.599609375 411.33984375 621.873046875 407.8671875 c 2
 568.671875 149.220703125 l 1
 577.369140625 136.15625 582.447265625 120.48046875 582.447265625 103.603515625 c 0
 582.447265625 58.076171875 545.529296875 21.158203125 500.001953125 21.158203125 c 0
 454.474609375 21.158203125 417.541015625 58.076171875 417.541015625 103.603515625 c 0
 417.541015625 141.60546875 443.294921875 173.51953125 478.283203125 183.064453125 c 1
 608.466796875 412.884765625 l 2
 610.234375 415.98828125 613.990234375 417.3515625 617.330078125 416.10546875 c 0
500 71.46484375 m 0
 517.755859375 71.46484375 532.15234375 85.84765625 532.15234375 103.603515625 c 0
 532.15234375 121.35546875 517.75390625 135.740234375 500 135.740234375 c 0
 482.24609375 135.740234375 467.84765625 121.35546875 467.84765625 103.603515625 c 0
 467.84765625 85.84765625 482.24609375 71.46484375 500 71.46484375 c 0
853.546875 487.68359375 m 0
 943.994140625 397.296875 1000.015625 272.115234375 1000 134.13671875 c 0
 1000 75.146484375 989.71484375 18.470703125 970.91796875 -34.13671875 c 1
 912.55078125 -34.13671875 l 1
 933.748046875 17.7578125 945.505859375 74.5078125 945.505859375 134.13671875 c 0
 945.490234375 257.224609375 895.673828125 368.453125 815.009765625 449.146484375 c 0
 734.302734375 529.80859375 623.119140625 579.611328125 500 579.642578125 c 0
 376.8828125 579.61328125 265.681640625 529.810546875 184.990234375 449.146484375 c 0
 104.310546875 368.453125 54.509765625 257.224609375 54.494140625 134.13671875 c 0
 54.494140625 74.5078125 66.236328125 17.7578125 87.43359375 -34.13671875 c 1
 29.080078125 -34.13671875 l 1
 10.2734375 18.470703125 -0.013671875 75.14453125 0 134.13671875 c 0
 -0.013671875 272.115234375 56.0078125 397.296875 146.453125 487.68359375 c 0
 236.83984375 578.12890625 362.0078125 634.15234375 500 634.13671875 c 0
 637.978515625 634.15234375 763.16015625 578.12890625 853.546875 487.68359375 c 0
EndSplineSet
Validated: 33
EndChar

StartChar: NameMe.2
Encoding: 2 57346 2
Width: 1000
Flags: H
LayerCount: 2
Fore
SplineSet
758.452148438 724.067382812 m 1
 758.452148438 724.067382812 l 1
 829.110351562 716.6484375 l 1
 828.799804688 647.669921875 l 1
 842.473632812 642.446289062 855.224609375 635.514648438 866.78125 627.088867188 c 1
 924.47265625 664.883789062 l 1
 969.250976562 609.626953125 l 1
 920.23046875 561.104492188 l 1
 926.072265625 548.047851562 930.184570312 534.090820312 932.456054688 519.62890625 c 1
 1000 505.658203125 l 1
 992.578125 434.93359375 l 1
 923.600585938 435.18359375 l 1
 918.377929688 421.520507812 911.440429688 408.811523438 903.01953125 397.264648438 c 1
 940.876953125 339.573242188 l 1
 885.619140625 294.793945312 l 1
 837.03515625 343.815429688 l 1
 823.985351562 337.979492188 810.077148438 333.859375 795.622070312 331.590820312 c 1
 781.590820312 264.046875 l 1
 710.865234375 271.466796875 l 1
 711.177734375 340.4453125 l 1
 697.5234375 345.6640625 684.80078125 352.611328125 673.2578125 361.026367188 c 1
 615.504882812 323.16796875 l 1
 570.788085938 378.426757812 l 1
 619.80859375 427.073242188 l 1
 613.978515625 440.11328125 609.79296875 453.919921875 607.5234375 468.360351562 c 1
 539.977539062 482.456054688 l 1
 547.399414062 553.180664062 l 1
 616.440429688 552.869140625 l 1
 621.662109375 566.53515625 628.540039062 579.236328125 636.959960938 590.788085938 c 1
 599.165039062 648.541015625 l 1
 654.422851562 693.258789062 l 1
 702.946289062 644.237304688 l 1
 715.991210938 650.073242188 729.907226562 654.252929688 744.35546875 656.5234375 c 1
 758.452148438 724.067382812 l 1
770.17578125 559.791992188 m 1
 770.17578125 559.791992188 l 1
 736.8359375 559.907226562 708.123046875 534.7890625 704.565429688 500.916992188 c 0
 700.76953125 464.787109375 726.999023438 432.4296875 763.127929688 428.633789062 c 0
 799.258789062 424.837890625 831.6171875 451.06640625 835.413085938 487.196289062 c 0
 839.208984375 523.327148438 813.041992188 555.684570312 776.912109375 559.48046875 c 0
 774.653320312 559.716796875 772.399414062 559.784179688 770.17578125 559.791992188 c 1
262.69140625 553.991210938 m 1
 262.69140625 553.994140625 l 1
 359.982421875 553.994140625 l 1
 369.400390625 460.069335938 l 1
 388.754882812 454.912109375 407.10546875 447.303710938 424.03515625 437.491210938 c 1
 497.12890625 497.23828125 l 1
 565.920898438 428.447265625 l 1
 506.172851562 355.352539062 l 1
 515.98828125 338.420898438 523.594726562 320.072265625 528.75 300.71875 c 1
 622.674804688 291.299804688 l 1
 622.674804688 194.0078125 l 1
 528.749023438 184.52734375 l 1
 523.59375 165.190429688 515.979492188 146.875 506.172851562 129.95703125 c 1
 565.919921875 56.861328125 l 1
 497.127929688 -11.9296875 l 1
 423.971679688 47.8173828125 l 1
 407.049804688 38.0107421875 388.745117188 30.392578125 369.401367188 25.240234375 c 1
 359.984375 -68.6845703125 l 1
 262.690429688 -68.6845703125 l 1
 253.211914062 25.240234375 l 1
 233.884765625 30.392578125 215.612304688 38.01953125 198.702148438 47.8173828125 c 1
 125.544921875 -11.9296875 l 1
 56.7529296875 56.861328125 l 1
 116.501953125 130.01953125 l 1
 106.703125 146.928710938 99.0771484375 165.202148438 93.9248046875 184.52734375 c 1
 0 194.0078125 l 1
 0 291.299804688 l 1
 93.92578125 300.717773438 l 1
 99.0771484375 320.060546875 106.696289062 338.364257812 116.502929688 355.287109375 c 1
 56.75390625 428.444335938 l 1
 125.545898438 497.235351562 l 1
 198.640625 437.489257812 l 1
 215.55859375 447.295898438 233.875 454.91015625 253.212890625 460.065429688 c 1
 262.69140625 553.991210938 l 1
311.337890625 332.650390625 m 1
 311.337890625 332.650390625 l 1
 261.631835938 332.650390625 221.341796875 292.360351562 221.341796875 242.653320312 c 0
 221.341796875 192.947265625 261.631835938 152.658203125 311.337890625 152.658203125 c 0
 361.045898438 152.658203125 401.334960938 192.947265625 401.334960938 242.653320312 c 0
 401.334960938 292.360351562 361.045898438 332.650390625 311.337890625 332.650390625 c 1
724.399414062 212.467773438 m 1
 724.399414062 212.467773438 l 1
 774.108398438 207.04296875 l 1
 773.859375 156.587890625 l 1
 783.469726562 152.764648438 792.4296875 147.720703125 800.551757812 141.557617188 c 1
 841.08984375 169.248046875 l 1
 872.522460938 128.771484375 l 1
 838.096679688 93.2841796875 l 1
 842.202148438 83.7333984375 845.108398438 73.5537109375 846.703125 62.974609375 c 1
 894.1640625 52.6826171875 l 1
 888.98828125 0.98046875 l 1
 840.463867188 1.16796875 l 1
 836.793945312 -8.8271484375 831.915039062 -18.1376953125 825.995117188 -26.5869140625 c 1
 852.625976562 -68.8095703125 l 1
 813.771484375 -101.552734375 l 1
 779.59375 -65.69140625 l 1
 770.421875 -69.9609375 760.688476562 -72.951171875 750.53125 -74.6103515625 c 1
 740.677734375 -124.067382812 l 1
 690.970703125 -118.641601562 l 1
 691.158203125 -68.1240234375 l 1
 681.561523438 -64.3046875 672.640625 -59.248046875 664.52734375 -53.09375 c 1
 623.926757812 -80.7841796875 l 1
 592.4921875 -40.3701171875 l 1
 626.918945312 -4.8212890625 l 1
 622.821289062 4.71875 619.90625 14.8623046875 618.3125 25.427734375 c 1
 570.849609375 35.71875 l 1
 576.088867188 87.484375 l 1
 624.547851562 87.2333984375 l 1
 628.217773438 97.2314453125 633.098632812 106.536132812 639.016601562 114.98828125 c 1
 612.447265625 157.2109375 l 1
 651.241210938 189.954101562 l 1
 685.41796875 154.09375 l 1
 694.587890625 158.362304688 704.326171875 161.412109375 714.482421875 163.073242188 c 1
 724.399414062 212.467773438 l 1
732.631835938 92.34765625 m 1
 732.631835938 92.34765625 l 1
 709.19921875 92.4326171875 689.041992188 74.0322265625 686.541015625 49.2509765625 c 0
 683.873046875 22.8173828125 702.309570312 -0.8603515625 727.703125 -3.6376953125 c 0
 753.09765625 -6.4140625 775.803710938 12.7763671875 778.471679688 39.208984375 c 0
 781.139648438 65.642578125 762.765625 89.3212890625 737.372070312 92.0966796875 c 0
 735.784179688 92.2705078125 734.192382812 92.33984375 732.631835938 92.34765625 c 1
EndSplineSet
Validated: 37
EndChar

StartChar: NameMe.3
Encoding: 3 57347 3
Width: 1000
Flags: H
LayerCount: 2
Fore
SplineSet
886.298828125 572.7265625 m 2
 899.935546875 572.7265625 909.025390625 563.634765625 909.025390625 550 c 0
 909.025390625 536.365234375 899.935546875 527.2734375 886.298828125 527.2734375 c 2
 840.84375 527.2734375 l 2
 827.208984375 527.2734375 818.1171875 536.365234375 818.1171875 550 c 0
 818.1171875 563.634765625 827.20703125 572.7265625 840.84375 572.7265625 c 2
 886.298828125 572.7265625 l 2
886.298828125 481.818359375 m 2
 899.935546875 481.818359375 909.025390625 472.7265625 909.025390625 459.091796875 c 0
 909.025390625 445.45703125 899.935546875 436.365234375 886.298828125 436.365234375 c 2
 840.84375 436.365234375 l 2
 827.208984375 436.365234375 818.1171875 445.45703125 818.1171875 459.091796875 c 0
 818.1171875 472.7265625 827.20703125 481.818359375 840.84375 481.818359375 c 2
 886.298828125 481.818359375 l 2
159.02734375 572.7265625 m 2
 172.6640625 572.7265625 181.75390625 563.634765625 181.75390625 550 c 0
 181.75390625 536.365234375 172.6640625 527.2734375 159.02734375 527.2734375 c 2
 113.572265625 527.2734375 l 2
 99.9375 527.2734375 90.845703125 536.365234375 90.845703125 550 c 0
 90.845703125 563.634765625 99.935546875 572.7265625 113.572265625 572.7265625 c 2
 159.02734375 572.7265625 l 2
159.02734375 481.818359375 m 2
 172.6640625 481.818359375 181.75390625 472.7265625 181.75390625 459.091796875 c 0
 181.75390625 445.45703125 172.6640625 436.365234375 159.02734375 436.365234375 c 2
 113.572265625 436.365234375 l 2
 99.9375 436.365234375 90.845703125 445.45703125 90.845703125 459.091796875 c 0
 90.845703125 472.7265625 99.935546875 481.818359375 113.572265625 481.818359375 c 2
 159.02734375 481.818359375 l 2
895.390625 661.36328125 m 2
 906.75390625 656.818359375 911.298828125 647.7265625 909.02734375 636.36328125 c 0
 906.755859375 625 897.6640625 618.181640625 886.30078125 618.181640625 c 2
 640.845703125 618.181640625 l 1
 768.1171875 -109.08984375 l 1
 818.1171875 -109.08984375 l 2
 824.93359375 -109.08984375 829.48046875 -111.36328125 834.025390625 -115.908203125 c 2
 879.48046875 -161.36328125 l 2
 888.572265625 -170.455078125 888.572265625 -184.08984375 879.48046875 -193.181640625 c 0
 874.935546875 -197.7265625 868.1171875 -200 863.572265625 -200 c 0
 859.02734375 -200 852.208984375 -197.7265625 847.6640625 -193.181640625 c 2
 809.02734375 -154.544921875 l 1
 190.845703125 -154.544921875 l 1
 152.208984375 -193.181640625 l 2
 143.1171875 -202.2734375 129.482421875 -202.2734375 120.390625 -193.181640625 c 0
 111.298828125 -184.08984375 111.298828125 -170.455078125 120.390625 -161.36328125 c 2
 165.84375 -115.908203125 l 2
 170.390625 -111.36328125 174.935546875 -109.08984375 181.75390625 -109.08984375 c 2
 243.115234375 -109.08984375 l 1
 420.388671875 22.728515625 l 2
 429.48046875 29.546875 445.388671875 27.275390625 452.20703125 18.18359375 c 0
 459.025390625 9.091796875 456.75390625 -6.81640625 447.662109375 -13.634765625 c 2
 318.1171875 -109.08984375 l 1
 722.6640625 -109.08984375 l 1
 677.208984375 154.546875 l 1
 538.572265625 52.2734375 l 1
 670.390625 -45.453125 l 2
 679.48046875 -52.271484375 681.75390625 -68.1796875 674.935546875 -77.271484375 c 0
 670.390625 -84.08984375 663.572265625 -86.36328125 656.75390625 -86.36328125 c 0
 652.208984375 -86.36328125 647.662109375 -84.091796875 643.1171875 -81.818359375 c 2
 322.662109375 154.544921875 l 1
 295.388671875 -6.818359375 l 2
 293.1171875 -18.181640625 284.025390625 -25 272.662109375 -25 c 0
 270.390625 -25 270.390625 -25 268.1171875 -25 c 0
 256.75390625 -22.7265625 247.662109375 -9.08984375 249.935546875 2.2734375 c 2
 359.02734375 618.181640625 l 1
 113.572265625 618.181640625 l 2
 102.208984375 618.181640625 93.119140625 625 90.845703125 636.36328125 c 0
 88.57421875 645.455078125 95.390625 656.818359375 104.482421875 661.36328125 c 2
 399.935546875 797.7265625 l 2
 402.208984375 800 406.75390625 800 409.02734375 800 c 2
 590.845703125 800 l 2
 593.1171875 800 597.6640625 800 599.935546875 797.7265625 c 2
 895.390625 661.36328125 l 2
668.1171875 206.818359375 m 1
 636.298828125 388.638671875 l 1
 538.572265625 318.18359375 l 1
 627.208984375 254.546875 l 2
 636.298828125 247.728515625 638.572265625 231.8203125 631.75390625 222.728515625 c 0
 627.208984375 215.91015625 620.390625 213.63671875 613.572265625 213.63671875 c 0
 609.02734375 213.63671875 604.48046875 215.908203125 599.935546875 218.181640625 c 2
 363.572265625 386.36328125 l 1
 336.298828125 227.271484375 l 1
 418.1171875 286.36328125 l 2
 429.48046875 295.455078125 443.1171875 293.181640625 449.935546875 281.818359375 c 0
 459.02734375 270.455078125 454.482421875 256.818359375 445.390625 250 c 2
 356.75390625 186.36328125 l 1
 499.935546875 79.544921875 l 1
 668.1171875 206.818359375 l 1
593.1171875 477.2734375 m 2
 602.208984375 470.455078125 602.208984375 454.544921875 595.390625 445.45703125 c 0
 590.845703125 438.638671875 584.02734375 436.365234375 577.208984375 436.365234375 c 0
 572.6640625 436.365234375 568.1171875 436.365234375 563.572265625 440.91015625 c 2
 395.390625 579.546875 l 1
 372.6640625 452.2734375 l 1
 415.845703125 486.365234375 l 2
 424.9375 495.455078125 438.57421875 493.18359375 447.6640625 484.091796875 c 0
 456.75390625 475 454.482421875 459.091796875 445.390625 452.2734375 c 2
 399.935546875 415.91015625 l 1
 497.662109375 345.455078125 l 1
 624.935546875 436.36328125 l 1
 599.935546875 579.544921875 l 1
 534.02734375 525 l 1
 593.1171875 477.2734375 l 2
636.298828125 663.63671875 m 1
 636.298828125 663.638671875 l 1
 786.296875 663.638671875 l 1
 588.5703125 754.546875 l 1
 415.84375 754.546875 l 1
 218.1171875 663.638671875 l 1
 363.572265625 663.638671875 l 1
 365.845703125 663.638671875 l 1
 370.390625 690.912109375 l 2
 372.6640625 702.275390625 386.30078125 711.3671875 397.6640625 709.09375 c 0
 409.02734375 706.8203125 418.119140625 695.45703125 415.845703125 684.09375 c 2
 406.75390625 631.8203125 l 1
 499.935546875 554.546875 l 1
 577.208984375 618.18359375 l 1
 477.208984375 618.18359375 l 2
 463.57421875 618.18359375 454.482421875 627.275390625 454.482421875 640.91015625 c 0
 454.482421875 654.544921875 463.572265625 663.63671875 477.208984375 663.63671875 c 2
 588.572265625 663.63671875 l 1
 586.298828125 681.818359375 l 2
 584.025390625 695.455078125 593.1171875 706.818359375 604.48046875 709.091796875 c 0
 618.1171875 711.365234375 629.48046875 702.2734375 631.75390625 690.91015625 c 2
 636.298828125 663.63671875 l 1
EndSplineSet
Validated: 37
EndChar

StartChar: NameMe.4
Encoding: 4 57348 4
Width: 1000
Flags: H
LayerCount: 2
Fore
SplineSet
0 50 m 0
 -0.666666666667 67.3333333333 5.33333333333 82 18 94 c 0
 30.6666666667 106 45.6666666667 112 63 112 c 2
 125 112 l 1
 125 237 l 1
 63 237 l 2
 44.3333333333 236.333333333 29.3333333333 242.333333333 18 255 c 0
 6.66666666667 267.666666667 0.666666666667 282.666666667 -0 300 c 0
 -0.666666666667 317.333333333 5.33333333333 332 18 344 c 0
 30.6666666667 356 45.6666666667 362 63 362 c 2
 125 362 l 1
 125 487 l 1
 63 487 l 2
 44.3333333333 486.333333333 29.3333333333 492.333333333 18 505 c 0
 6.66666666667 517.666666667 0.666666666667 532.666666667 -0 550 c 0
 -0.666666666667 567.333333333 5.33333333333 582 18 594 c 0
 30.6666666667 606 45.6666666667 612 63 612 c 2
 125 612 l 1
 125 664 143.333333333 708.333333333 180 745 c 0
 216.666666667 781.666666667 261 800 313 800 c 2
 813 800 l 2
 864.333333333 800 908.333333333 781.666666667 945 745 c 0
 981.666666667 708.333333333 1000 664 1000 612 c 2
 1000 278 l 1
 968.666666667 322.666666667 927 358.666666667 875 386 c 2
 875 612 l 2
 875.666666667 628.666666667 869.666666667 643.333333333 857 656 c 0
 844.333333333 668.666666667 829.666666667 675 813 675 c 2
 313 675 l 2
 295 674.333333333 280 668 268 656 c 0
 256 644 250 629.333333333 250 612 c 2
 250 -13 l 2
 249.333333333 -30.3333333333 255.333333333 -45 268 -57 c 0
 280.666666667 -69 295.666666667 -75 313 -75 c 2
 414 -75 l 2
 441.333333333 -127 477.333333333 -168.666666667 522 -200 c 1
 313 -200 l 2
 261 -199.333333333 216.666666667 -181 180 -145 c 0
 143.333333333 -109 125 -65 125 -13 c 1
 63 -13 l 2
 45 -13.6666666667 30 -7.66666666667 18 5 c 0
 6 17.6666666667 0 32.6666666667 0 50 c 0
313 50 m 1
 313 112 l 1
 378 112 l 2
 379.333333333 109.333333333 379 104.666666667 377 98 c 0
 375 91.3333333333 374.333333333 85.6666666667 375 81 c 0
 375.666666667 76.3333333333 376.333333333 70.3333333333 377 63 c 0
 377.666666667 55.6666666667 378 51.3333333333 378 50 c 1
 313 50 l 1
313 175 m 1
 313 237 l 1
 414 237 l 1
 404 218.333333333 396 197.666666667 390 175 c 2
 313 175 l 1
313 300 m 1
 313 362 l 1
 522 362 l 1
 498.666666667 346 476.666666667 325.333333333 456 300 c 2
 313 300 l 1
313 425 m 1
 313 487 l 1
 813 487 l 1
 813 425 l 1
 313 425 l 1
313 550 m 1
 313 612 l 1
 813 612 l 1
 813 550 l 1
 313 550 l 1
438 81 m 0
 438 119 445.333333333 155.333333333 460 190 c 0
 474.666666667 224.666666667 494.666666667 254.666666667 520 280 c 0
 545.333333333 305.333333333 575.333333333 325.333333333 610 340 c 0
 644.666666667 354.666666667 681 362 719 362 c 0
 757 362 793.333333333 354.666666667 828 340 c 0
 862.666666667 325.333333333 892.666666667 305.333333333 918 280 c 0
 943.333333333 254.666666667 963.333333333 224.666666667 978 190 c 0
 992.666666667 155.333333333 1000 119 1000 81 c 0
 1000 43 992.666666667 6.66666666667 978 -28 c 0
 963.333333333 -62.6666666667 943.333333333 -92.6666666667 918 -118 c 0
 892.666666667 -143.333333333 862.666666667 -163.333333333 828 -178 c 0
 793.333333333 -192.666666667 757 -200 719 -200 c 0
 681 -200 644.666666667 -192.666666667 610 -178 c 0
 575.333333333 -163.333333333 545.333333333 -143.333333333 520 -118 c 0
 494.666666667 -92.6666666667 474.666666667 -62.6666666667 460 -28 c 0
 445.333333333 6.66666666667 438 43 438 81 c 0
563 81 m 0
 561.666666667 39 576.666666667 2.33333333333 608 -29 c 0
 639.333333333 -60.3333333333 676.333333333 -75.6666666667 719 -75 c 0
 761.666666667 -74.3333333333 798.333333333 -59 829 -29 c 0
 859.666666667 1 875 37.6666666667 875 81 c 0
 873.666666667 123 858.333333333 159.666666667 829 191 c 0
 799.666666667 222.333333333 763 237.666666667 719 237 c 0
 675 236.333333333 638 221 608 191 c 0
 578 161 563 124.333333333 563 81 c 0
688 81 m 2
 688 143 l 2
 688 150.333333333 691 157.666666667 697 165 c 0
 703 172.333333333 710.333333333 175.666666667 719 175 c 0
 727.666666667 174.333333333 735 171 741 165 c 0
 747 159 750 151.666666667 750 143 c 2
 750 112 l 1
 781 112 l 2
 788.333333333 112 795.666666667 109 803 103 c 0
 810.333333333 97 813.666666667 89.6666666667 813 81 c 0
 812.333333333 72.3333333333 809 65 803 59 c 0
 797 53 789.666666667 50 781 50 c 2
 719 50 l 2
 710.333333333 50 703 53 697 59 c 0
 691 65 688 72.3333333333 688 81 c 2
EndSplineSet
Validated: 33
EndChar

StartChar: NameMe.5
Encoding: 5 57349 5
Width: 1000
Flags: H
LayerCount: 2
Fore
SplineSet
208.333007812 466.666992188 m 2
 185.336914062 466.666992188 166.666992188 447.99609375 166.666992188 425 c 0
 166.666992188 402.00390625 185.336914062 383.333007812 208.333007812 383.333007812 c 2
 250 383.333007812 l 1
 250 300 l 2
 250 176.140625 340.106445312 73.298828125 458.333007812 53.4580078125 c 1
 458.333007812 -75 l 2
 458.333007812 -97.99609375 477.00390625 -116.666992188 500 -116.666992188 c 0
 522.99609375 -116.666992188 541.666992188 -97.99609375 541.666992188 -75 c 2
 541.666992188 53.4580078125 l 1
 659.893554688 73.298828125 750 176.140625 750 300 c 2
 750 383.333007812 l 1
 791.666992188 383.333007812 l 2
 814.663085938 383.333007812 833.333007812 402.00390625 833.333007812 425 c 0
 833.333007812 447.99609375 814.663085938 466.666992188 791.666992188 466.666992188 c 0
 208.333007812 466.666992188 208.333007812 466.666992188 208.333007812 466.666992188 c 2
708.333007812 675 m 2
 708.333007812 697.99609375 689.663085938 716.666992188 666.666992188 716.666992188 c 0
 643.669921875 716.666992188 625 697.99609375 625 675 c 2
 625 550 l 2
 625 527.00390625 643.669921875 508.333007812 666.666992188 508.333007812 c 0
 689.663085938 508.333007812 708.333007812 527.00390625 708.333007812 550 c 2
 708.333007812 675 l 2
375 675 m 2
 375 697.99609375 356.330078125 716.666992188 333.333007812 716.666992188 c 0
 310.336914062 716.666992188 291.666992188 697.99609375 291.666992188 675 c 2
 291.666992188 550 l 2
 291.666992188 527.00390625 310.336914062 508.333007812 333.333007812 508.333007812 c 0
 356.330078125 508.333007812 375 527.00390625 375 550 c 2
 375 675 l 2
333.333007812 383.333007812 m 1
 666.666992188 383.333007812 l 1
 666.666992188 300 l 2
 666.666992188 207.912109375 592.087890625 133.333007812 500 133.333007812 c 0
 407.912109375 133.333007812 333.333007812 207.912109375 333.333007812 300 c 2
 333.333007812 383.333007812 l 1
EndSplineSet
Validated: 9
EndChar

StartChar: NameMe.6
Encoding: 6 57350 6
Width: 1000
Flags: H
LayerCount: 2
Fore
SplineSet
541.666992188 172.041992188 m 2
 577.5 162.708007812 604.166992188 130.375 604.166992188 91.6669921875 c 0
 604.166992188 45.7080078125 566.833007812 8.3330078125 520.833007812 8.3330078125 c 0
 474.833007812 8.3330078125 437.5 45.7080078125 437.5 91.6669921875 c 0
 437.5 130.375 464.166992188 162.708007812 500 172.041992188 c 2
 500 404.166992188 l 2
 500 415.625 509.375 425 520.833007812 425 c 0
 532.291992188 425 541.666992188 415.625 541.666992188 404.166992188 c 2
 541.666992188 172.041992188 l 2
666.666992188 239.208007812 m 2
 705.083007812 201.625 729.166992188 149.583007812 729.166992188 91.6669921875 c 0
 729.166992188 -23.2080078125 635.708007812 -116.666992188 520.833007812 -116.666992188 c 0
 405.958007812 -116.666992188 312.5 -23.2080078125 312.5 91.6669921875 c 0
 312.5 149.583007812 336.583007812 201.625 375 239.208007812 c 2
 375 570.833007812 l 2
 375 651.25 440.416992188 716.666992188 520.833007812 716.666992188 c 0
 601.25 716.666992188 666.666992188 651.25 666.666992188 570.833007812 c 2
 666.666992188 239.208007812 l 2
520.833007812 -33.3330078125 m 0
 589.75 -33.3330078125 645.833007812 22.75 645.833007812 91.6669921875 c 0
 645.833007812 137.708007812 620.541992188 177.583007812 583.333007812 199.291992188 c 2
 583.333007812 570.833007812 l 2
 583.333007812 605.291992188 555.291992188 633.333007812 520.833007812 633.333007812 c 0
 486.375 633.333007812 458.333007812 605.291992188 458.333007812 570.833007812 c 2
 458.333007812 199.291992188 l 2
 421.125 177.583007812 395.833007812 137.708007812 395.833007812 91.6669921875 c 0
 395.833007812 22.75 451.916992188 -33.3330078125 520.833007812 -33.3330078125 c 0
EndSplineSet
Validated: 1
EndChar

StartChar: NameMe.7
Encoding: 7 57351 7
Width: 1000
Flags: H
LayerCount: 2
Fore
SplineSet
220.54296875 270.54296875 m 1
 428.875976562 62.2099609375 l 2
 455.0390625 36.046875 500 54.77734375 500 91.6669921875 c 0
 500 103.165039062 495.33203125 113.58203125 487.790039062 121.124023438 c 2
 350.581054688 258.333007812 l 1
 750 258.333007812 l 2
 772.99609375 258.333007812 791.666992188 277.00390625 791.666992188 300 c 0
 791.666992188 322.99609375 772.99609375 341.666992188 750 341.666992188 c 2
 350.581054688 341.666992188 l 1
 487.790039062 478.875976562 l 2
 513.953125 505.0390625 495.22265625 550 458.333007812 550 c 0
 446.834960938 550 436.41796875 545.33203125 428.875976562 537.790039062 c 2
 220.54296875 329.45703125 l 2
 194.380859375 303.294921875 213.110351562 258.333007812 250 258.333007812 c 1024
EndSplineSet
Validated: 35
EndChar

StartChar: NameMe.8
Encoding: 8 57352 8
Width: 1000
Flags: H
LayerCount: 2
Fore
SplineSet
779.45703125 329.45703125 m 1
 571.124023438 537.790039062 l 2
 544.9609375 563.953125 500 545.22265625 500 508.333007812 c 0
 500 496.834960938 504.66796875 486.41796875 512.209960938 478.875976562 c 2
 649.418945312 341.666992188 l 1
 250 341.666992188 l 2
 227.00390625 341.666992188 208.333007812 322.99609375 208.333007812 300 c 0
 208.333007812 277.00390625 227.00390625 258.333007812 250 258.333007812 c 2
 649.418945312 258.333007812 l 1
 512.209960938 121.124023438 l 2
 486.046875 94.9609375 504.77734375 50 541.666992188 50 c 0
 553.165039062 50 563.58203125 54.66796875 571.124023438 62.2099609375 c 2
 779.45703125 270.54296875 l 2
 805.619140625 296.705078125 786.889648438 341.666992188 750 341.666992188 c 1024
EndSplineSet
Validated: 35
EndChar

StartChar: NameMe.9
Encoding: 9 57353 9
Width: 1000
Flags: H
LayerCount: 2
Fore
SplineSet
208.333007812 591.666992188 m 2
 208.333007812 614.663085938 189.663085938 633.333007812 166.666992188 633.333007812 c 0
 143.669921875 633.333007812 125 614.663085938 125 591.666992188 c 2
 125 8.3330078125 l 2
 125 -37.669921875 162.330078125 -75 208.333007812 -75 c 2
 791.666992188 -75 l 2
 814.663085938 -75 833.333007812 -56.330078125 833.333007812 -33.3330078125 c 0
 833.333007812 -10.3369140625 814.663085938 8.3330078125 791.666992188 8.3330078125 c 2
 208.333007812 8.3330078125 l 1
 208.333007812 591.666992188 l 2
779.45703125 395.54296875 m 2
 805.619140625 421.705078125 786.889648438 466.666992188 750 466.666992188 c 0
 738.501953125 466.666992188 728.084960938 461.999023438 720.54296875 454.45703125 c 2
 541.666992188 275.581054688 l 1
 466.95703125 350.290039062 l 2
 450.678710938 366.569335938 424.321289062 366.569335938 408.04296875 350.290039062 c 2
 262.209960938 204.45703125 l 2
 236.046875 178.294921875 254.77734375 133.333007812 291.666992188 133.333007812 c 0
 303.165039062 133.333007812 313.58203125 138.000976562 321.124023438 145.54296875 c 2
 437.5 261.918945312 l 1
 512.209960938 187.209960938 l 2
 528.48828125 170.930664062 554.844726562 170.930664062 571.124023438 187.209960938 c 2
 779.45703125 395.54296875 l 2
EndSplineSet
Validated: 41
EndChar

StartChar: NameMe.10
Encoding: 10 57354 10
Width: 1000
Flags: H
LayerCount: 2
Fore
SplineSet
123.576171875 528.108398438 m 0
 123.576171875 551.10546875 104.905273438 569.775390625 81.9091796875 569.775390625 c 0
 58.9130859375 569.775390625 40.2421875 551.10546875 40.2421875 528.108398438 c 2
 40.2421875 -55.224609375 l 2
 40.2421875 -101.263671875 77.62109375 -138.557617188 123.576171875 -138.557617188 c 2
 706.909179688 -138.557617188 l 2
 729.905273438 -138.557617188 748.576171875 -119.887695312 748.576171875 -96.8916015625 c 0
 748.576171875 -73.89453125 729.905273438 -55.224609375 706.909179688 -55.224609375 c 2
 123.577148438 -55.224609375 l 1
 123.577148438 139.219726562 123.576171875 333.6640625 123.576171875 528.108398438 c 0
694.69921875 331.985351562 m 2
 720.862304688 358.147460938 702.131835938 403.108398438 665.2421875 403.108398438 c 0
 653.744140625 403.108398438 643.327148438 398.44140625 635.78515625 390.899414062 c 2
 456.909179688 212.022460938 l 1
 382.19921875 286.732421875 l 2
 365.920898438 303.010742188 339.564453125 303.010742188 323.28515625 286.732421875 c 2
 177.452148438 140.899414062 l 2
 151.290039062 114.736328125 170.01953125 69.775390625 206.909179688 69.775390625 c 0
 218.407226562 69.775390625 228.82421875 74.443359375 236.366210938 81.9853515625 c 2
 352.7421875 198.361328125 l 1
 427.452148438 123.651367188 l 2
 443.73046875 107.373046875 470.087890625 107.373046875 486.366210938 123.651367188 c 2
 694.69921875 331.985351562 l 2
771.848632812 715.375976562 m 0
 839.69140625 647.533203125 839.69140625 537.147460938 771.848632812 469.305664062 c 0
 704.005859375 401.462890625 593.6328125 401.462890625 525.790039062 469.305664062 c 0
 457.946289062 537.147460938 457.946289062 647.533203125 525.790039062 715.375976562 c 0
 593.6328125 783.217773438 704.005859375 783.217773438 771.848632812 715.375976562 c 0
747.690429688 493.462890625 m 0
 802.291015625 548.07421875 802.28125 636.60546875 747.680664062 691.206054688 c 0
 693.080078125 745.806640625 604.548828125 745.806640625 549.948242188 691.206054688 c 0
 495.34765625 636.616210938 495.34765625 548.07421875 549.948242188 493.473632812 c 0
 604.548828125 438.873046875 693.08984375 438.873046875 747.690429688 493.462890625 c 0
571.76953125 659.123046875 m 0
 573.877929688 661.823242188 577.783203125 662.301757812 580.481445312 660.193359375 c 0
 583.193359375 658.083984375 583.681640625 654.1796875 581.5625 651.478515625 c 0
 556.833007812 619.739257812 554.776367188 575.8671875 575.403320312 542.111328125 c 0
 577.190429688 539.184570312 576.265625 535.361328125 573.34765625 533.564453125 c 0
 570.418945312 531.788085938 566.586914062 532.703125 564.799804688 535.641601562 c 0
 541.494140625 573.791015625 543.8203125 623.208007812 571.76953125 659.123046875 c 0
949.380859375 340.0078125 m 2
 965.86328125 326.349609375 966.205078125 305.515625 950.595703125 289.936523438 c 0
 935.005859375 274.336914062 914.826171875 275.313476562 901.16796875 291.806640625 c 2
 778.173828125 418.08203125 l 2
 771.432617188 424.978515625 771.506835938 436.008789062 778.3203125 442.821289062 c 2
 798.34375 462.845703125 l 2
 805.16796875 469.658203125 816.198242188 469.7421875 823.104492188 463.01171875 c 2
 949.380859375 340.0078125 l 2
EndSplineSet
Validated: 41
EndChar

StartChar: NameMe.11
Encoding: 11 57355 11
Width: 1000
Flags: H
LayerCount: 2
Fore
SplineSet
500 747.916992188 m 0
 517.258789062 747.916992188 531.25 733.92578125 531.25 716.666992188 c 2
 531.25 633.333007812 l 2
 531.25 616.07421875 517.258789062 602.083007812 500 602.083007812 c 0
 482.741210938 602.083007812 468.75 616.07421875 468.75 633.333007812 c 2
 468.75 716.666992188 l 2
 468.75 733.92578125 482.741210938 747.916992188 500 747.916992188 c 0
152.860351562 645.163085938 m 0
 164.505859375 657.900390625 184.272460938 658.78515625 197.010742188 647.139648438 c 2
 289.59375 562.490234375 l 2
 302.33203125 550.84375 303.216796875 531.078125 291.571289062 518.340820312 c 0
 279.924804688 505.602539062 260.158203125 504.717773438 247.420898438 516.36328125 c 2
 154.836914062 601.012695312 l 2
 142.099609375 612.659179688 141.21484375 632.42578125 152.860351562 645.163085938 c 0
847.141601562 645.163085938 m 0
 858.787109375 632.42578125 857.900390625 612.659179688 845.162109375 601.012695312 c 2
 752.579101562 516.36328125 l 2
 739.841796875 504.717773438 720.075195312 505.602539062 708.428710938 518.340820312 c 0
 696.783203125 531.078125 697.666992188 550.84375 710.404296875 562.490234375 c 2
 802.991210938 647.139648438 l 2
 815.729492188 658.78515625 835.491210938 657.900390625 847.141601562 645.163085938 c 0
500 477.083007812 m 0
 402.19921875 477.083007812 322.916992188 397.80078125 322.916992188 300 c 0
 322.916992188 202.200195312 402.19921875 122.916992188 500 122.916992188 c 0
 597.799804688 122.916992188 677.083007812 202.200195312 677.083007812 300 c 0
 677.083007812 397.80078125 597.799804688 477.083007812 500 477.083007812 c 0
260.416992188 300 m 0
 260.416992188 432.318359375 367.681640625 539.583007812 500 539.583007812 c 0
 632.31640625 539.583007812 739.583007812 432.318359375 739.583007812 300 c 0
 739.583007812 167.68359375 632.31640625 60.4169921875 500 60.4169921875 c 0
 367.681640625 60.4169921875 260.416992188 167.68359375 260.416992188 300 c 0
52.0830078125 300 m 0
 52.0830078125 317.258789062 66.07421875 331.25 83.3330078125 331.25 c 2
 166.666992188 331.25 l 2
 183.92578125 331.25 197.916992188 317.258789062 197.916992188 300 c 0
 197.916992188 282.741210938 183.92578125 268.75 166.666992188 268.75 c 2
 83.3330078125 268.75 l 2
 66.07421875 268.75 52.0830078125 282.741210938 52.0830078125 300 c 0
802.083007812 300 m 0
 802.083007812 317.258789062 816.075195312 331.25 833.333007812 331.25 c 2
 916.666992188 331.25 l 2
 933.924804688 331.25 947.916992188 317.258789062 947.916992188 300 c 0
 947.916992188 282.741210938 933.924804688 268.75 916.666992188 268.75 c 2
 833.333007812 268.75 l 2
 816.075195312 268.75 802.083007812 282.741210938 802.083007812 300 c 0
709.395507812 90.6162109375 m 0
 721.599609375 102.821289062 741.387695312 102.821289062 753.591796875 90.6162109375 c 2
 846.174804688 -1.9794921875 l 2
 858.37890625 -14.18359375 858.375 -33.970703125 846.170898438 -46.1748046875 c 0
 833.966796875 -58.37890625 814.178710938 -58.375 801.979492188 -46.1708984375 c 2
 709.395507812 46.4248046875 l 2
 697.19140625 58.62890625 697.19140625 78.412109375 709.395507812 90.6162109375 c 0
290.611328125 90.6123046875 m 0
 302.815429688 78.408203125 302.815429688 58.62109375 290.611328125 46.4169921875 c 2
 198.018554688 -46.1748046875 l 2
 185.814453125 -58.37890625 166.028320312 -58.37890625 153.82421875 -46.1748046875 c 0
 141.620117188 -33.970703125 141.620117188 -14.18359375 153.82421875 -1.9833984375 c 2
 246.416992188 90.6123046875 l 2
 258.62109375 102.81640625 278.407226562 102.81640625 290.611328125 90.6123046875 c 0
500 -2.0830078125 m 0
 517.258789062 -2.0830078125 531.25 -16.0751953125 531.25 -33.3330078125 c 2
 531.25 -116.666992188 l 2
 531.25 -133.924804688 517.258789062 -147.916992188 500 -147.916992188 c 0
 482.741210938 -147.916992188 468.75 -133.924804688 468.75 -116.666992188 c 2
 468.75 -33.3330078125 l 2
 468.75 -16.0751953125 482.741210938 -2.0830078125 500 -2.0830078125 c 0
EndSplineSet
Validated: 33
EndChar

StartChar: NameMe.12
Encoding: 12 57356 12
Width: 1000
Flags: H
LayerCount: 2
Fore
SplineSet
96.6796875 313.18359375 m 0
 96.6796875 83.0859375 283.249023438 -103.483398438 513.346679688 -103.483398438 c 0
 688.639648438 -103.483398438 838.7265625 4.7978515625 900.22265625 158.17578125 c 0
 913.78125 191.993164062 879.860351562 225.923828125 846.03125 212.340820312 c 0
 807.540039062 196.88671875 765.454101562 188.18359375 721.6796875 188.18359375 c 0
 537.551757812 188.18359375 388.346679688 337.389648438 388.346679688 521.516601562 c 0
 388.346679688 565.16796875 396.946289062 607.583007812 412.236328125 645.790039062 c 0
 425.771484375 679.61328125 391.836914062 713.518554688 358.018554688 699.923828125 c 0
 204.826171875 638.338867188 96.6796875 488.346679688 96.6796875 313.18359375 c 0
180.012695312 313.18359375 m 0
 180.012695312 420.108398438 230.344726562 515.256835938 308.595703125 576.245117188 c 1
 272.70703125 303.512695312 505.990234375 72.4462890625 776.461914062 108.481445312 c 1
 715.479492188 30.19921875 620.30859375 -20.1494140625 513.346679688 -20.1494140625 c 0
 329.21875 -20.1494140625 180.012695312 129.055664062 180.012695312 313.18359375 c 0
EndSplineSet
Validated: 41
EndChar

StartChar: NameMe.13
Encoding: 13 57357 13
Width: 1000
Flags: H
LayerCount: 2
Fore
SplineSet
322.034179688 391.984375 m 0
 332.435546875 391.984375 340.8671875 383.551757812 340.8671875 373.150390625 c 2
 340.8671875 322.927734375 l 2
 340.8671875 312.525390625 332.435546875 304.09375 322.034179688 304.09375 c 0
 311.6328125 304.09375 303.200195312 312.525390625 303.200195312 322.927734375 c 2
 303.200195312 373.150390625 l 2
 303.200195312 383.551757812 311.6328125 391.984375 322.034179688 391.984375 c 0
112.819335938 330.056640625 m 0
 119.838867188 337.733398438 131.750976562 338.266601562 139.427734375 331.248046875 c 2
 195.2265625 280.231445312 l 2
 202.903320312 273.212890625 203.436523438 261.299804688 196.41796875 253.623046875 c 0
 189.399414062 245.946289062 177.486328125 245.413085938 169.809570312 252.431640625 c 2
 114.010742188 303.448242188 l 2
 106.333984375 310.466796875 105.80078125 322.379882812 112.819335938 330.056640625 c 0
531.249023438 330.056640625 m 0
 538.268554688 322.379882812 537.733398438 310.466796875 530.056640625 303.448242188 c 2
 474.2578125 252.431640625 l 2
 466.58203125 245.413085938 454.668945312 245.946289062 447.650390625 253.623046875 c 0
 440.630859375 261.299804688 441.1640625 273.212890625 448.840820312 280.231445312 c 2
 504.640625 331.248046875 l 2
 512.317382812 338.266601562 524.228515625 337.733398438 531.249023438 330.056640625 c 0
322.034179688 228.758789062 m 0
 263.091796875 228.758789062 215.309570312 180.9765625 215.309570312 122.034179688 c 0
 215.309570312 63.091796875 263.091796875 15.3095703125 322.034179688 15.3095703125 c 0
 380.975585938 15.3095703125 428.758789062 63.091796875 428.758789062 122.034179688 c 0
 428.758789062 180.9765625 380.975585938 228.758789062 322.034179688 228.758789062 c 0
177.641601562 122.034179688 m 0
 177.641601562 201.779296875 242.288085938 266.42578125 322.034179688 266.42578125 c 0
 401.778320312 266.42578125 466.42578125 201.779296875 466.42578125 122.034179688 c 0
 466.42578125 42.2890625 401.778320312 -22.3583984375 322.034179688 -22.3583984375 c 0
 242.288085938 -22.3583984375 177.641601562 42.2890625 177.641601562 122.034179688 c 0
52.0830078125 122.034179688 m 0
 52.0830078125 132.435546875 60.515625 140.8671875 70.9169921875 140.8671875 c 2
 121.140625 140.8671875 l 2
 131.541992188 140.8671875 139.974609375 132.435546875 139.974609375 122.034179688 c 0
 139.974609375 111.6328125 131.541992188 103.200195312 121.140625 103.200195312 c 2
 70.9169921875 103.200195312 l 2
 60.515625 103.200195312 52.0830078125 111.6328125 52.0830078125 122.034179688 c 0
504.09375 122.034179688 m 0
 504.09375 132.435546875 512.526367188 140.8671875 522.927734375 140.8671875 c 2
 573.150390625 140.8671875 l 2
 583.551757812 140.8671875 591.984375 132.435546875 591.984375 122.034179688 c 0
 591.984375 111.6328125 583.551757812 103.200195312 573.150390625 103.200195312 c 2
 522.927734375 103.200195312 l 2
 512.526367188 103.200195312 504.09375 111.6328125 504.09375 122.034179688 c 0
448.232421875 -4.1572265625 m 0
 455.587890625 3.1982421875 467.513671875 3.1982421875 474.868164062 -4.1572265625 c 2
 530.666992188 -59.962890625 l 2
 538.021484375 -67.318359375 538.01953125 -79.244140625 530.6640625 -86.5986328125 c 0
 523.30859375 -93.9541015625 511.383789062 -93.9521484375 504.03125 -86.5966796875 c 2
 448.232421875 -30.791015625 l 2
 440.876953125 -23.435546875 440.876953125 -11.5126953125 448.232421875 -4.1572265625 c 0
195.83984375 -4.16015625 m 0
 203.194335938 -11.5146484375 203.194335938 -23.4404296875 195.83984375 -30.7958984375 c 2
 140.03515625 -86.5986328125 l 2
 132.680664062 -93.9541015625 120.755859375 -93.9541015625 113.400390625 -86.5986328125 c 0
 106.045898438 -79.244140625 106.045898438 -67.318359375 113.400390625 -59.9658203125 c 2
 169.204101562 -4.16015625 l 2
 176.559570312 3.1953125 188.484375 3.1953125 195.83984375 -4.16015625 c 0
322.034179688 -60.025390625 m 0
 332.435546875 -60.025390625 340.8671875 -68.4580078125 340.8671875 -78.859375 c 2
 340.8671875 -129.083007812 l 2
 340.8671875 -139.484375 332.435546875 -147.916992188 322.034179688 -147.916992188 c 0
 311.6328125 -147.916992188 303.200195312 -139.484375 303.200195312 -129.083007812 c 2
 303.200195312 -78.859375 l 2
 303.200195312 -68.4580078125 311.6328125 -60.025390625 322.034179688 -60.025390625 c 0
658.078125 667.431640625 m 0
 658.078125 707.609375 671.505859375 728.268554688 671.505859375 737.418945312 c 0
 671.505859375 752.21484375 656.473632812 762.270507812 642.854492188 756.7890625 c 0
 566.1328125 725.91015625 511.965820312 650.802734375 511.965820312 563.061523438 c 0
 511.965820312 447.826171875 605.432617188 354.365234375 720.703125 354.365234375 c 0
 808.490234375 354.365234375 883.688476562 408.616210938 914.482421875 485.443359375 c 0
 919.939453125 499.059570312 909.884765625 514.067382812 895.100585938 514.067382812 c 0
 885.774414062 514.067382812 865.31640625 500.436523438 825.032226562 500.436523438 c 0
 732.830078125 500.436523438 658.078125 575.182617188 658.078125 667.431640625 c 0
720.703125 396.107421875 m 0
 628.454101562 396.107421875 553.708007812 470.859375 553.708007812 563.061523438 c 0
 553.708007812 616.629882812 578.923828125 664.2890625 618.134765625 694.846679688 c 1
 600.129882812 558.205078125 717.083007812 442.44140625 852.465820312 460.516601562 c 1
 821.91796875 421.321289062 774.249023438 396.107421875 720.703125 396.107421875 c 0
EndSplineSet
Validated: 41
EndChar

StartChar: NameMe.14
Encoding: 14 57358 14
Width: 1000
Flags: H
LayerCount: 2
Fore
SplineSet
168.787109375 242.98046875 m 2
 17.419921875 396.172851562 l 2
 6.1708984375 407.557617188 -0.095703125 422.9453125 0.0009765625 438.950195312 c 0
 0.0966796875 454.955078125 6.5478515625 470.265625 17.9326171875 481.515625 c 2
 169.065429688 630.849609375 l 2
 192.774414062 654.275390625 230.986328125 654.044921875 254.407226562 630.337890625 c 0
 277.833984375 606.629882812 277.604492188 568.419921875 253.896484375 544.994140625 c 2
 205.331054688 497.006835938 l 1
 693.848632812 497.006835938 l 2
 775.625 497.006835938 852.505859375 465.162109375 910.331054688 407.336914062 c 0
 968.15625 349.512695312 1000.00097656 272.630859375 1000.00097656 190.854492188 c 2
 1000.00097656 185.888671875 l 2
 1000.00097656 104.111328125 968.15625 27.2314453125 910.331054688 -30.59375 c 0
 898.547851562 -42.37890625 883.102539062 -48.26953125 867.659179688 -48.26953125 c 0
 852.215820312 -48.26953125 836.770507812 -42.3779296875 824.987304688 -30.59375 c 0
 801.418945312 -7.02734375 801.418945312 31.18359375 824.987304688 54.75 c 0
 860.014648438 89.779296875 879.305664062 136.349609375 879.305664062 185.887695312 c 2
 879.305664062 190.853515625 l 2
 879.305664062 293.114257812 796.109375 376.309570312 693.848632812 376.309570312 c 2
 206.721679688 376.309570312 l 1
 254.640625 327.811523438 l 2
 278.067382812 304.103515625 277.837890625 265.893554688 254.129882812 242.46875 c 0
 242.370117188 230.848632812 227.038085938 225.047851562 211.716796875 225.047851562 c 0
 196.149414062 225.047851562 180.59375 231.03125 168.787109375 242.98046875 c 2
EndSplineSet
Validated: 33
EndChar

StartChar: NameMe.15
Encoding: 15 57359 15
Width: 1000
Flags: H
LayerCount: 2
Fore
SplineSet
374.997070312 800 m 1
 520.830078125 800 l 1
 812.494140625 581.25 l 1
 812.494140625 452.11328125 l 1
 558.974609375 300 l 1
 812.494140625 147.887695312 l 1
 812.494140625 18.75 l 1
 520.830078125 -200 l 1
 374.997070312 -200 l 1
 374.997070312 198.873046875 l 1
 90.447265625 56.599609375 l 1
 34.5458984375 168.400390625 l 1
 297.7421875 300 l 1
 34.5458984375 431.59765625 l 1
 90.447265625 543.40234375 l 1
 374.997070312 401.126953125 l 1
 374.997070312 800 l 1
499.997070312 189.61328125 m 1
 499.997070312 -59.375 l 1
 684.431640625 78.9501953125 l 1
 499.997070312 189.61328125 l 1
499.997070312 410.38671875 m 1
 684.431640625 521.047851562 l 1
 499.997070312 659.375 l 1
 499.997070312 410.38671875 l 1
EndSplineSet
Validated: 1
EndChar

StartChar: NameMe.16
Encoding: 16 57360 16
Width: 1000
Flags: H
LayerCount: 2
Fore
SplineSet
197.918945312 266.451171875 m 0
 197.918945312 282.513671875 229.146484375 324.750976562 261.390625 368.36328125 c 2
 261.390625 368.36328125 388.955078125 540.971679688 389.005859375 541.041015625 c 0
 443.888671875 615.283203125 483.967773438 669.162109375 508.814453125 682.888671875 c 0
 513.202148438 685.3125 515.279296875 685.422851562 516.83203125 685.239257812 c 2
 516.83203125 685.239257812 525.684570312 682.536132812 530.01171875 637.942382812 c 0
 536.899414062 566.954101562 529.171875 457.448242188 536.44921875 417.4453125 c 0
 541.192382812 391.368164062 556.9375 359.421875 604.443359375 351.41796875 c 0
 657.513671875 342.4765625 792.622070312 357.913085938 802.081054688 333.548828125 c 0
 802.081054688 317.486328125 770.853515625 275.249023438 738.609375 231.63671875 c 2
 738.609375 231.63671875 611.044921875 59.0283203125 610.994140625 58.958984375 c 0
 556.111328125 -15.283203125 516.032226562 -69.162109375 491.185546875 -82.888671875 c 0
 486.797851562 -85.3125 484.720703125 -85.4228515625 483.16796875 -85.2392578125 c 2
 483.16796875 -85.2392578125 474.315429688 -82.5361328125 469.98828125 -37.9423828125 c 0
 463.100585938 33.0458984375 470.828125 142.551757812 463.55078125 182.5546875 c 0
 458.793945312 208.708007812 443.012695312 240.57421875 395.54296875 248.55078125 c 0
 342.783203125 257.416015625 206.315429688 242.15234375 197.918945312 266.451171875 c 0
211.103515625 405.46484375 m 2
 148.625976562 320.958984375 119.169921875 281.118164062 144.1015625 233.241210938 c 0
 157.5078125 209.15234375 182.048828125 198.9453125 205.943359375 194.435546875 c 0
 269.645507812 182.412109375 382.548828125 196.48828125 397.870117188 182.083007812 c 0
 404.255859375 175.813476562 404.255859375 154.145507812 404.255859375 101.9609375 c 0
 404.255859375 25.8369140625 403.813476562 -29.451171875 411.374023438 -70.4794921875 c 0
 417.10546875 -101.583007812 430.333984375 -134.426757812 464.830078125 -145.001953125 c 0
 506.904296875 -157.913085938 541.598632812 -125.315429688 559.955078125 -106.430664062 c 0
 588.239257812 -77.333984375 619.459960938 -34.7158203125 661.336914062 21.9326171875 c 1
 661.333984375 21.9287109375 788.896484375 194.53515625 788.896484375 194.53515625 c 2
 851.259765625 278.885742188 880.826171875 318.877929688 855.888671875 366.775390625 c 0
 842.47265625 390.84765625 817.934570312 401.030273438 794.048828125 405.532226562 c 0
 730.274414062 417.552734375 617.497070312 403.439453125 602.129882812 417.916992188 c 0
 595.744140625 424.186523438 595.744140625 445.854492188 595.744140625 498.0390625 c 0
 595.744140625 574.163085938 596.186523438 629.451171875 588.625976562 670.479492188 c 0
 582.89453125 701.583007812 569.666015625 734.426757812 535.169921875 745.001953125 c 0
 493.095703125 757.913085938 458.401367188 725.315429688 440.044921875 706.430664062 c 0
 411.760742188 677.333984375 380.540039062 634.715820312 338.663085938 578.067382812 c 1
 338.666015625 578.071289062 211.103515625 405.46484375 211.103515625 405.46484375 c 2
EndSplineSet
Validated: 41
EndChar

StartChar: NameMe.17
Encoding: 17 57361 17
Width: 1000
Flags: H
LayerCount: 2
Fore
SplineSet
196.020507812 304.087890625 m 2
 169.81640625 330.109375 125 311.349609375 125 274.528320312 c 0
 125 262.977539062 129.709960938 252.517578125 137.313476562 244.967773438 c 2
 342.431640625 41.2734375 l 2
 358.685546875 25.1328125 384.883789062 25.130859375 401.138671875 41.2724609375 c 2
 862.686523438 499.606445312 l 2
 888.990234375 525.7265625 870.291015625 570.833007812 833.333007812 570.833007812 c 0
 821.887695312 570.833007812 811.513671875 566.208007812 803.98046875 558.727539062 c 2
 371.786132812 129.54296875 l 1
 196.020507812 304.087890625 l 2
EndSplineSet
Validated: 41
EndChar

StartChar: NameMe.18
Encoding: 18 57362 18
Width: 1000
Flags: H
LayerCount: 2
Fore
SplineSet
587.5 300 m 1
 756.25 125 l 2
 781.25 103.125 781.25 62.5 756.25 37.5 c 0
 734.375 12.5 693.75 12.5 668.75 37.5 c 2
 496.875 209.375 l 1
 325 37.5 l 2
 312.5 25 296.875 18.75 281.25 18.75 c 0
 265.625 18.75 250 25 237.5 37.5 c 0
 225 50 218.75 65.625 218.75 81.25 c 0
 218.75 100 228.125 115.625 237.5 128.125 c 2
 409.375 300 l 1
 237.5 471.875 l 2
 225 484.375 218.75 496.875 218.75 515.625 c 0
 218.75 534.375 228.125 550 240.625 559.375 c 0
 262.5 584.375 303.125 584.375 328.125 559.375 c 2
 500 387.5 l 1
 675 562.5 l 2
 687.5 575 703.125 581.25 718.75 581.25 c 0
 734.375 581.25 750 571.875 759.375 559.375 c 1
 759.375 559.375 l 1
 784.375 534.375 784.375 496.875 759.375 471.875 c 2
 587.5 300 l 1
EndSplineSet
Validated: 33
EndChar

StartChar: NameMe.19
Encoding: 19 57363 19
Width: 1000
Flags: H
LayerCount: 2
Fore
SplineSet
225 -150 m 1
 225 -150 l 1
 187.5 -150 154.166992188 -133.333007812 129.166992188 -108.333007812 c 0
 100 -79.1669921875 75 -45.8330078125 54.1669921875 -8.3330078125 c 0
 37.5 25 20.8330078125 58.3330078125 12.5 91.6669921875 c 0
 0 129.166992188 4.1669921875 170.833007812 25 200 c 0
 41.6669921875 229.166992188 70.8330078125 250 100 258.333007812 c 0
 145.833007812 270.833007812 187.5 279.166992188 229.166992188 291.666992188 c 2
 304.166992188 312.5 l 2
 312.5 333.333007812 325 354.166992188 341.666992188 375 c 2
 283.333007812 579.166992188 l 2
 275 612.5 279.166992188 645.833007812 295.833007812 675 c 0
 312.5 704.166992188 345.833007812 729.166992188 379.166992188 737.5 c 0
 416.666992188 745.833007812 458.333007812 754.166992188 504.166992188 750 c 0
 541.666992188 750 579.166992188 745.833007812 612.5 737.5 c 0
 650 729.166992188 683.333007812 704.166992188 700 675 c 0
 716.666992188 645.833007812 720.833007812 612.5 712.5 579.166992188 c 2
 654.166992188 375 l 2
 670.833007812 358.333007812 683.333007812 337.5 691.666992188 312.5 c 2
 895.833007812 258.333007812 l 2
 929.166992188 250 958.333007812 229.166992188 975 200 c 0
 991.666992188 166.666992188 995.833007812 133.333007812 987.5 95.8330078125 c 0
 975 54.1669921875 958.333007812 16.6669921875 937.5 -16.6669921875 c 0
 916.666992188 -50 895.833007812 -79.1669921875 870.833007812 -104.166992188 c 0
 845.833007812 -133.333007812 808.333007812 -150 770.833007812 -150 c 2
 770.833007812 -150 770.833007812 -150 766.666992188 -150 c 0
 733.333007812 -150 700 -137.5 679.166992188 -112.5 c 2
 529.166992188 41.6669921875 l 2
 508.333007812 37.5 483.333007812 37.5 462.5 41.6669921875 c 2
 312.5 -112.5 l 2
 291.666992188 -137.5 258.333007812 -150 225 -150 c 1
291.666992188 229.166992188 m 1
 250 216.666992188 l 2
 208.333007812 204.166992188 162.5 195.833007812 120.833007812 183.333007812 c 0
 108.333007812 179.166992188 100 170.833007812 95.8330078125 162.5 c 0
 87.5 150 87.5 133.333007812 91.6669921875 116.666992188 c 0
 100 87.5 112.5 58.3330078125 129.166992188 33.3330078125 c 0
 145.833007812 4.1669921875 166.666992188 -25 191.666992188 -50 c 0
 204.166992188 -62.5 216.666992188 -66.6669921875 229.166992188 -66.6669921875 c 0
 237.5 -66.6669921875 250 -62.5 258.333007812 -54.1669921875 c 2
 387.5 75 l 1
 333.333007812 108.333007812 300 162.5 291.666992188 229.166992188 c 1
616.666992188 75 m 1
 741.666992188 -54.1669921875 l 2
 750 -62.5 762.5 -66.6669921875 770.833007812 -66.6669921875 c 0
 783.333007812 -66.6669921875 800 -58.3330078125 812.5 -45.8330078125 c 0
 833.333007812 -25 854.166992188 0 866.666992188 29.1669921875 c 0
 883.333007812 58.3330078125 895.833007812 91.6669921875 908.333007812 125 c 0
 912.5 137.5 912.5 154.166992188 904.166992188 166.666992188 c 0
 900 175 887.5 183.333007812 879.166992188 187.5 c 2
 708.333007812 229.166992188 l 1
 700 162.5 666.666992188 108.333007812 616.666992188 75 c 1
500 370.833007812 m 0
 429.166992188 370.833007812 375 316.666992188 375 245.833007812 c 0
 375 175 429.166992188 120.833007812 500 120.833007812 c 0
 570.833007812 120.833007812 625 175 625 245.833007812 c 0
 625 316.666992188 570.833007812 370.833007812 500 370.833007812 c 0
500 675 m 2
 466.666992188 675 433.333007812 670.833007812 400 662.5 c 0
 383.333007812 658.333007812 375 650 366.666992188 637.5 c 0
 362.5 629.166992188 358.333007812 616.666992188 362.5 604.166992188 c 2
 408.333007812 433.333007812 l 1
 462.5 458.333007812 533.333007812 458.333007812 587.5 433.333007812 c 1
 633.333007812 604.166992188 l 2
 637.5 616.666992188 633.333007812 629.166992188 629.166992188 637.5 c 0
 625 650 612.5 658.333007812 595.833007812 662.5 c 0
 566.666992188 670.833007812 537.5 675 504.166992188 675 c 2
 500 675 l 2
EndSplineSet
Validated: 37
EndChar

StartChar: NameMe.20
Encoding: 20 57364 20
Width: 1000
Flags: H
LayerCount: 2
Fore
SplineSet
208.333007812 311.647460938 m 0
 145.248046875 311.647460938 94.1982421875 260.470703125 94.1982421875 197.518554688 c 0
 94.1982421875 167.16796875 106.255859375 136.7734375 130.291015625 114.244140625 c 2
 336.9140625 -79.4404296875 l 2
 391.036132812 -130.232421875 462.204101562 -158.333007812 536.376953125 -158.333007812 c 2
 583.333007812 -158.333007812 l 2
 744.381835938 -158.333007812 875 -27.71484375 875 133.333007812 c 2
 875 487.5 l 2
 875 553.346679688 814.48828125 602.688476562 750 589.580078125 c 1
 750 612.5 l 2
 750 685.530273438 676.545898438 735.65625 608.836914062 709.896484375 c 0
 590.356445312 739.002929688 557.836914062 758.333007812 520.833007812 758.333007812 c 0
 463.336914062 758.333007812 416.666992188 711.663085938 416.666992188 654.166992188 c 2
 416.666992188 631.24609375 l 1
 352.177734375 644.35546875 291.666992188 595.012695312 291.666992188 529.166992188 c 2
 289.01953125 278.228515625 l 1
 266.712890625 300.53515625 237.498046875 311.647460938 208.333007812 311.647460938 c 0
187.254882812 175.045898438 m 2
 167.025390625 194.0078125 180.489257812 228.314453125 208.333007812 228.314453125 c 0
 216.2578125 228.314453125 224.131835938 225.287109375 230.10546875 219.314453125 c 2
 303.875976562 145.54296875 l 2
 330.0390625 119.380859375 375 138.110351562 375 175 c 2
 375 529.166992188 l 2
 375 540.680664062 384.319335938 550 395.833007812 550 c 0
 407.346679688 550 416.666992188 540.680664062 416.666992188 529.166992188 c 2
 416.666992188 341.666992188 l 2
 416.666992188 318.669921875 435.336914062 300 458.333007812 300 c 0
 481.330078125 300 500 318.669921875 500 341.666992188 c 0
 500 654.166992188 500 654.166992188 500 654.166992188 c 2
 500 665.680664062 509.319335938 675 520.833007812 675 c 0
 532.346679688 675 541.666992188 665.680664062 541.666992188 654.166992188 c 0
 541.666992188 341.666992188 541.666992188 341.666992188 541.666992188 341.666992188 c 2
 541.666992188 318.669921875 560.336914062 300 583.333007812 300 c 0
 606.330078125 300 625 318.669921875 625 341.666992188 c 2
 625 612.5 l 2
 625 624.013671875 634.319335938 633.333007812 645.833007812 633.333007812 c 0
 657.346679688 633.333007812 666.666992188 624.013671875 666.666992188 612.5 c 0
 666.666992188 341.666992188 666.666992188 341.666992188 666.666992188 341.666992188 c 2
 666.666992188 318.669921875 685.336914062 300 708.333007812 300 c 0
 731.330078125 300 750 318.669921875 750 341.666992188 c 2
 750 487.5 l 2
 750 499.013671875 759.319335938 508.333007812 770.833007812 508.333007812 c 0
 782.346679688 508.333007812 791.666992188 499.013671875 791.666992188 487.5 c 2
 791.666992188 133.333007812 l 2
 791.666992188 18.2587890625 698.408203125 -75 583.333007812 -75 c 2
 536.376953125 -75 l 2
 483.515625 -75 432.390625 -54.73828125 393.879882812 -18.6396484375 c 0
 187.254882812 175.045898438 187.254882812 175.045898438 187.254882812 175.045898438 c 2
EndSplineSet
Validated: 41
EndChar

StartChar: NameMe.21
Encoding: 21 57365 21
Width: 976
Flags: HW
LayerCount: 2
Fore
SplineSet
331.25 750 m 2
 351.9609375 750 368.749023438 733.2109375 368.749023438 712.500976562 c 2
 368.749023438 -112.500976562 l 2
 368.749023438 -133.2109375 351.9609375 -150 331.25 -150 c 2
 218.75 -150 l 2
 198.0390625 -150 181.250976562 -133.2109375 181.250976562 -112.495117188 c 2
 181.250976562 -74.99609375 l 1
 106.25 -74.99609375 l 2
 85.5390625 -74.99609375 68.7509765625 -58.20703125 68.7509765625 -37.49609375 c 2
 68.7509765625 75.00390625 l 2
 68.7509765625 95.7138671875 85.5390625 112.502929688 106.25 112.502929688 c 2
 181.250976562 112.502929688 l 1
 181.250976562 487.501953125 l 1
 106.25 487.501953125 l 2
 85.5390625 487.501953125 68.7509765625 504.291015625 68.7509765625 525.001953125 c 2
 68.7509765625 637.501953125 l 2
 68.7509765625 658.211914062 85.5390625 675.000976562 106.25 675.000976562 c 2
 181.250976562 675.000976562 l 1
 181.250976562 712.500976562 l 2
 181.250976562 733.2109375 198.0390625 750 218.75 750 c 2
 331.25 750 l 2
143.749023438 562.499023438 m 1
 143.749023438 562.500976562 l 1
 181.249023438 562.500976562 l 1
 181.249023438 600.000976562 l 1
 143.749023438 600.000976562 l 1
 143.749023438 562.499023438 l 1
143.749023438 -0.0009765625 m 1
 181.249023438 -0.0009765625 l 1
 181.249023438 37.4990234375 l 1
 143.749023438 37.4990234375 l 1
 143.749023438 -0.0009765625 l 1
293.750976562 -74.9990234375 m 1
 293.750976562 674.999023438 l 1
 256.250976562 674.999023438 l 1
 256.250976562 637.5 l 1
 256.250976562 525 l 1
 256.250976562 75 l 1
 256.250976562 -37.5 l 1
 256.250976562 -74.9990234375 l 1
 293.750976562 -74.9990234375 l 1
556.25 750 m 2
 576.9609375 750 593.749023438 733.2109375 593.749023438 712.500976562 c 2
 593.749023438 -112.499023438 l 2
 593.749023438 -133.208984375 576.9609375 -149.998046875 556.25 -149.998046875 c 2
 443.75 -149.998046875 l 2
 423.0390625 -149.998046875 406.250976562 -133.208984375 406.250976562 -112.499023438 c 2
 406.250976562 712.500976562 l 2
 406.250976562 733.2109375 423.0390625 750 443.75 750 c 2
 556.25 750 l 2
518.750976562 -74.9990234375 m 1
 518.750976562 674.999023438 l 1
 481.250976562 674.999023438 l 1
 481.250976562 -74.9990234375 l 1
 518.750976562 -74.9990234375 l 1
893.75 487.500976562 m 2
 818.749023438 487.500976562 l 1
 818.749023438 112.499023438 l 1
 893.75 112.499023438 l 2
 914.4609375 112.499023438 931.249023438 95.7109375 931.249023438 75 c 2
 931.249023438 -37.5 l 2
 931.249023438 -58.2109375 914.4609375 -74.9990234375 893.75 -74.9990234375 c 2
 818.749023438 -74.9990234375 l 1
 818.749023438 -112.499023438 l 2
 818.749023438 -133.208984375 801.9609375 -149.998046875 781.25 -149.998046875 c 2
 668.75 -149.998046875 l 2
 648.0390625 -149.998046875 631.250976562 -133.208984375 631.250976562 -112.499023438 c 2
 631.250976562 712.500976562 l 2
 631.250976562 733.2109375 648.0390625 750 668.75 750 c 2
 781.25 750 l 2
 801.9609375 750 818.749023438 733.2109375 818.749023438 712.500976562 c 2
 818.749023438 674.999023438 l 1
 893.75 674.999023438 l 2
 914.4609375 674.999023438 931.249023438 658.2109375 931.249023438 637.5 c 2
 931.249023438 525 l 2
 931.249023438 504.2890625 914.4609375 487.500976562 893.75 487.500976562 c 2
856.250976562 600.000976562 m 1
 818.750976562 600.000976562 l 1
 818.750976562 562.500976562 l 1
 856.250976562 562.500976562 l 1
 856.250976562 600.000976562 l 1
743.750976562 -74.9990234375 m 1
 743.750976562 -37.5 l 1
 743.750976562 75 l 1
 743.750976562 525 l 1
 743.750976562 637.5 l 1
 743.750976562 674.999023438 l 1
 706.250976562 674.999023438 l 1
 706.250976562 -74.9990234375 l 1
 743.750976562 -74.9990234375 l 1
856.250976562 37.5009765625 m 1
 818.750976562 37.5009765625 l 1
 818.750976562 0.0009765625 l 1
 856.250976562 0.0009765625 l 1
 856.250976562 37.5009765625 l 1
EndSplineSet
Validated: 5
EndChar

StartChar: NameMe.22
Encoding: 22 57366 22
Width: 1000
Flags: H
LayerCount: 2
Fore
SplineSet
222.501953125 110.239257812 m 0
 40.5693359375 465.590820312 339.182617188 720.561523438 805.05078125 608.963867188 c 0
 820.905273438 605.171875 831.959960938 591.051757812 831.91796875 573.127929688 c 0
 817.73046875 281.283203125 698.294921875 103.659179688 253.427734375 92.2490234375 c 0
 239.6796875 92.2490234375 227.947265625 99.5966796875 222.501953125 110.239257812 c 0
824.506835938 690.010742188 m 0
 274.346679688 821.798828125 -61.517578125 482.112304688 148.266601562 72.361328125 c 0
 168.872070312 32.0927734375 210.244140625 8.916015625 256.623046875 8.9580078125 c 0
 709.616210938 20.6044921875 897.256835938 200.930664062 915.15234375 569.026367188 c 0
 917.915039062 625.911132812 879.815429688 676.778320312 824.506835938 690.010742188 c 0
126.462890625 -64.025390625 m 0
 119.262695312 -90.4267578125 139.174804688 -116.666992188 166.666992188 -116.666992188 c 0
 185.865234375 -116.666992188 202.048828125 -103.654296875 206.870117188 -85.974609375 c 0
 210.3125 -73.3515625 213.620117188 -61.0771484375 216.836914062 -49.1435546875 c 0
 272.469726562 157.303710938 300.889648438 255.224609375 515.998046875 344.853515625 c 0
 531.064453125 351.130859375 541.666992188 366.00390625 541.666992188 383.333007812 c 0
 541.666992188 413.087890625 511.25 433.166992188 484.001953125 421.813476562 c 0
 228.768554688 315.465820312 192.887695312 182.318359375 136.36328125 -27.435546875 c 0
 133.147460938 -39.369140625 129.862304688 -51.5595703125 126.462890625 -64.025390625 c 0
EndSplineSet
Validated: 37
EndChar

StartChar: NameMe.23
Encoding: 23 57367 23
Width: 1068
Flags: HW
LayerCount: 2
Fore
SplineSet
650.60546875 651.975585938 m 0
 775.8671875 526.713867188 775.8671875 322.90234375 650.60546875 197.640625 c 0
 525.34375 72.37890625 321.552734375 72.37890625 196.291015625 197.640625 c 0
 71.0283203125 322.90234375 71.0283203125 526.713867188 196.291015625 651.975585938 c 0
 321.552734375 777.237304688 525.34375 777.237304688 650.60546875 651.975585938 c 0
606.000976562 242.245117188 m 0
 706.8125 343.077148438 706.793945312 506.538085938 605.981445312 607.349609375 c 0
 505.168945312 708.162109375 341.708007812 708.162109375 240.896484375 607.349609375 c 0
 140.083984375 506.556640625 140.083984375 343.077148438 240.896484375 242.264648438 c 0
 341.708007812 141.452148438 505.188476562 141.452148438 606.000976562 242.245117188 c 0
281.186523438 548.11328125 m 0
 285.078125 553.098632812 292.2890625 553.981445312 297.272460938 550.088867188 c 0
 302.279296875 546.194335938 303.180664062 538.985351562 299.267578125 533.998046875 c 0
 253.608398438 475.396484375 249.811523438 394.392578125 287.896484375 332.067382812 c 0
 291.1953125 326.662109375 289.487304688 319.604492188 284.099609375 316.286132812 c 0
 278.692382812 313.005859375 271.6171875 314.6953125 268.318359375 320.122070312 c 0
 225.287109375 390.55859375 229.583007812 481.799804688 281.186523438 548.11328125 c 0
978.393554688 -41.08984375 m 2
 1008.82617188 -66.306640625 1009.45703125 -104.7734375 980.63671875 -133.538085938 c 0
 951.8515625 -162.341796875 914.59375 -160.538085938 889.375976562 -130.0859375 c 2
 662.284179688 103.063476562 l 2
 649.836914062 115.796875 649.974609375 136.163085938 662.552734375 148.7421875 c 2
 699.525390625 185.713867188 l 2
 712.125 198.29296875 732.489257812 198.447265625 745.2421875 186.01953125 c 2
 978.393554688 -41.08984375 l 2
EndSplineSet
Validated: 33
EndChar

StartChar: NameMe.24
Encoding: 24 57368 24
Width: 1000
Flags: H
LayerCount: 2
Fore
SplineSet
904.462890625 645.537109375 m 2
 154.462890625 -104.462890625 l 2
 138.190429688 -120.733398438 111.809570312 -120.733398438 95.537109375 -104.462890625 c 0
 79.265625 -88.19140625 79.265625 -61.80859375 95.537109375 -45.537109375 c 2
 845.537109375 704.462890625 l 2
 861.80859375 720.734375 888.19140625 720.734375 904.462890625 704.462890625 c 0
 920.733398438 688.190429688 920.733398438 661.809570312 904.462890625 645.537109375 c 2
458.333007812 529.166992188 m 0
 458.333007812 425.61328125 374.38671875 341.666992188 270.833007812 341.666992188 c 0
 167.280273438 341.666992188 83.3330078125 425.61328125 83.3330078125 529.166992188 c 0
 83.3330078125 632.719726562 167.280273438 716.666992188 270.833007812 716.666992188 c 0
 374.38671875 716.666992188 458.333007812 632.719726562 458.333007812 529.166992188 c 0
166.955078125 529.166992188 m 0
 166.955078125 471.795898438 213.462890625 425.2890625 270.833007812 425.2890625 c 0
 328.204101562 425.2890625 374.7109375 471.795898438 374.7109375 529.166992188 c 0
 374.7109375 586.537109375 328.204101562 633.044921875 270.833007812 633.044921875 c 0
 213.462890625 633.044921875 166.955078125 586.537109375 166.955078125 529.166992188 c 0
916.666992188 70.8330078125 m 0
 916.666992188 -32.720703125 832.720703125 -116.666992188 729.166992188 -116.666992188 c 0
 625.612304688 -116.666992188 541.666992188 -32.720703125 541.666992188 70.8330078125 c 0
 541.666992188 174.387695312 625.612304688 258.333007812 729.166992188 258.333007812 c 0
 832.720703125 258.333007812 916.666992188 174.387695312 916.666992188 70.8330078125 c 0
625.287109375 70.8330078125 m 0
 625.287109375 13.462890625 671.795898438 -33.0458984375 729.166992188 -33.0458984375 c 0
 786.537109375 -33.0458984375 833.045898438 13.462890625 833.045898438 70.8330078125 c 0
 833.045898438 128.204101562 786.537109375 174.712890625 729.166992188 174.712890625 c 0
 671.795898438 174.712890625 625.287109375 128.204101562 625.287109375 70.8330078125 c 0
EndSplineSet
Validated: 33
EndChar

StartChar: NameMe.25
Encoding: 25 57369 25
Width: 1000
Flags: H
LayerCount: 2
Fore
SplineSet
490 580 m 0
 351.928710938 580 240 468.071289062 240 330 c 0
 240 191.927734375 351.928710938 80 490 80 c 0
 628.072265625 80 740 191.927734375 740 330 c 0
 740 468.071289062 628.072265625 580 490 580 c 0
490 20 m 0
 318.791992188 20 180 158.791992188 180 330 c 0
 180 501.208007812 318.791992188 640 490 640 c 0
 661.208007812 640 800 501.208007812 800 330 c 0
 800 158.791992188 661.208007812 20 490 20 c 0
400 450 m 2
 400 370 l 2
 400 353.431640625 386.568359375 340 370 340 c 0
 353.431640625 340 340 353.431640625 340 370 c 2
 340 450 l 2
 340 466.568359375 353.431640625 480 370 480 c 0
 386.568359375 480 400 466.568359375 400 450 c 2
610 480 m 0
 626.568359375 480 640 466.568359375 640 450 c 2
 640 370 l 2
 640 353.431640625 626.568359375 340 610 340 c 0
 593.431640625 340 580 353.431640625 580 370 c 2
 580 450 l 2
 580 466.568359375 593.431640625 480 610 480 c 0
490 320 m 0
 506.568359375 320 520 306.568359375 520 290 c 2
 520 210 l 2
 520 193.431640625 506.568359375 180 490 180 c 0
 473.431640625 180 460 193.431640625 460 210 c 2
 460 290 l 2
 460 306.568359375 473.431640625 320 490 320 c 0
EndSplineSet
Validated: 1
EndChar

StartChar: NameMe.26
Encoding: 26 57370 26
Width: 1000
Flags: H
LayerCount: 2
Fore
SplineSet
933.3671875 516.666015625 m 2
 970.166015625 516.666015625 1000 486.826171875 999.998046875 450.033203125 c 2
 999.998046875 149.966796875 l 2
 999.998046875 113.173828125 970.166015625 83.333984375 933.365234375 83.333984375 c 2
 66.6328125 83.333984375 l 2
 29.833984375 83.333984375 0 113.173828125 0 149.966796875 c 2
 0 450.033203125 l 2
 0 486.826171875 29.833984375 516.666015625 66.6328125 516.666015625 c 2
 933.3671875 516.666015625 l 2
966.666015625 149.966796875 m 2
 966.666015625 450.033203125 l 2
 966.666015625 468.419921875 951.75390625 483.333984375 933.365234375 483.333984375 c 2
 66.6328125 483.333984375 l 2
 48.244140625 483.333984375 33.33203125 468.41796875 33.33203125 450.033203125 c 2
 33.33203125 149.966796875 l 2
 33.33203125 131.580078125 48.244140625 116.666015625 66.6328125 116.666015625 c 2
 933.365234375 116.666015625 l 2
 951.75390625 116.666015625 966.666015625 131.58203125 966.666015625 149.966796875 c 2
766.666015625 333.33203125 m 2
 766.666015625 316.666015625 l 2
 766.666015625 307.4609375 759.205078125 300 750 300 c 0
 740.794921875 300 733.333984375 307.4609375 733.333984375 316.666015625 c 2
 733.333984375 333.33203125 l 2
 733.333984375 342.537109375 740.794921875 349.998046875 750 349.998046875 c 0
 759.205078125 349.998046875 766.666015625 342.537109375 766.666015625 333.33203125 c 2
850 349.998046875 m 0
 859.205078125 349.998046875 866.666015625 342.537109375 866.666015625 333.33203125 c 2
 866.666015625 316.666015625 l 2
 866.666015625 307.4609375 859.205078125 300 850 300 c 0
 840.794921875 300 833.333984375 307.4609375 833.333984375 316.666015625 c 2
 833.333984375 333.33203125 l 2
 833.333984375 342.537109375 840.794921875 349.998046875 850 349.998046875 c 0
800 283.33203125 m 0
 818.400390625 283.33203125 833.333984375 268.3984375 833.33203125 249.998046875 c 1
 766.666015625 249.998046875 l 1
 766.666015625 268.3984375 781.599609375 283.33203125 800 283.33203125 c 0
897.4765625 399.998046875 m 2
 903.87890625 399.998046875 909.71484375 396.330078125 912.494140625 390.5625 c 0
 940.27734375 332.861328125 940.27734375 267.138671875 912.494140625 209.435546875 c 0
 909.71484375 203.66796875 903.87890625 200 897.4765625 200 c 2
 702.52734375 200 l 2
 696.125 200 690.2890625 203.666015625 687.51171875 209.435546875 c 0
 659.728515625 267.13671875 659.728515625 332.859375 687.51171875 390.5625 c 0
 690.2890625 396.330078125 696.125 399.998046875 702.52734375 399.998046875 c 2
 897.4765625 399.998046875 l 2
886.677734375 233.33203125 m 1
 904.4375 276.337890625 904.4375 323.658203125 886.677734375 366.666015625 c 1
 713.328125 366.666015625 l 1
 695.56640625 323.658203125 695.56640625 276.33984375 713.328125 233.33203125 c 1
 886.677734375 233.33203125 l 1
466.666015625 333.33203125 m 2
 466.666015625 316.666015625 l 2
 466.666015625 307.4609375 459.205078125 300 450 300 c 0
 440.794921875 300 433.333984375 307.4609375 433.333984375 316.666015625 c 2
 433.333984375 333.33203125 l 2
 433.333984375 342.537109375 440.794921875 349.998046875 450 349.998046875 c 0
 459.205078125 349.998046875 466.666015625 342.537109375 466.666015625 333.33203125 c 2
550 349.998046875 m 0
 559.205078125 349.998046875 566.666015625 342.537109375 566.666015625 333.33203125 c 2
 566.666015625 316.666015625 l 2
 566.666015625 307.4609375 559.205078125 300 550 300 c 0
 540.794921875 300 533.333984375 307.4609375 533.333984375 316.666015625 c 2
 533.333984375 333.33203125 l 2
 533.333984375 342.537109375 540.794921875 349.998046875 550 349.998046875 c 0
500 283.33203125 m 0
 518.400390625 283.33203125 533.333984375 268.3984375 533.33203125 249.998046875 c 1
 466.666015625 249.998046875 l 1
 466.666015625 268.3984375 481.599609375 283.33203125 500 283.33203125 c 0
597.4765625 399.998046875 m 2
 603.87890625 399.998046875 609.71484375 396.330078125 612.494140625 390.5625 c 0
 640.27734375 332.861328125 640.27734375 267.138671875 612.494140625 209.435546875 c 0
 609.71484375 203.66796875 603.87890625 200 597.4765625 200 c 2
 402.52734375 200 l 2
 396.123046875 200 390.287109375 203.666015625 387.509765625 209.435546875 c 0
 359.7265625 267.13671875 359.7265625 332.859375 387.509765625 390.5625 c 0
 390.2890625 396.330078125 396.125 399.998046875 402.52734375 399.998046875 c 2
 597.4765625 399.998046875 l 2
586.677734375 233.33203125 m 1
 604.4375 276.337890625 604.4375 323.658203125 586.677734375 366.666015625 c 1
 413.328125 366.666015625 l 1
 395.56640625 323.658203125 395.56640625 276.33984375 413.328125 233.33203125 c 1
 586.677734375 233.33203125 l 1
166.666015625 333.33203125 m 2
 166.666015625 316.666015625 l 2
 166.666015625 307.4609375 159.205078125 300 150 300 c 0
 140.794921875 300 133.333984375 307.4609375 133.333984375 316.666015625 c 2
 133.333984375 333.33203125 l 2
 133.333984375 342.537109375 140.794921875 349.998046875 150 349.998046875 c 0
 159.205078125 349.998046875 166.666015625 342.537109375 166.666015625 333.33203125 c 2
250 349.998046875 m 0
 259.205078125 349.998046875 266.666015625 342.537109375 266.666015625 333.33203125 c 2
 266.666015625 316.666015625 l 2
 266.666015625 307.4609375 259.205078125 300 250 300 c 0
 240.794921875 300 233.333984375 307.4609375 233.333984375 316.666015625 c 2
 233.333984375 333.33203125 l 2
 233.333984375 342.537109375 240.794921875 349.998046875 250 349.998046875 c 0
200 283.33203125 m 0
 218.400390625 283.33203125 233.333984375 268.3984375 233.33203125 249.998046875 c 1
 166.666015625 249.998046875 l 1
 166.666015625 268.3984375 181.599609375 283.33203125 200 283.33203125 c 0
297.4765625 399.998046875 m 2
 303.87890625 399.998046875 309.71484375 396.330078125 312.494140625 390.5625 c 0
 340.27734375 332.861328125 340.27734375 267.138671875 312.494140625 209.435546875 c 0
 309.71484375 203.66796875 303.87890625 200 297.4765625 200 c 2
 102.52734375 200 l 2
 96.123046875 200 90.287109375 203.666015625 87.509765625 209.435546875 c 0
 59.7265625 267.13671875 59.7265625 332.859375 87.509765625 390.5625 c 0
 90.2890625 396.330078125 96.125 399.998046875 102.52734375 399.998046875 c 2
 297.4765625 399.998046875 l 2
286.677734375 233.33203125 m 1
 304.4375 276.337890625 304.4375 323.658203125 286.67578125 366.666015625 c 1
 113.326171875 366.666015625 l 1
 95.564453125 323.658203125 95.564453125 276.33984375 113.326171875 233.33203125 c 1
 286.677734375 233.33203125 l 1
EndSplineSet
Validated: 33
EndChar

StartChar: NameMe.27
Encoding: 27 57371 27
Width: 1000
Flags: H
LayerCount: 2
Fore
SplineSet
541.666992188 633.333007812 m 2
 541.666992188 656.330078125 522.99609375 675 500 675 c 0
 477.00390625 675 458.333007812 656.330078125 458.333007812 633.333007812 c 2
 458.333007812 341.666992188 l 1
 166.666992188 341.666992188 l 2
 143.669921875 341.666992188 125 322.99609375 125 300 c 0
 125 277.00390625 143.669921875 258.333007812 166.666992188 258.333007812 c 2
 458.333007812 258.333007812 l 1
 458.333007812 -33.3330078125 l 2
 458.333007812 -56.330078125 477.00390625 -75 500 -75 c 0
 522.99609375 -75 541.666992188 -56.330078125 541.666992188 -33.3330078125 c 2
 541.666992188 258.333007812 l 1
 833.333007812 258.333007812 l 2
 856.330078125 258.333007812 875 277.00390625 875 300 c 0
 875 322.99609375 856.330078125 341.666992188 833.333007812 341.666992188 c 2
 541.666992188 341.666992188 l 1
 541.666992188 633.333007812 l 2
EndSplineSet
Validated: 9
EndChar

StartChar: NameMe.28
Encoding: 28 57372 28
Width: 1000
Flags: H
LayerCount: 2
Fore
SplineSet
398.979492188 99.998046875 m 0
 398.979492188 249.99609375 601.020507812 249.99609375 601.020507812 99.998046875 c 0
 601.020507812 49.9990234375 555.813476562 0 500 0 c 0
 444.186523438 0 398.979492188 49.9990234375 398.979492188 99.998046875 c 0
285.685546875 312.14453125 m 1
 404.081054688 429.293945312 595.918945312 429.293945312 714.314453125 312.14453125 c 1
 642.842773438 241.396484375 l 2
 564.09765625 319.39453125 435.90234375 319.39453125 357.157226562 241.396484375 c 2
 285.685546875 312.14453125 l 1
0 594.990234375 m 1
 276.138671875 868.336914062 723.861328125 868.336914062 1000 594.990234375 c 1
 928.579101562 524.2421875 l 1
 692.241210938 758.188476562 307.758789062 758.188476562 71.4208984375 524.2421875 c 1
 0 594.990234375 l 1
857.157226562 453.54296875 m 1
 785.736328125 382.84375 l 1
 628.194335938 538.791015625 371.805664062 538.791015625 214.263671875 382.84375 c 1
 142.842773438 453.54296875 l 1
 340.084960938 648.790039062 659.915039062 648.790039062 857.157226562 453.54296875 c 1024
EndSplineSet
Validated: 35
EndChar

StartChar: NameMe.29
Encoding: 29 57373 29
Width: 819
Flags: HW
LayerCount: 2
Fore
SplineSet
427.631835938 -100 m 2
 410.002929688 -99.994140625 393.036132812 -98.7841796875 376.052734375 -96.4208984375 c 0
 343.317382812 -91.87890625 311.220703125 -83.1103515625 281.579101562 -71 c 0
 217.880859375 -44.8232421875 163.213867188 -2.4052734375 122.2109375 51.7373046875 c 0
 101.469726562 78.8359375 84.294921875 108.899414062 71.4208984375 141.052734375 c 0
 53.8857421875 185.033203125 44.2412109375 233.001953125 44.2412109375 283.205078125 c 0
 44.2412109375 370.534179688 73.4423828125 451.634765625 122.579101562 516.2109375 c 0
 143.616210938 543.884765625 167.873046875 568.107421875 195.579101562 589.10546875 c 0
 204.405273438 595.333984375 215.170898438 598.993164062 226.784179688 598.993164062 c 0
 256.704101562 598.993164062 280.995117188 574.703125 280.995117188 544.783203125 c 0
 280.995117188 527.890625 273.337890625 512.83984375 261.2109375 502.89453125 c 0
 241.385742188 487.899414062 224.020507812 470.603515625 208.947265625 450.841796875 c 0
 194.543945312 431.881835938 182.499023438 410.986328125 173.262695312 388.684570312 c 0
 164.471679688 367.379882812 158.147460938 344.274414062 154.947265625 320.684570312 c 0
 153.251953125 308.356445312 152.375976562 295.768554688 152.375976562 282.978515625 c 0
 152.375976562 246.926757812 159.458984375 212.607421875 172.10546875 181.052734375 c 0
 181.315429688 158.087890625 193.595703125 136.618164062 208.420898438 117.262695312 c 0
 223.467773438 97.384765625 240.815429688 79.9677734375 260.631835938 64.841796875 c 0
 279.52734375 50.4423828125 300.372070312 38.4130859375 322.631835938 29.2109375 c 0
 344.043945312 20.4345703125 367.236328125 14.0791015625 390.89453125 10.7890625 c 0
 402.961914062 9.1181640625 415.286132812 8.25390625 427.810546875 8.25390625 c 0
 439.237304688 8.25390625 449.94921875 8.97265625 461 10.3681640625 c 0
 485.072265625 13.4609375 508.666992188 19.693359375 530.473632812 28.4208984375 c 0
 576.880859375 47.205078125 616.795898438 77.8076171875 646.841796875 116.947265625 c 0
 675.009765625 153.787109375 694.134765625 198.5078125 700.526367188 246.684570312 c 0
 702.20703125 258.935546875 703.075195312 271.443359375 703.075195312 284.153320312 c 0
 703.075195312 295.462890625 702.387695312 306.048828125 701.052734375 317 c 0
 698.002929688 341.053710938 691.765625 364.615234375 683 386.368164062 c 0
 673.716796875 409.516601562 661.348632812 431.163085938 646.420898438 450.684570312 c 0
 631.46484375 470.444335938 614.202148438 487.7421875 594.473632812 502.737304688 c 0
 580.377929688 512.530273438 571.142578125 528.838867188 571.142578125 547.287109375 c 0
 571.142578125 577.20703125 595.43359375 601.498046875 625.352539062 601.498046875 c 0
 638.360351562 601.498046875 650.390625 596.858398438 659.737304688 589.2109375 c 0
 687.403320312 568.204101562 711.611328125 543.961914062 732.579101562 516.262695312 c 0
 753.41015625 489.006835938 770.672851562 458.787109375 783.631835938 426.473632812 c 0
 795.715820312 396.303710938 804.314453125 363.646484375 808.526367188 330.315429688 c 0
 810.387695312 314.999023438 811.346679688 299.404296875 811.346679688 283.587890625 c 0
 811.346679688 122.170898438 711.74609375 -15.560546875 570.526367188 -72.3154296875 c 0
 540.370117188 -84.32421875 507.750976562 -92.8837890625 474.473632812 -97.10546875 c 0
 459 -99.0458984375 443.624023438 -100.038085938 427.631835938 -100.052734375 c 0
 427.24609375 -100.067382812 427.631835938 -100 427.631835938 -100 c 2
427.737304688 294.052734375 m 1
 397.834960938 294.052734375 373.555664062 318.315429688 373.526367188 348.2109375 c 1
 373.526367188 348.209960938 373.526367188 667.262695312 373.526367188 667.262695312 c 2
 373.526367188 697.182617188 397.817382812 721.473632812 427.737304688 721.473632812 c 0
 457.65625 721.473632812 481.947265625 697.182617188 481.947265625 667.262695312 c 2
 481.947265625 348.2109375 l 2
 481.947265625 318.291015625 457.65625 294 427.737304688 294 c 1
 427.737304688 294.052734375 l 1
EndSplineSet
Validated: 33
EndChar

StartChar: NameMe.30
Encoding: 30 57374 30
Width: 1000
Flags: H
LayerCount: 2
Fore
SplineSet
376.8359375 147.618164062 m 2
 420.686523438 137.430664062 453.319335938 102.137695312 453.319335938 59.88671875 c 0
 453.319335938 9.72265625 407.633789062 -31.0732421875 351.341796875 -31.0732421875 c 0
 295.049804688 -31.0732421875 249.364257812 9.72265625 249.364257812 59.88671875 c 0
 249.364257812 102.137695312 281.997070312 137.430664062 325.84765625 147.618164062 c 2
 325.84765625 400.98828125 l 2
 325.84765625 413.49609375 337.3203125 423.728515625 351.341796875 423.728515625 c 0
 365.36328125 423.728515625 376.8359375 413.49609375 376.8359375 400.98828125 c 2
 376.8359375 147.618164062 l 2
529.802734375 220.932617188 m 2
 576.813476562 179.909179688 606.28515625 123.104492188 606.28515625 59.88671875 c 0
 606.28515625 -65.501953125 491.91796875 -167.513671875 351.341796875 -167.513671875 c 0
 210.765625 -167.513671875 96.3984375 -65.501953125 96.3984375 59.88671875 c 0
 96.3984375 123.104492188 125.870117188 179.909179688 172.881835938 220.932617188 c 2
 172.881835938 582.909179688 l 2
 172.881835938 670.686523438 252.93359375 742.090820312 351.341796875 742.090820312 c 0
 449.75 742.090820312 529.802734375 670.686523438 529.802734375 582.909179688 c 2
 529.802734375 220.932617188 l 2
351.341796875 -76.5537109375 m 0
 435.676757812 -76.5537109375 504.307617188 -15.3369140625 504.307617188 59.88671875 c 0
 504.307617188 110.142578125 473.357421875 153.666992188 427.825195312 177.362304688 c 2
 427.825195312 582.909179688 l 2
 427.825195312 620.521484375 393.509765625 651.129882812 351.341796875 651.129882812 c 0
 309.173828125 651.129882812 274.858398438 620.521484375 274.858398438 582.909179688 c 2
 274.858398438 177.362304688 l 2
 229.326171875 153.666992188 198.375976562 110.142578125 198.375976562 59.88671875 c 0
 198.375976562 -15.3369140625 267.006835938 -76.5537109375 351.341796875 -76.5537109375 c 0
772.237304688 724.04296875 m 2
 772.250976562 724.04296875 l 2
 789.456054688 704.732421875 940.495117188 533.419921875 940.495117188 464.884765625 c 0
 940.495117188 389.647460938 859.560546875 298.775390625 759.061523438 298.775390625 c 0
 660.724609375 298.775390625 576.454101562 390.114257812 576.454101562 464.884765625 c 0
 576.454101562 532.020507812 717.611328125 692.57421875 745.9140625 724.0859375 c 2
 745.927734375 724.099609375 l 2
 749.151367188 727.690429688 753.830078125 729.952148438 759.046875 729.952148438 c 1
 759.046875 729.952148438 l 1
 759.075195312 729.952148438 l 2
 764.305664062 729.938476562 768.999023438 727.662109375 772.237304688 724.04296875 c 2
759.046875 334.1171875 m 0
 842.3984375 334.1171875 905.138671875 413.440429688 905.138671875 464.884765625 c 0
 905.138671875 503.577148438 820.401367188 614.693359375 759.004882812 685.5625 c 1
 697.169921875 614.708007812 611.782226562 503.53515625 611.782226562 464.884765625 c 0
 611.782226562 413.440429688 675.03125 334.1171875 759.046875 334.1171875 c 0
752.21875 388.375 m 2
 752.232421875 388.404296875 l 1
 752.361328125 388.375976562 l 2
 759.938476562 386.3828125 765.522460938 379.483398438 765.522460938 371.284179688 c 0
 765.522460938 361.529296875 757.620117188 353.626953125 747.865234375 353.61328125 c 1
 747.865234375 353.61328125 l 1
 747.853515625 353.61328125 747.823242188 353.61328125 747.794921875 353.61328125 c 0
 746.25390625 353.61328125 744.76953125 353.810546875 743.46875 354.1640625 c 2
 742.295898438 354.447265625 l 2
 694.202148438 368.358398438 655.141601562 403.544921875 635.547851562 450.239257812 c 1
 635.588867188 450.111328125 l 1
 634.852539062 452.047851562 634.444335938 454.168945312 634.444335938 456.374023438 c 0
 634.444335938 466.12890625 642.360351562 474.044921875 652.115234375 474.044921875 c 0
 659.622070312 474.044921875 666.040039062 469.366210938 668.641601562 462.650390625 c 2
 668.966796875 461.802734375 l 2
 684.291015625 426.856445312 714.345703125 399.826171875 752.21875 388.375 c 2
EndSplineSet
Validated: 5
EndChar

StartChar: NameMe.31
Encoding: 31 57375 31
Width: 1000
Flags: H
LayerCount: 2
Fore
SplineSet
916.666992188 300 m 0
 916.666992188 69.8837890625 730.116210938 -116.666992188 500 -116.666992188 c 0
 269.880859375 -116.666992188 83.3330078125 69.8837890625 83.3330078125 300 c 0
 83.3330078125 530.119140625 269.880859375 716.666992188 500 716.666992188 c 0
 730.116210938 716.666992188 916.666992188 530.119140625 916.666992188 300 c 0
375 300 m 0
 375 231.25 430.762695312 175 499.6875 175 c 0
 568.608398438 175 625 231.25 625 300 c 0
 625 368.75 568.608398438 425 499.6875 425 c 0
 430.762695312 425 375 368.75 375 300 c 0
EndSplineSet
Validated: 1
EndChar

StartChar: NameMe.32
Encoding: 32 57376 32
Width: 1000
Flags: H
LayerCount: 2
Fore
SplineSet
166.657226562 299.983398438 m 0
 166.657226562 483.872070312 316.072265625 633.333007812 500 633.333007812 c 0
 522.99609375 633.333007812 541.666992188 652.00390625 541.666992188 675 c 0
 541.666992188 697.99609375 522.99609375 716.666992188 500 716.666992188 c 0
 269.846679688 716.666992188 83.32421875 529.666015625 83.32421875 299.983398438 c 0
 83.32421875 70.2978515625 269.846679688 -116.657226562 499.983398438 -116.657226562 c 0
 729.677734375 -116.657226562 916.666992188 69.7919921875 916.666992188 300 c 0
 916.666992188 322.99609375 897.99609375 341.666992188 875 341.666992188 c 0
 852.00390625 341.666992188 833.333007812 322.99609375 833.333007812 300 c 0
 833.333007812 116.017578125 683.880859375 -33.32421875 499.983398438 -33.32421875 c 0
 315.791015625 -33.32421875 166.657226562 116.3359375 166.657226562 299.983398438 c 0
824.748046875 529.166992188 m 0
 792.694335938 529.166992188 772.69140625 494.25390625 788.662109375 466.66796875 c 0
 792.21875 460.524414062 795.575195312 454.24609375 798.723632812 447.875976562 c 0
 805.528320312 434.110351562 819.716796875 424.633789062 836.100585938 424.633789062 c 0
 866.987304688 424.633789062 887.064453125 457.237304688 873.4765625 484.724609375 c 0
 869.544921875 492.677734375 865.333007812 500.559570312 860.833984375 508.33203125 c 0
 853.625 520.783203125 840.158203125 529.166992188 824.748046875 529.166992188 c 0
EndSplineSet
Validated: 41
EndChar

StartChar: NameMe.33
Encoding: 33 57377 33
Width: 1000
Flags: H
LayerCount: 2
Fore
SplineSet
833.333007812 300 m 0
 833.333007812 115.872070312 684.127929688 -33.3330078125 500 -33.3330078125 c 0
 315.872070312 -33.3330078125 166.666992188 115.872070312 166.666992188 300 c 0
 166.666992188 484.127929688 315.872070312 633.333007812 500 633.333007812 c 0
 684.127929688 633.333007812 833.333007812 484.127929688 833.333007812 300 c 0
916.666992188 300 m 0
 916.666992188 530.09765625 730.09765625 716.666992188 500 716.666992188 c 0
 269.90234375 716.666992188 83.3330078125 530.09765625 83.3330078125 300 c 0
 83.3330078125 69.90234375 269.90234375 -116.666992188 500 -116.666992188 c 0
 730.09765625 -116.666992188 916.666992188 69.90234375 916.666992188 300 c 0
541.666992188 508.333007812 m 2
 541.666992188 531.330078125 522.99609375 550 500 550 c 0
 477.00390625 550 458.333007812 531.330078125 458.333007812 508.333007812 c 2
 458.333007812 311.540039062 l 1
 401.745117188 217.225585938 l 2
 385.193359375 189.641601562 405.16796875 154.166992188 437.5 154.166992188 c 0
 452.677734375 154.166992188 465.970703125 162.298828125 473.254882812 174.440429688 c 2
 535.754882812 278.607421875 l 2
 539.5078125 284.862304688 541.666992188 292.180664062 541.666992188 300 c 2
 541.666992188 508.333007812 l 2
EndSplineSet
Validated: 41
EndChar

StartChar: NameMe.34
Encoding: 34 57378 34
Width: 1000
Flags: H
LayerCount: 2
Fore
SplineSet
741.658203125 -33.3330078125 m 0
 215.924804688 -33.3330078125 215.924804688 -33.3330078125 203.557617188 -32.013671875 c 0
 196.645507812 -31.2763671875 180.928710938 -29.6005859375 171.19140625 -10.5703125 c 0
 166.694335938 -1.7373046875 166.666992188 23.50390625 166.666992188 58.341796875 c 2
 166.666992188 383.333007812 l 1
 833.333007812 383.333007812 l 1
 833.333007812 15.9248046875 833.333007812 15.9248046875 832.013671875 3.5576171875 c 0
 831.276367188 -3.3544921875 829.600585938 -19.0712890625 810.5703125 -28.80859375 c 0
 801.737304688 -33.3056640625 776.49609375 -33.3330078125 741.658203125 -33.3330078125 c 0
258.341796875 -116.666992188 m 2
 741.658203125 -116.666992188 l 2
 792.963867188 -116.666992188 821.689453125 -116.666992188 848.447265625 -103.043945312 c 0
 871.885742188 -91.05078125 891.088867188 -71.810546875 903.08203125 -48.3720703125 c 0
 916.666992188 -21.689453125 916.666992188 4.6796875 916.666992188 58.341796875 c 0
 916.666992188 458.325195312 916.666992188 458.325195312 916.666992188 458.325195312 c 2
 916.666992188 509.629882812 916.666992188 538.356445312 903.043945312 565.11328125 c 0
 891.05078125 588.551757812 871.810546875 607.755859375 848.372070312 619.749023438 c 0
 834.47265625 626.825195312 819.899414062 629.990234375 805.3671875 631.541015625 c 0
 786.44921875 633.55859375 771.334960938 633.40625 750 633.346679688 c 1
 750 675 l 2
 750 697.99609375 731.330078125 716.666992188 708.333007812 716.666992188 c 0
 685.336914062 716.666992188 666.666992188 697.99609375 666.666992188 675 c 2
 666.666992188 633.333007812 l 1
 333.333007812 633.333007812 l 1
 333.333007812 675 l 2
 333.333007812 697.99609375 314.663085938 716.666992188 291.666992188 716.666992188 c 0
 268.669921875 716.666992188 250 697.99609375 250 675 c 2
 250 633.331054688 l 1
 205.4453125 633.331054688 177.180664062 632.7578125 151.552734375 619.709960938 c 0
 128.114257812 607.716796875 108.911132812 588.4765625 96.91796875 565.038085938 c 0
 83.3330078125 538.356445312 83.3330078125 511.987304688 83.3330078125 458.325195312 c 0
 83.3330078125 58.341796875 83.3330078125 58.341796875 83.3330078125 58.341796875 c 2
 83.3330078125 7.0361328125 83.3330078125 -21.689453125 96.9560546875 -48.447265625 c 0
 108.94921875 -71.8857421875 128.189453125 -91.0888671875 151.627929688 -103.08203125 c 0
 178.310546875 -116.666992188 204.6796875 -116.666992188 258.341796875 -116.666992188 c 2
666.666992188 133.333007812 m 2
 643.669921875 133.333007812 625 114.663085938 625 91.6669921875 c 0
 625 68.669921875 643.669921875 50 666.666992188 50 c 2
 750 50 l 2
 772.99609375 50 791.666992188 68.669921875 791.666992188 91.6669921875 c 0
 791.666992188 114.663085938 772.99609375 133.333007812 750 133.333007812 c 2
 666.666992188 133.333007812 l 2
666.666992188 300 m 2
 643.669921875 300 625 281.330078125 625 258.333007812 c 0
 625 235.336914062 643.669921875 216.666992188 666.666992188 216.666992188 c 2
 750 216.666992188 l 2
 772.99609375 216.666992188 791.666992188 235.336914062 791.666992188 258.333007812 c 0
 791.666992188 281.330078125 772.99609375 300 750 300 c 2
 666.666992188 300 l 2
458.333007812 133.333007812 m 2
 435.336914062 133.333007812 416.666992188 114.663085938 416.666992188 91.6669921875 c 0
 416.666992188 68.669921875 435.336914062 50 458.333007812 50 c 2
 541.666992188 50 l 2
 564.663085938 50 583.333007812 68.669921875 583.333007812 91.6669921875 c 0
 583.333007812 114.663085938 564.663085938 133.333007812 541.666992188 133.333007812 c 2
 458.333007812 133.333007812 l 2
458.333007812 300 m 2
 435.336914062 300 416.666992188 281.330078125 416.666992188 258.333007812 c 0
 416.666992188 235.336914062 435.336914062 216.666992188 458.333007812 216.666992188 c 2
 541.666992188 216.666992188 l 2
 564.663085938 216.666992188 583.333007812 235.336914062 583.333007812 258.333007812 c 0
 583.333007812 281.330078125 564.663085938 300 541.666992188 300 c 2
 458.333007812 300 l 2
250 133.333007812 m 2
 227.00390625 133.333007812 208.333007812 114.663085938 208.333007812 91.6669921875 c 0
 208.333007812 68.669921875 227.00390625 50 250 50 c 2
 333.333007812 50 l 2
 356.330078125 50 375 68.669921875 375 91.6669921875 c 0
 375 114.663085938 356.330078125 133.333007812 333.333007812 133.333007812 c 2
 250 133.333007812 l 2
250 300 m 2
 227.00390625 300 208.333007812 281.330078125 208.333007812 258.333007812 c 0
 208.333007812 235.336914062 227.00390625 216.666992188 250 216.666992188 c 2
 333.333007812 216.666992188 l 2
 356.330078125 216.666992188 375 235.336914062 375 258.333007812 c 0
 375 281.330078125 356.330078125 300 333.333007812 300 c 2
 250 300 l 2
291.666992188 550 m 1
 784.075195312 550 784.075195312 550 796.442382812 548.680664062 c 0
 803.354492188 547.943359375 819.071289062 546.266601562 828.80859375 527.236328125 c 0
 832.969726562 519.064453125 833.267578125 497.56640625 833.326171875 466.666992188 c 1
 166.673828125 466.666992188 l 1
 166.673828125 502.681640625 167.436523438 519.862304688 171.229492188 527.311523438 c 0
 180.928710938 546.266601562 196.711914062 547.950195312 203.557617188 548.680664062 c 0
 215.924804688 550 228.446289062 550 291.666992188 550 c 1
 291.666992188 550 l 1
EndSplineSet
Validated: 37
EndChar

StartChar: NameMe.35
Encoding: 35 57379 35
Width: 1000
Flags: H
LayerCount: 2
Fore
SplineSet
225.448242188 -140.080078125 m 2
 165.598632812 -140.080078125 130.860351562 -106.598632812 130.860351562 -47.5859375 c 2
 130.860351562 334.110351562 l 1
 76.87109375 285.142578125 l 2
 68.5 276.771484375 58.875 270.912109375 46.7373046875 270.912109375 c 0
 27.06640625 270.912109375 11.162109375 283.049804688 11.162109375 303.139648438 c 0
 11.162109375 315.694335938 16.185546875 323.646484375 23.7177734375 330.760742188 c 2
 449.778320312 719.153320312 l 2
 464.426757812 732.546875 482.004882812 740.080078125 500.001953125 740.080078125 c 0
 517.998046875 740.080078125 535.577148438 732.546875 550.224609375 719.153320312 c 2
 715.54296875 568.485351562 l 1
 715.54296875 709.946289062 l 2
 715.54296875 728.362304688 728.098632812 740.080078125 746.094726562 740.080078125 c 2
 800.926757812 740.080078125 l 2
 819.337890625 740.080078125 831.055664062 728.362304688 831.055664062 709.946289062 c 2
 831.055664062 463.435546875 l 1
 976.2890625 330.760742188 l 2
 984.234375 323.646484375 988.837890625 315.694335938 988.837890625 303.139648438 c 0
 988.837890625 283.049804688 972.9375 270.912109375 953.265625 270.912109375 c 0
 941.547851562 270.912109375 931.922851562 276.771484375 923.12890625 285.142578125 c 2
 869.146484375 334.528320312 l 1
 869.146484375 -47.5859375 l 2
 869.146484375 -106.598632812 834.405273438 -140.080078125 774.974609375 -140.080078125 c 2
 225.448242188 -140.080078125 l 2
620.537109375 205.203125 m 2
 620.537109375 -72.6982421875 l 1
 760.745117188 -72.6982421875 l 2
 787.109375 -72.6982421875 801.756835938 -58.0498046875 801.756835938 -30.8447265625 c 2
 801.756835938 395.633789062 l 1
 515.069335938 657.212890625 l 2
 510.463867188 661.81640625 505.442382812 663.909179688 500.001953125 663.909179688 c 0
 494.560546875 663.909179688 489.5390625 661.3984375 485.353515625 657.212890625 c 2
 198.245117188 395.633789062 l 1
 198.245117188 -30.8447265625 l 2
 198.245117188 -58.0498046875 212.892578125 -72.6982421875 239.678710938 -72.6982421875 c 2
 379.047851562 -72.6982421875 l 1
 379.047851562 205.203125 l 2
 379.047851562 224.455078125 392.021484375 236.592773438 411.2734375 236.592773438 c 2
 588.73046875 236.592773438 l 2
 607.982421875 236.592773438 620.537109375 224.455078125 620.537109375 205.203125 c 2
EndSplineSet
Validated: 1
EndChar

StartChar: NameMe.36
Encoding: 36 57380 36
Width: 1000
Flags: H
LayerCount: 2
Fore
SplineSet
990.990234375 187.294921875 m 0
 1005.8515625 166.57421875 1001.97851562 137.760742188 981.932617188 121.142578125 c 2
 729.303710938 -75.59375 l 2
 713.637695312 -90.365234375 694.68359375 -100.163085938 674.599609375 -103.051757812 c 0
 666.891601562 -104.723632812 659.133789062 -105.629882812 651.327148438 -105.721679688 c 2
 435.28125 -138.57421875 l 2
 401.536132812 -143.701171875 367.44921875 -146.279296875 333.340820312 -146.279296875 c 2
 116.669921875 -146.279296875 l 1
 116.669921875 -179.612304688 l 2
 116.669921875 -188.818359375 109.208007812 -196.279296875 100.002929688 -196.279296875 c 2
 16.6669921875 -196.279296875 l 2
 7.462890625 -196.279296875 0 -188.818359375 0 -179.612304688 c 2
 0 220.399414062 l 2
 0 229.60546875 7.4609375 237.06640625 16.6669921875 237.06640625 c 2
 100.004882812 237.06640625 l 2
 109.209960938 237.06640625 116.671875 229.60546875 116.671875 220.399414062 c 2
 116.671875 202.036132812 l 1
 125.34765625 207.557617188 134.474609375 213.004882812 143.999023438 218.198242188 c 0
 170.041992188 232.400390625 195.728515625 243.08984375 220.208007812 248.8203125 c 0
 257.91796875 257.647460938 290.872070312 254.223632812 316.474609375 234.923828125 c 0
 343.096679688 214.854492188 376.677734375 204.198242188 411.977539062 204.198242188 c 2
 476.997070312 204.198242188 l 2
 525.288085938 204.198242188 570.580078125 181.0859375 596.764648438 141.987304688 c 0
 610.7734375 121.07421875 614.41015625 101.9296875 606.866210938 86.2978515625 c 1
 609.120117188 86.3369140625 611.375 86.3857421875 613.650390625 86.4404296875 c 0
 662.153320312 87.6181640625 696.904296875 92.5322265625 713.428710938 101.28125 c 2
 858.934570312 190.181640625 l 2
 932.41796875 228.82421875 961.959960938 227.724609375 990.990234375 187.294921875 c 0
33.3349609375 -162.946289062 m 1
 33.3349609375 -162.948242188 l 1
 83.3369140625 -162.948242188 l 1
 83.3369140625 -129.646484375 l 2
 83.3369140625 -129.634765625 83.3349609375 -129.625 83.3349609375 -129.61328125 c 2
 83.3349609375 170.396484375 l 2
 83.3349609375 170.40625 83.3369140625 170.416015625 83.3369140625 170.42578125 c 2
 83.3369140625 203.731445312 l 1
 33.3349609375 203.731445312 l 1
 33.3349609375 -162.946289062 l 1
961.215820312 147.260742188 m 2
 967.309570312 152.454101562 968.475585938 161.48828125 963.907226562 167.861328125 c 0
 946.537109375 192.051757812 934.931640625 192.483398438 875.384765625 161.2109375 c 2
 729.942382812 72.3447265625 l 2
 706.413085938 59.83984375 668.096679688 54.421875 614.458984375 53.119140625 c 0
 593.983398438 52.623046875 575.275390625 52.728515625 545.055664062 53.271484375 c 0
 521.961914062 53.6875 519.256835938 53.728515625 511.98046875 53.728515625 c 2
 350.008789062 53.728515625 l 2
 316.38671875 53.728515625 300.0078125 43.0078125 300.0078125 20.3935546875 c 0
 300.0078125 11.1884765625 292.545898438 3.7275390625 283.340820312 3.7275390625 c 0
 274.135742188 3.7275390625 266.674804688 11.1884765625 266.674804688 20.3935546875 c 0
 266.674804688 65.115234375 300.205078125 87.0615234375 350.010742188 87.0615234375 c 2
 511.982421875 87.0615234375 l 2
 513.111328125 87.0615234375 514.21484375 86.9462890625 515.28125 86.7314453125 c 0
 515.333984375 86.8388671875 515.384765625 86.9130859375 515.43359375 86.9111328125 c 0
 526.204101562 86.5009765625 538.686523438 86.9580078125 550.21875 88.9091796875 c 0
 563.35546875 91.1318359375 572.52734375 95.0244140625 575.912109375 99.333984375 c 0
 578.860351562 103.0859375 578.180664062 109.8359375 569.068359375 123.4375 c 0
 549.205078125 153.098632812 514.390625 170.86328125 476.997070312 170.86328125 c 2
 411.977539062 170.86328125 l 2
 369.611328125 170.86328125 328.965820312 183.76171875 296.407226562 208.305664062 c 0
 279.913085938 220.739257812 256.767578125 223.14453125 227.803710938 216.364257812 c 0
 206.627929688 211.409179688 183.580078125 201.817382812 159.956054688 188.93359375 c 0
 147.149414062 181.94921875 134.998046875 174.451171875 123.923828125 166.958984375 c 0
 121.169921875 165.09375 118.7421875 163.41015625 116.669921875 161.9453125 c 2
 116.669921875 -112.944335938 l 1
 333.342773438 -112.944335938 l 2
 365.7734375 -112.944335938 398.186523438 -110.493164062 430.2734375 -105.616210938 c 2
 647.514648438 -72.58203125 l 1
 650.020507812 -72.392578125 l 2
 655.997070312 -72.392578125 661.975585938 -71.7109375 669.622070312 -70.087890625 c 0
 682.857421875 -68.23046875 695.86328125 -61.462890625 706.897460938 -50.9013671875 c 2
 708.180664062 -49.7919921875 l 1
 961.215820312 147.260742188 l 2
538.81640625 480.514648438 m 0
 508.055664062 485.689453125 416.399414062 477.202148438 416.399414062 491.583984375 c 0
 416.399414062 501.530273438 435.735351562 527.690429688 455.700195312 554.703125 c 0
 579.166015625 721.750976562 579.166015625 721.750976562 594.116210938 737.131835938 c 0
 594.28515625 737.305664062 609.305664062 752.403320312 613.94140625 750.982421875 c 1
 613.94140625 750.982421875 619.407226562 749.327148438 622.0859375 721.698242188 c 0
 626.348632812 677.744140625 621.565429688 609.865234375 626.076171875 585.110351562 c 0
 629.143554688 568.27734375 639.198242188 549.109375 668.198242188 544.231445312 c 0
 698.959960938 539.057617188 790.614257812 547.544921875 790.614257812 533.1640625 c 0
 790.614257812 523.213867188 771.271484375 497.045898438 751.306640625 470.036132812 c 0
 627.856445312 303.0078125 627.856445312 303.0078125 612.896484375 287.618164062 c 0
 612.727539062 287.444335938 597.70703125 272.346679688 593.071289062 273.767578125 c 1
 593.071289062 273.767578125 587.606445312 275.421875 584.926757812 303.05078125 c 0
 580.670898438 346.947265625 585.44140625 414.932617188 580.938476562 439.639648438 c 0
 577.853515625 456.568359375 567.754882812 475.647460938 538.81640625 480.514648438 c 0
785.6328125 577.751953125 m 0
 746.090820312 585.206054688 676.028320312 576.458007812 666.767578125 585.40625 c 0
 657.862304688 594.145507812 667.703125 691.299804688 658.392578125 741.848632812 c 0
 654.971679688 760.422851562 644.607421875 789.809570312 613.2734375 789.809570312 c 0
 581.333984375 789.809570312 557.11328125 757.037109375 503.583007812 684.611328125 c 0
 397.234375 540.721679688 397.234375 540.721679688 389.322265625 527.009765625 c 0
 382.599609375 515.360351562 370.67578125 493.30078125 383.077148438 471.006835938 c 0
 391.385742188 456.092773438 406.5859375 449.784179688 421.380859375 446.995117188 c 0
 460.913085938 439.54296875 530.905273438 448.286132812 540.24609375 439.344726562 c 0
 549.154296875 430.6015625 539.309570312 333.456054688 548.620117188 282.901367188 c 0
 552.04296875 264.318359375 562.408203125 234.940429688 593.739257812 234.940429688 c 0
 625.67578125 234.940429688 649.888671875 267.69921875 703.430664062 340.137695312 c 0
 809.78515625 484.03515625 809.78515625 484.03515625 817.690429688 497.733398438 c 0
 823.368164062 507.572265625 836.766601562 530.831054688 823.936523438 553.741210938 c 0
 815.627929688 568.655273438 800.427734375 574.963867188 785.6328125 577.751953125 c 0
EndSplineSet
Validated: 41
EndChar

StartChar: NameMe.37
Encoding: 37 57381 37
Width: 1000
Flags: H
LayerCount: 2
Fore
SplineSet
500 50 m 0
 569.03515625 50 625 -5.962890625 625 -75 c 0
 625 -144.037109375 569.03515625 -200 500 -200 c 0
 430.96484375 -200 375 -144.037109375 375 -75 c 0
 375 -5.962890625 430.96484375 50 500 50 c 0
500 425 m 0
 569.03515625 425 625 369.03515625 625 300 c 0
 625 230.96484375 569.03515625 175 500 175 c 0
 430.96484375 175 375 230.96484375 375 300 c 0
 375 369.03515625 430.96484375 425 500 425 c 0
625 675 m 0
 625 605.96484375 569.03515625 550 500 550 c 0
 430.96484375 550 375 605.96484375 375 675 c 0
 375 744.03515625 430.96484375 800 500 800 c 0
 569.03515625 800 625 744.03515625 625 675 c 0
EndSplineSet
Validated: 1
EndChar

StartChar: NameMe.38
Encoding: 38 57382 38
Width: 1000
Flags: H
LayerCount: 2
Fore
SplineSet
268.146484375 175 m 1
 312.37890625 27.9375 432.104492188 -75 570.759765625 -75 c 0
 677.084960938 -75 769.397460938 -14.8046875 826.674804688 73.712890625 c 0
 844.500976562 101.262695312 824.609375 137.971679688 791.666992188 137.971679688 c 0
 776.995117188 137.971679688 764.083984375 130.372070312 756.659179688 118.897460938 c 0
 682.859375 4.84375 554.213867188 -23.9521484375 453.745117188 46.3427734375 c 0
 412.259765625 75.369140625 377.672851562 120.26953125 356.368164062 175 c 1
 583.333007812 175 l 2
 606.330078125 175 625 193.669921875 625 216.666992188 c 0
 625 239.663085938 606.330078125 258.333007812 583.333007812 258.333007812 c 2
 335.759765625 258.333007812 l 2
 333.171875 280.352539062 331.932617188 309.100585938 335.759765625 341.666992188 c 2
 583.333007812 341.666992188 l 2
 606.330078125 341.666992188 625 360.336914062 625 383.333007812 c 0
 625 406.330078125 606.330078125 425 583.333007812 425 c 2
 356.368164062 425 l 1
 377.672851562 479.73046875 412.259765625 524.630859375 453.745117188 553.657226562 c 0
 554.223632812 623.958007812 682.865234375 595.146484375 756.659179688 481.102539062 c 0
 779.1171875 446.393554688 833.333007812 462.518554688 833.333007812 503.694335938 c 0
 833.333007812 512.01953125 830.88671875 519.776367188 826.674804688 526.287109375 c 0
 727.196289062 680.025390625 545.100585938 719.271484375 406.051757812 621.984375 c 0
 341.522460938 576.834960938 292.862304688 507.173828125 268.146484375 425 c 1
 208.333007812 425 l 2
 185.336914062 425 166.666992188 406.330078125 166.666992188 383.333007812 c 0
 166.666992188 360.336914062 185.336914062 341.666992188 208.333007812 341.666992188 c 2
 251.946289062 341.666992188 l 1
 250.265625 323.791992188 248.571289062 294.237304688 251.946289062 258.333007812 c 1
 208.333007812 258.333007812 l 2
 185.336914062 258.333007812 166.666992188 239.663085938 166.666992188 216.666992188 c 0
 166.666992188 193.669921875 185.336914062 175 208.333007812 175 c 2
 268.146484375 175 l 1
EndSplineSet
Validated: 41
EndChar

StartChar: NameMe.39
Encoding: 39 57383 39
Width: 1000
Flags: H
LayerCount: 2
Fore
SplineSet
510.626953125 22.2275390625 m 0
 485.200195312 50.638671875 437.907226562 32.4365234375 437.907226562 -5.5419921875 c 0
 437.907226562 -16.205078125 441.920898438 -25.9384765625 448.51953125 -33.3115234375 c 0
 471.391601562 -58.8671875 504.633789062 -75 541.666992188 -75 c 0
 610.673828125 -75 666.666992188 -19.0068359375 666.666992188 50 c 0
 666.666992188 119.006835938 610.673828125 175 541.666992188 175 c 2
 125 175 l 2
 102.00390625 175 83.3330078125 156.330078125 83.3330078125 133.333007812 c 0
 83.3330078125 110.336914062 102.00390625 91.6669921875 125 91.6669921875 c 2
 541.666992188 91.6669921875 l 2
 564.700195312 91.6669921875 583.333007812 73.0341796875 583.333007812 50 c 0
 583.333007812 11.96484375 536.041992188 -6.1689453125 510.626953125 22.2275390625 c 0
323.479492188 633.311523438 m 0
 299.55078125 606.575195312 318.708007812 563.875 354.533203125 563.875 c 0
 366.866210938 563.875 377.955078125 569.245117188 385.586914062 577.772460938 c 0
 410.958984375 606.122070312 458.333007812 588.103515625 458.333007812 550 c 0
 458.333007812 526.965820312 439.700195312 508.333007812 416.666992188 508.333007812 c 2
 125 508.333007812 l 2
 102.00390625 508.333007812 83.3330078125 489.663085938 83.3330078125 466.666992188 c 0
 83.3330078125 443.669921875 102.00390625 425 125 425 c 2
 416.666992188 425 l 2
 485.673828125 425 541.666992188 480.993164062 541.666992188 550 c 0
 541.666992188 619.006835938 485.673828125 675 416.666992188 675 c 0
 379.645507812 675 346.372070312 658.890625 323.479492188 633.311523438 c 0
625.7890625 536.12890625 m 0
 601.827148438 509.400390625 620.979492188 466.666992188 656.819335938 466.666992188 c 0
 669.139648438 466.666992188 680.21875 472.025390625 687.849609375 480.538085938 c 0
 703.142578125 497.595703125 725.3046875 508.333007812 750 508.333007812 c 0
 796.069335938 508.333007812 833.333007812 471.069335938 833.333007812 425 c 0
 833.333007812 378.930664062 796.069335938 341.666992188 750 341.666992188 c 2
 125 341.666992188 l 2
 102.00390625 341.666992188 83.3330078125 322.99609375 83.3330078125 300 c 0
 83.3330078125 277.00390625 102.00390625 258.333007812 125 258.333007812 c 2
 750 258.333007812 l 2
 842.033203125 258.333007812 916.666992188 332.966796875 916.666992188 425 c 0
 916.666992188 517.033203125 842.033203125 591.666992188 750 591.666992188 c 0
 700.638671875 591.666992188 656.314453125 570.177734375 625.7890625 536.12890625 c 0
EndSplineSet
Validated: 41
EndChar

StartChar: NameMe.40
Encoding: 40 57384 40
Width: 1046
VWidth: 960
Flags: HW
LayerCount: 2
Fore
SplineSet
636.859375 662.145507812 m 0
 621.537109375 662.145507812 609.12890625 674.568359375 609.12890625 689.875 c 2
 609.12890625 745.333007812 l 2
 609.12890625 760.639648438 621.537109375 773.0625 636.859375 773.0625 c 0
 652.1640625 773.0625 664.586914062 760.639648438 664.586914062 745.333007812 c 2
 664.586914062 689.875 l 2
 664.586914062 674.568359375 652.1640625 662.145507812 636.859375 662.145507812 c 0
969.609375 440.3125 m 2
 984.9140625 440.3125 997.336914062 427.889648438 997.336914062 412.583007812 c 0
 997.336914062 397.276367188 984.9140625 384.854492188 969.609375 384.854492188 c 2
 914.149414062 384.854492188 l 2
 898.830078125 384.854492188 886.421875 397.276367188 886.421875 412.583007812 c 0
 886.421875 427.889648438 898.830078125 440.3125 914.149414062 440.3125 c 2
 969.609375 440.3125 l 2
832.944335938 580.940429688 m 0
 825.844726562 580.940429688 818.747070312 583.64453125 813.33984375 589.065429688 c 0
 802.510742188 599.893554688 802.510742188 617.446289062 813.33984375 628.2734375 c 2
 852.548828125 667.483398438 l 2
 863.376953125 678.311523438 880.9296875 678.311523438 891.7578125 667.483398438 c 0
 902.5859375 656.655273438 902.5859375 639.103515625 891.7578125 628.2734375 c 2
 852.548828125 589.065429688 l 2
 847.12890625 583.64453125 840.043945312 580.940429688 832.944335938 580.940429688 c 0
421.166015625 589.065429688 m 2
 381.95703125 628.2734375 l 2
 371.12890625 639.103515625 371.12890625 656.655273438 381.95703125 667.483398438 c 0
 392.78515625 678.311523438 410.337890625 678.311523438 421.166015625 667.483398438 c 2
 460.375 628.2734375 l 2
 471.203125 617.446289062 471.203125 599.893554688 460.375 589.065429688 c 0
 454.954101562 583.64453125 447.870117188 580.940429688 440.771484375 580.940429688 c 0
 433.672851562 580.940429688 426.586914062 583.64453125 421.166015625 589.065429688 c 2
810.942382812 326.790039062 m 0
 848.250976562 298.9765625 872.569335938 254.637695312 872.569335938 204.614257812 c 0
 872.569335938 120.525390625 804.1484375 52.1044921875 720.060546875 52.1044921875 c 2
 692.31640625 52.1044921875 l 2
 676.99609375 52.1044921875 664.586914062 64.5263671875 664.586914062 79.8330078125 c 0
 664.586914062 95.1396484375 676.99609375 107.5625 692.31640625 107.5625 c 2
 720.060546875 107.5625 l 2
 773.561523438 107.5625 817.110351562 151.111328125 817.110351562 204.614257812 c 0
 817.110351562 258.119140625 773.561523438 301.666992188 720.060546875 301.666992188 c 0
 716.259765625 301.666992188 710.047851562 300.709960938 703.518554688 299.407226562 c 2
 703.518554688 273.9375 l 2
 703.518554688 258.630859375 691.095703125 246.208007812 675.790039062 246.208007812 c 0
 660.483398438 246.208007812 648.060546875 258.630859375 648.060546875 273.9375 c 2
 648.060546875 318.498046875 l 2
 633.211914062 405.235351562 558.841796875 468.041992188 470.498046875 468.041992188 c 0
 382.165039062 468.041992188 307.809570312 405.262695312 292.93359375 318.56640625 c 2
 292.93359375 273.9375 l 2
 292.93359375 258.630859375 280.509765625 246.208007812 265.203125 246.208007812 c 0
 249.897460938 246.208007812 237.473632812 258.630859375 237.473632812 273.9375 c 2
 237.473632812 299.420898438 l 2
 230.958984375 300.72265625 224.774414062 301.666992188 220.935546875 301.666992188 c 0
 167.430664062 301.666992188 123.881835938 258.119140625 123.881835938 204.614257812 c 0
 123.881835938 151.111328125 167.430664062 107.5625 220.935546875 107.5625 c 2
 248.649414062 107.5625 l 2
 263.955078125 107.5625 276.37890625 95.1396484375 276.37890625 79.8330078125 c 0
 276.37890625 64.5263671875 263.955078125 52.1044921875 248.649414062 52.1044921875 c 2
 220.935546875 52.1044921875 l 2
 136.831054688 52.1044921875 68.4228515625 120.525390625 68.4228515625 204.614257812 c 0
 68.4228515625 288.703125 136.831054688 357.125 220.935546875 357.125 c 0
 227.963867188 357.125 236.3515625 356.030273438 244.3515625 354.573242188 c 0
 273.356445312 454.01171875 364.23828125 523.5 470.498046875 523.5 c 0
 472.83984375 523.5 475.141601562 523.279296875 477.470703125 523.208984375 c 0
 513.533203125 575.063476562 573.067382812 606.6875 636.859375 606.6875 c 0
 743.892578125 606.6875 830.961914062 519.618164062 830.961914062 412.583007812 c 0
 830.961914062 382.552734375 824.044921875 353.368164062 810.942382812 326.790039062 c 0
696.62890625 354.573242188 m 0
 704.640625 356.030273438 713.016601562 357.125 720.060546875 357.125 c 0
 734.297851562 357.125 748.037109375 355.018554688 761.139648438 351.342773438 c 0
 770.51171875 370.296875 775.50390625 391.106445312 775.50390625 412.583007812 c 0
 775.50390625 489.032226562 713.306640625 551.229492188 636.859375 551.229492188 c 0
 600.768554688 551.229492188 566.688476562 536.93359375 541.20703125 512.643554688 c 1
 615.46484375 489.545898438 674.333984375 430.982421875 696.62890625 354.573242188 c 0
498.211914062 79.8330078125 m 2
 498.211914062 64.5263671875 485.7890625 52.1044921875 470.484375 52.1044921875 c 0
 455.162109375 52.1044921875 442.75390625 64.5263671875 442.75390625 79.8330078125 c 2
 442.75390625 246.208007812 l 2
 442.75390625 261.514648438 455.162109375 273.9375 470.484375 273.9375 c 0
 485.7890625 273.9375 498.211914062 261.514648438 498.211914062 246.208007812 c 2
 498.211914062 79.8330078125 l 2
373.430664062 -3.3544921875 m 2
 373.430664062 -18.6611328125 361.0078125 -31.0830078125 345.703125 -31.0830078125 c 0
 330.380859375 -31.0830078125 317.97265625 -18.6611328125 317.97265625 -3.3544921875 c 2
 317.97265625 163.020507812 l 2
 317.97265625 178.327148438 330.380859375 190.75 345.703125 190.75 c 0
 361.0078125 190.75 373.430664062 178.327148438 373.430664062 163.020507812 c 2
 373.430664062 -3.3544921875 l 2
622.993164062 -3.3544921875 m 2
 622.993164062 -18.6611328125 610.5703125 -31.0830078125 595.265625 -31.0830078125 c 0
 579.943359375 -31.0830078125 567.53515625 -18.6611328125 567.53515625 -3.3544921875 c 2
 567.53515625 163.020507812 l 2
 567.53515625 178.327148438 579.943359375 190.75 595.265625 190.75 c 0
 610.5703125 190.75 622.993164062 178.327148438 622.993164062 163.020507812 c 2
 622.993164062 -3.3544921875 l 2
359.56640625 -86.5419921875 m 2
 374.873046875 -86.5419921875 387.296875 -98.9638671875 387.296875 -114.270507812 c 2
 387.296875 -142 l 2
 387.296875 -157.306640625 374.873046875 -169.729492188 359.56640625 -169.729492188 c 2
 331.836914062 -169.729492188 l 2
 316.517578125 -169.729492188 304.109375 -157.306640625 304.109375 -142 c 2
 304.109375 -114.270507812 l 2
 304.109375 -98.9638671875 316.517578125 -86.5419921875 331.836914062 -86.5419921875 c 2
 359.56640625 -86.5419921875 l 2
484.34765625 -3.3544921875 m 2
 499.654296875 -3.3544921875 512.078125 -15.7763671875 512.078125 -31.0830078125 c 2
 512.078125 -58.8125 l 2
 512.078125 -74.119140625 499.654296875 -86.5419921875 484.34765625 -86.5419921875 c 2
 456.618164062 -86.5419921875 l 2
 441.298828125 -86.5419921875 428.890625 -74.119140625 428.890625 -58.8125 c 2
 428.890625 -31.0830078125 l 2
 428.890625 -15.7763671875 441.298828125 -3.3544921875 456.618164062 -3.3544921875 c 2
 484.34765625 -3.3544921875 l 2
609.12890625 -86.5419921875 m 2
 624.435546875 -86.5419921875 636.859375 -98.9638671875 636.859375 -114.270507812 c 2
 636.859375 -142 l 2
 636.859375 -157.306640625 624.435546875 -169.729492188 609.12890625 -169.729492188 c 2
 581.399414062 -169.729492188 l 2
 566.080078125 -169.729492188 553.671875 -157.306640625 553.671875 -142 c 2
 553.671875 -114.270507812 l 2
 553.671875 -98.9638671875 566.080078125 -86.5419921875 581.399414062 -86.5419921875 c 2
 609.12890625 -86.5419921875 l 2
EndSplineSet
Validated: 33
EndChar

StartChar: NameMe.41
Encoding: 41 57385 41
Width: 1038
Flags: HW
LayerCount: 2
Fore
SplineSet
740.000976562 749.98046875 m 0
 773.125976562 749.98046875 800.018554688 723.102539062 800.018554688 689.998046875 c 2
 800.018554688 659.977539062 l 1
 800.018554688 659.977539062 919.983398438 659.977539062 919.98046875 659.977539062 c 1
 953.104492188 659.977539062 980 633.1015625 980.000976562 599.998046875 c 0
 980.000976562 566.892578125 953.10546875 540.015625 919.98046875 540.015625 c 2
 800.018554688 540.015625 l 1
 800.018554688 509.959960938 l 1
 800.018554688 476.85546875 773.125976562 449.978515625 740.000976562 449.977539062 c 0
 706.876953125 449.978515625 679.983398438 476.85546875 679.983398438 509.959960938 c 2
 679.983398438 540.015625 l 1
 140.018554688 540.015625 l 1
 106.893554688 540.015625 80.0009765625 566.893554688 80.0009765625 599.998046875 c 0
 80.001953125 633.1015625 106.89453125 659.9765625 140.018554688 659.977539062 c 2
 679.983398438 659.977539062 l 1
 679.983398438 659.977539062 679.983398438 689.999023438 679.983398438 689.998046875 c 1
 679.983398438 723.102539062 706.876953125 749.98046875 740.000976562 749.98046875 c 0
305.000976562 449.98046875 m 0
 338.125976562 449.979492188 365.018554688 423.102539062 365.018554688 389.998046875 c 2
 365.018554688 359.98046875 l 1
 365.018554688 359.98046875 920.000976562 359.979492188 920.000976562 359.98046875 c 1
 953.125976562 359.979492188 980.018554688 333.102539062 980.018554688 299.998046875 c 0
 980.018554688 266.893554688 953.125976562 240.016601562 920.000976562 240.015625 c 2
 365.018554688 240.015625 l 1
 365.018554688 240.015625 365.018554688 209.958984375 365.018554688 209.959960938 c 1
 365.018554688 176.85546875 338.125976562 149.977539062 305.000976562 149.977539062 c 0
 271.875976562 149.977539062 244.98046875 176.85546875 244.98046875 209.959960938 c 2
 244.98046875 240.015625 l 1
 244.98046875 240.015625 140.036132812 240.016601562 140.036132812 240.015625 c 1
 106.911132812 240.016601562 80.0185546875 266.893554688 80.0185546875 299.998046875 c 0
 80.0185546875 333.102539062 106.911132812 359.979492188 140.036132812 359.98046875 c 2
 244.98046875 359.98046875 l 1
 244.98046875 359.98046875 244.983398438 389.998046875 244.98046875 389.998046875 c 1
 244.98046875 423.102539062 271.875976562 449.98046875 305.000976562 449.98046875 c 0
500.000976562 149.977539062 m 0
 533.125 149.977539062 560.017578125 123.1015625 560.018554688 89.998046875 c 2
 560.018554688 59.98046875 l 1
 920.000976562 59.98046875 l 1
 953.125976562 59.98046875 980.018554688 33.1025390625 980.018554688 -0.001953125 c 0
 980.017578125 -33.10546875 953.125 -59.98046875 920.000976562 -59.9814453125 c 2
 560.018554688 -59.9814453125 l 1
 560.018554688 -90.0400390625 l 1
 560.017578125 -123.143554688 533.125 -150.01953125 500.000976562 -150.01953125 c 0
 466.876953125 -150.01953125 439.985351562 -123.143554688 439.983398438 -90.0400390625 c 2
 439.983398438 -59.9814453125 l 1
 140.036132812 -59.9814453125 l 1
 106.912109375 -59.98046875 80.01953125 -33.10546875 80.0185546875 -0.001953125 c 0
 80.0185546875 33.1025390625 106.911132812 59.98046875 140.036132812 59.98046875 c 2
 439.983398438 59.98046875 l 1
 439.983398438 89.998046875 l 1
 439.985351562 123.1015625 466.876953125 149.977539062 500.000976562 149.977539062 c 0
EndSplineSet
Validated: 37
EndChar

StartChar: NameMe.42
Encoding: 42 57386 42
Width: 846
Flags: HW
LayerCount: 2
Fore
SplineSet
462.91015625 458.524414062 m 2
 451.923828125 458.45703125 448.216796875 465.52734375 454.876953125 474.419921875 c 2
 504.829101562 541.161132812 l 2
 511.318359375 550.051757812 513.754882812 565.880859375 510.322265625 576.248046875 c 2
 483.439453125 655.17578125 l 2
 479.938476562 665.579101562 485.637695312 671.208007812 496.108398438 667.70703125 c 2
 575.00390625 640.859375 l 2
 585.509765625 637.391601562 601.267578125 639.86328125 610.056640625 646.456054688 c 2
 676.83203125 696.306640625 l 2
 685.724609375 702.96484375 692.794921875 699.223632812 692.658203125 688.272460938 c 2
 691.662109375 604.9140625 l 2
 691.421875 593.89453125 698.700195312 579.71484375 707.728515625 573.329101562 c 2
 775.809570312 525.161132812 l 2
 784.8046875 518.776367188 783.568359375 510.879882812 772.959960938 507.65234375 c 2
 693.415039062 482.93359375 l 2
 682.875 479.671875 671.580078125 468.41015625 668.38671875 457.801757812 c 2
 643.564453125 378.256835938 l 2
 640.267578125 367.6484375 632.440429688 366.446289062 626.020507812 375.407226562 c 2
 577.920898438 443.453125 l 2
 571.536132812 452.481445312 557.219726562 459.759765625 546.267578125 459.623046875 c 2
 462.91015625 458.524414062 l 2
840.216796875 11.7314453125 m 1
 847.21875 -1.58984375 831.8046875 -32.8994140625 803.033203125 -61.6025390625 c 0
 774.435546875 -90.2685546875 743.091796875 -105.75390625 729.701171875 -98.6796875 c 1
 728.362304688 -100.122070312 l 1
 53.8466796875 574.4296875 l 1
 54.6357421875 575.25390625 l 1
 54.6005859375 575.287109375 54.4638671875 575.287109375 54.3955078125 575.390625 c 0
 43.169921875 586.685546875 59.0654296875 620.77734375 89.8251953125 651.641601562 c 0
 120.654296875 682.4375 154.883789062 698.33203125 166.041992188 687.037109375 c 0
 166.143554688 687.001953125 166.143554688 686.899414062 166.247070312 686.865234375 c 2
 167.00390625 687.5859375 l 1
 841.58984375 13.138671875 l 1
 840.216796875 11.7314453125 l 1
246.03515625 495.362304688 m 0
 261.965820312 511.327148438 273.810546875 527.978515625 280.05859375 542.08984375 c 1
 180.049804688 642.680664062 l 1
 173.766601562 628.536132812 161.991210938 611.713867188 145.889648438 595.54296875 c 0
 129.685546875 579.40625 112.690429688 567.4921875 98.4775390625 561.279296875 c 1
 198.244140625 460.927734375 l 1
 212.52734375 467.106445312 229.728515625 479.0546875 246.03515625 495.362304688 c 0
EndSplineSet
Validated: 33
EndChar

StartChar: NameMe.43
Encoding: 43 57387 43
Width: 949
Flags: HW
LayerCount: 2
Fore
SplineSet
257.190429688 26.5751953125 m 1
 186.43359375 92.005859375 142.036132812 185.534179688 142.036132812 289.295898438 c 0
 142.036132812 486.669921875 302.614257812 647.247070312 499.993164062 647.247070312 c 0
 563.704101562 647.247070312 623.516601562 630.4453125 675.413085938 601.130859375 c 1
 769.635742188 730.581054688 l 2
 784.5546875 751.104492188 813.314453125 755.676757812 833.92578125 740.70703125 c 0
 854.467773438 725.744140625 859.001953125 696.971679688 844.045898438 676.41015625 c 2
 749.118164062 545.997070312 l 1
 816.166992188 480.901367188 857.95703125 389.916015625 857.95703125 289.290039062 c 0
 857.95703125 91.91015625 697.385742188 -68.6669921875 500.01171875 -68.6669921875 c 0
 439.400390625 -68.6669921875 382.294921875 -53.4775390625 332.224609375 -26.783203125 c 1
 255.962890625 -131.559570312 l 2
 246.95703125 -143.920898438 232.939453125 -150.489257812 218.700195312 -150.489257812 c 0
 209.330078125 -150.489257812 199.845703125 -147.624023438 191.654296875 -141.672851562 c 0
 171.098632812 -126.716796875 166.5703125 -97.9375 181.52734375 -77.3759765625 c 2
 257.190429688 26.5751953125 l 1
765.901367188 289.295898438 m 0
 765.901367188 359.298828125 738.500976562 422.90234375 694.098632812 470.435546875 c 1
 387.231445312 48.8173828125 l 1
 421.514648438 32.68359375 459.639648438 23.3818359375 499.987304688 23.3818359375 c 0
 646.62890625 23.3818359375 765.901367188 142.666992188 765.901367188 289.295898438 c 0
499.993164062 555.198242188 m 0
 353.364257812 555.198242188 234.0859375 435.913085938 234.06640625 289.284179688 c 0
 234.06640625 216.108398438 263.795898438 149.74609375 311.801757812 101.614257812 c 1
 620.645507812 525.940429688 l 1
 584.397460938 544.504882812 543.452148438 555.198242188 499.993164062 555.198242188 c 0
EndSplineSet
Validated: 33
EndChar

StartChar: NameMe.44
Encoding: 44 57388 44
Width: 950
Flags: HW
LayerCount: 2
Fore
SplineSet
793.209960938 164.966796875 m 0
 854.489257812 152.459960938 909.5546875 109.33203125 889.715820312 75 c 0
 869.874023438 40.654296875 805.041992188 66.7861328125 763.510742188 113.592773438 c 0
 722.01171875 160.381835938 714.444335938 107.670898438 727.102539062 60.3876953125 c 0
 739.760742188 13.087890625 672.237304688 -4.984375 662.0390625 46.57421875 c 0
 651.810546875 98.119140625 676.06640625 169.78125 650.37890625 184.638671875 c 0
 629.783203125 196.528320312 595.512695312 216.30859375 582.654296875 223.723632812 c 1
 567.471679688 207.233398438 547.399414062 195.359375 524.727539062 190.252929688 c 1
 524.727539062 175.42578125 524.727539062 135.833007812 524.727539062 112.084960938 c 0
 524.727539062 82.4306640625 598.8828125 67.5859375 638.473632812 32.9775390625 c 0
 678.01953125 -1.6318359375 628.583984375 -51.0966796875 593.944335938 -16.4892578125 c 0
 559.321289062 18.150390625 509.900390625 37.9150390625 529.680664062 -21.4423828125 c 0
 549.4453125 -80.7822265625 539.647460938 -150 499.979492188 -150 c 0
 460.340820312 -150 450.526367188 -80.7822265625 470.307617188 -21.4423828125 c 0
 490.087890625 37.9150390625 440.666992188 18.150390625 406.059570312 -16.4892578125 c 0
 371.419921875 -51.0986328125 321.983398438 -1.6318359375 361.530273438 32.9775390625 c 0
 401.10546875 67.5859375 475.274414062 82.4306640625 475.274414062 112.084960938 c 0
 475.274414062 135.833007812 475.274414062 175.42578125 475.274414062 190.252929688 c 1
 452.602539062 195.359375 432.514648438 207.235351562 417.34765625 223.723632812 c 1
 404.489257812 216.310546875 370.21875 196.528320312 349.623046875 184.638671875 c 0
 323.935546875 169.78125 348.146484375 98.119140625 337.96484375 46.57421875 c 0
 327.767578125 -4.982421875 260.227539062 13.08984375 272.901367188 60.3876953125 c 0
 285.543945312 107.670898438 277.9921875 160.381835938 236.493164062 113.592773438 c 0
 194.963867188 66.7861328125 130.129882812 40.65234375 110.288085938 75 c 0
 90.4443359375 109.33203125 145.510742188 152.459960938 206.790039062 164.966796875 c 0
 268.084960938 177.501953125 226.217773438 210.463867188 178.919921875 223.124023438 c 0
 131.66796875 235.782226562 149.755859375 303.352539062 199.5 286.372070312 c 0
 249.258789062 269.435546875 299.203125 212.6015625 324.890625 227.459960938 c 0
 345.45703125 239.318359375 379.7109375 259.067382812 392.553710938 266.513671875 c 1
 389.26171875 277.095703125 387.508789062 288.354492188 387.508789062 299.998046875 c 0
 387.508789062 311.643554688 389.26171875 322.900390625 392.553710938 333.46875 c 1
 379.709960938 340.897460938 345.45703125 360.6796875 324.890625 372.538085938 c 0
 299.203125 387.365234375 249.260742188 330.546875 199.5 313.596679688 c 0
 149.755859375 296.646484375 131.66796875 364.217773438 178.919921875 376.875976562 c 0
 226.217773438 389.536132812 268.0546875 422.466796875 206.790039062 435.03515625 c 0
 145.510742188 447.538085938 90.4453125 490.66796875 110.288085938 525 c 0
 130.129882812 559.33203125 194.963867188 533.213867188 236.4921875 486.409179688 c 0
 277.990234375 439.618164062 285.543945312 492.331054688 272.899414062 539.612304688 c 0
 260.223632812 586.912109375 327.764648438 604.984375 337.962890625 553.42578125 c 0
 348.14453125 501.865234375 323.934570312 430.172851562 349.62109375 415.361328125 c 0
 370.217773438 403.471679688 404.487304688 383.689453125 417.345703125 376.260742188 c 1
 432.512695312 392.750976562 452.600585938 404.640625 475.2734375 409.747070312 c 1
 475.2734375 424.57421875 475.2734375 464.166992188 475.2734375 487.915039062 c 0
 475.2734375 517.571289062 401.10546875 532.4140625 361.528320312 567.024414062 c 0
 321.981445312 601.631835938 371.41796875 651.098632812 406.057617188 616.490234375 c 0
 440.665039062 581.8515625 490.0859375 562.0859375 470.305664062 621.442382812 c 0
 450.526367188 680.768554688 460.338867188 750 499.977539062 750 c 0
 539.645507812 750 549.444335938 680.768554688 529.677734375 621.440429688 c 0
 509.896484375 562.084960938 559.317382812 581.849609375 593.94140625 616.489257812 c 0
 628.581054688 651.094726562 678.015625 601.629882812 638.469726562 567.022460938 c 0
 598.87890625 532.413085938 524.723632812 517.569335938 524.723632812 487.9140625 c 0
 524.723632812 464.166015625 524.723632812 424.572265625 524.723632812 409.745117188 c 1
 547.396484375 404.638671875 567.46875 392.747070312 582.650390625 376.258789062 c 1
 595.510742188 383.6875 629.779296875 403.469726562 650.375976562 415.360351562 c 0
 676.0625 430.172851562 651.806640625 501.86328125 662.03515625 553.423828125 c 0
 672.234375 604.982421875 739.758789062 586.91015625 727.098632812 539.611328125 c 0
 714.44140625 492.329101562 722.053710938 439.618164062 763.506835938 486.407226562 c 0
 805.0390625 533.213867188 869.870117188 559.33203125 889.712890625 525 c 0
 909.5546875 490.669921875 854.489257812 447.540039062 793.209960938 435.03515625 c 0
 731.9140625 422.466796875 773.750976562 389.536132812 821.064453125 376.875976562 c 0
 868.346679688 364.217773438 850.2265625 296.646484375 800.484375 313.596679688 c 0
 750.723632812 330.546875 700.796875 387.365234375 675.09375 372.538085938 c 0
 654.543945312 360.6796875 620.2890625 340.897460938 607.415039062 333.46875 c 1
 610.72265625 322.900390625 612.491210938 311.641601562 612.491210938 299.998046875 c 0
 612.491210938 288.354492188 610.721679688 277.095703125 607.415039062 266.513671875 c 1
 620.2890625 259.069335938 654.544921875 239.318359375 675.09375 227.459960938 c 0
 700.796875 212.6015625 750.723632812 269.436523438 800.484375 286.372070312 c 0
 850.228515625 303.352539062 868.34765625 235.782226562 821.064453125 223.124023438 c 0
 773.750976562 210.465820312 731.915039062 177.502929688 793.209960938 164.966796875 c 0
499.977539062 236.244140625 m 0
 535.200195312 236.244140625 563.733398438 264.77734375 563.733398438 300 c 0
 563.733398438 335.208984375 535.200195312 363.7421875 499.977539062 363.7421875 c 0
 464.799804688 363.7421875 436.250976562 335.208984375 436.250976562 300 c 0
 436.250976562 264.77734375 464.799804688 236.244140625 499.977539062 236.244140625 c 0
EndSplineSet
Validated: 33
EndChar

StartChar: NameMe.45
Encoding: 45 57389 45
Width: 1038
Flags: H
LayerCount: 2
Fore
SplineSet
218.431640625 -140.080078125 m 2
 171.155273438 -140.080078125 143.71484375 -106.598632812 143.71484375 -47.5859375 c 2
 143.71484375 334.110351562 l 1
 101.067382812 285.142578125 l 2
 94.455078125 276.771484375 86.8515625 270.912109375 77.263671875 270.912109375 c 0
 61.724609375 270.912109375 49.162109375 283.049804688 49.162109375 303.139648438 c 0
 49.162109375 315.694335938 53.130859375 323.646484375 59.080078125 330.760742188 c 2
 395.635742188 719.153320312 l 2
 407.206054688 732.546875 421.091796875 740.080078125 435.307617188 740.080078125 c 0
 449.5234375 740.080078125 463.409179688 732.546875 474.98046875 719.153320312 c 2
 605.568359375 568.485351562 l 1
 605.568359375 709.946289062 l 2
 605.568359375 728.362304688 615.486328125 740.080078125 629.702148438 740.080078125 c 2
 673.015625 740.080078125 l 2
 687.55859375 740.080078125 696.814453125 728.362304688 696.814453125 709.946289062 c 2
 696.814453125 463.435546875 l 1
 811.538085938 330.760742188 l 2
 817.813476562 323.646484375 821.450195312 315.694335938 821.450195312 303.139648438 c 0
 821.450195312 283.049804688 808.890625 270.912109375 793.3515625 270.912109375 c 0
 784.095703125 270.912109375 776.4921875 276.771484375 769.544921875 285.142578125 c 2
 726.903320312 334.528320312 l 1
 726.903320312 -47.5859375 l 2
 726.903320312 -106.598632812 699.4609375 -140.080078125 652.515625 -140.080078125 c 2
 218.431640625 -140.080078125 l 2
530.521484375 205.203125 m 2
 530.521484375 -72.6982421875 l 1
 641.274414062 -72.6982421875 l 2
 662.100585938 -72.6982421875 673.670898438 -58.0498046875 673.670898438 -30.8447265625 c 2
 673.670898438 395.633789062 l 1
 447.209960938 657.212890625 l 2
 443.572265625 661.81640625 439.60546875 663.909179688 435.307617188 663.909179688 c 0
 431.009765625 663.909179688 427.04296875 661.3984375 423.737304688 657.212890625 c 2
 196.943359375 395.633789062 l 1
 196.943359375 -30.8447265625 l 2
 196.943359375 -58.0498046875 208.513671875 -72.6982421875 229.672851562 -72.6982421875 c 2
 339.763671875 -72.6982421875 l 1
 339.763671875 205.203125 l 2
 339.763671875 224.455078125 350.01171875 236.592773438 365.21875 236.592773438 c 2
 505.396484375 236.592773438 l 2
 520.603515625 236.592773438 530.521484375 224.455078125 530.521484375 205.203125 c 2
606.192382812 105.548828125 m 2
 594.256835938 105.548828125 584.56640625 97.232421875 584.56640625 86.990234375 c 0
 584.56640625 76.7470703125 594.256835938 68.4306640625 606.192382812 68.4306640625 c 2
 968.981445312 68.4306640625 l 2
 980.91796875 68.4306640625 990.607421875 76.7470703125 990.607421875 86.990234375 c 0
 990.607421875 97.232421875 980.91796875 105.548828125 968.981445312 105.548828125 c 2
 606.192382812 105.548828125 l 2
875.438476562 224.650390625 m 2
 861.859375 236.3046875 838.522460938 227.962890625 838.522460938 211.530273438 c 0
 838.522460938 206.41015625 840.944335938 201.770507812 844.858398438 198.411132812 c 2
 938.661132812 117.897460938 l 2
 958.544921875 100.833984375 958.543945312 73.14453125 938.661132812 56.08203125 c 2
 844.859375 -24.4169921875 l 2
 831.280273438 -36.0703125 841.001953125 -56.0966796875 860.1484375 -56.0966796875 c 0
 866.116210938 -56.0966796875 871.522460938 -54.017578125 875.436523438 -50.658203125 c 2
 969.239257812 29.8408203125 l 2
 1006.02050781 61.4052734375 1006.02148438 112.573242188 969.239257812 144.138671875 c 2
 875.438476562 224.650390625 l 2
EndSplineSet
Validated: 37
EndChar

StartChar: NameMe.46
Encoding: 46 57390 46
Width: 1000
Flags: H
LayerCount: 2
Fore
SplineSet
770.833007812 600 m 2
 770.833007812 550 l 1
 833.333007812 550 l 2
 879.583007812 550 916.25 512.916992188 916.25 466.666992188 c 2
 916.666992188 50 l 2
 916.666992188 3.75 879.583007812 -33.3330078125 833.333007812 -33.3330078125 c 2
 166.666992188 -33.3330078125 l 2
 120.416992188 -33.3330078125 83.3330078125 3.75 83.3330078125 50 c 2
 83.3330078125 466.666992188 l 2
 83.3330078125 512.916992188 120.416992188 550 166.666992188 550 c 2
 229.166992188 550 l 1
 229.166992188 600 l 2
 229.166992188 611.66796875 229.166992188 617.501953125 231.4375 621.958007812 c 0
 233.434570312 625.877929688 236.622070312 629.065429688 240.541992188 631.0625 c 0
 244.998046875 633.333007812 250.83203125 633.333007812 262.5 633.333007812 c 2
 362.5 633.333007812 l 2
 374.16796875 633.333007812 380.001953125 633.333007812 384.458007812 631.0625 c 0
 388.377929688 629.065429688 391.565429688 625.877929688 393.5625 621.958007812 c 0
 395.833007812 617.501953125 395.833007812 611.66796875 395.833007812 600 c 2
 395.833007812 550 l 1
 604.166992188 550 l 1
 604.166992188 600 l 2
 604.166992188 611.66796875 604.166992188 617.501953125 606.4375 621.958007812 c 0
 608.43359375 625.877929688 611.62109375 629.065429688 615.541992188 631.0625 c 0
 620 633.333007812 625.833007812 633.333007812 637.5 633.333007812 c 2
 737.5 633.333007812 l 2
 749.166992188 633.333007812 755 633.333007812 759.458007812 631.0625 c 0
 763.37890625 629.065429688 766.56640625 625.877929688 768.5625 621.958007812 c 0
 770.833007812 617.501953125 770.833007812 611.66796875 770.833007812 600 c 2
166.666992188 50 m 1
 833.333007812 50 l 1
 832.916992188 466.583007812 l 1
 166.666992188 466.666992188 l 1
 166.666992188 50 l 1
EndSplineSet
Validated: 1
EndChar

StartChar: NameMe.47
Encoding: 47 57391 47
Width: 1000
Flags: H
LayerCount: 2
Fore
SplineSet
500 -75 m 1
 500 -12.5 l 1
 968.75 -12.5 l 1
 968.75 -75 l 1
 500 -75 l 1
500 133.333984375 m 1
 500 195.833984375 l 1
 968.75 195.833984375 l 1
 968.75 133.333984375 l 1
 500 133.333984375 l 1
500 341.666015625 m 1
 500 404.166015625 l 1
 968.75 404.166015625 l 1
 968.75 341.666015625 l 1
 500 341.666015625 l 1
640.625 550 m 1
 640.625 612.5 l 1
 968.75 612.5 l 1
 968.75 550 l 1
 640.625 550 l 1
589.84375 583.203125 m 1
 326.5625 414.7890625 l 1
 326.5625 550 l 1
 314.904296875 550 l 2
 192.96875 550 93.75 423.828125 93.75 268.75 c 0
 93.75 113.671875 192.96875 -12.5 314.904296875 -12.5 c 2
 421.875 -12.5 l 1
 421.875 -75 l 1
 314.904296875 -75 l 2
 237.857421875 -75 165.83984375 -38.369140625 112.109375 28.14453125 c 0
 59.9609375 92.70703125 31.25 178.15625 31.25 268.75 c 0
 31.25 359.34375 59.9609375 444.79296875 112.109375 509.35546875 c 0
 165.83984375 575.869140625 237.857421875 612.5 314.912109375 612.5 c 2
 326.5625 612.5 l 1
 326.5625 746.84375 l 1
 589.84375 583.203125 l 1
389.0625 634.40625 m 1
 389.0625 528.9609375 l 1
 472.65625 582.439453125 l 1
 389.0625 634.40625 l 1
EndSplineSet
Validated: 1
EndChar

StartChar: NameMe.48
Encoding: 48 57392 48
Width: 1011
Flags: HW
LayerCount: 2
Fore
SplineSet
291.5 702.5 m 1
 336.5 702.5 l 1
 336.5 612.5 l 1
 381.5 612.5 l 1
 381.5 702.5 l 1
 426.5 702.5 l 1
 426.5 612.5 l 1
 471.5 612.5 l 1
 471.5 702.5 l 1
 516.5 702.5 l 1
 516.5 612.5 l 1
 561.5 612.5 l 1
 561.5 702.5 l 1
 606.5 702.5 l 1
 606.5 612.5 l 1
 651.5 612.5 l 1
 651.5 702.5 l 1
 696.5 702.5 l 1
 696.5 612.5 l 1
 741.5 612.5 l 1
 741.5 702.5 l 1
 786.5 702.5 l 1
 786.5 612.5 l 1
 809 612.5 l 1
 876.5 545 l 1
 876.5 522.5 l 1
 966.5 522.5 l 1
 966.5 477.5 l 1
 876.5 477.5 l 1
 876.5 432.5 l 1
 966.5 432.5 l 1
 966.5 387.5 l 1
 876.5 387.5 l 1
 876.5 342.5 l 1
 966.5 342.5 l 1
 966.5 297.5 l 1
 876.5 297.5 l 1
 876.5 252.5 l 1
 966.5 252.5 l 1
 966.5 207.5 l 1
 876.5 207.5 l 1
 876.5 162.5 l 1
 966.5 162.5 l 1
 966.5 117.5 l 1
 876.5 117.5 l 1
 876.5 72.5 l 1
 966.5 72.5 l 1
 966.5 27.5 l 1
 876.5 27.5 l 1
 876.5 -62.5 l 1
 786.5 -62.5 l 1
 786.5 -152.5 l 1
 741.5 -152.5 l 1
 741.5 -62.5 l 1
 696.5 -62.5 l 1
 696.5 -152.5 l 1
 651.5 -152.5 l 1
 651.5 -62.5 l 1
 606.5 -62.5 l 1
 606.5 -152.5 l 1
 561.5 -152.5 l 1
 561.5 -62.5 l 1
 516.5 -62.5 l 1
 516.5 -152.5 l 1
 471.5 -152.5 l 1
 471.5 -62.5 l 1
 426.5 -62.5 l 1
 426.5 -152.5 l 1
 381.5 -152.5 l 1
 381.5 -62.5 l 1
 336.5 -62.5 l 1
 336.5 -152.5 l 1
 291.5 -152.5 l 1
 291.5 -62.5 l 1
 201.5 -62.5 l 1
 201.5 27.5 l 1
 111.5 27.5 l 1
 111.5 72.5 l 1
 201.5 72.5 l 1
 201.5 117.5 l 1
 111.5 117.5 l 1
 111.5 162.5 l 1
 201.5 162.5 l 1
 201.5 207.5 l 1
 111.5 207.5 l 1
 111.5 252.5 l 1
 201.5 252.5 l 1
 201.5 297.5 l 1
 111.5 297.5 l 1
 111.5 342.5 l 1
 201.5 342.5 l 1
 201.5 387.5 l 1
 111.5 387.5 l 1
 111.5 432.5 l 1
 201.5 432.5 l 1
 201.5 477.5 l 1
 111.5 477.5 l 1
 111.5 522.5 l 1
 201.5 522.5 l 1
 201.5 612.5 l 1
 291.5 612.5 l 1
 291.5 702.5 l 1
246.5 567.5 m 1
 246.5 -17.5 l 1
 831.5 -17.5 l 1
 831.5 522.5 l 1
 786.5 567.5 l 1
 246.5 567.5 l 1
EndSplineSet
Validated: 1
EndChar

StartChar: NameMe.49
Encoding: 49 57393 49
Width: 950
Flags: HW
LayerCount: 2
Fore
SplineSet
50 18.2998046875 m 2
 50 580.799804688 l 2
 50 627.599609375 66.5 667.5 99.5 700.5 c 0
 132.5 733.5 172.400390625 750 219.200195312 750 c 2
 781.700195312 750 l 2
 827.900390625 750 867.5 733.5 900.5 700.5 c 0
 933.5 667.5 950 627.599609375 950 580.799804688 c 2
 950 18.2998046875 l 2
 950 -27.900390625 933.5 -67.5 900.5 -100.5 c 0
 867.5 -133.5 827.900390625 -150 781.700195312 -150 c 2
 219.200195312 -150 l 2
 172.400390625 -149.400390625 132.5 -132.900390625 99.5 -100.5 c 0
 66.5 -68.099609375 50 -28.5 50 18.2998046875 c 2
162.5 18.2998046875 m 2
 161.900390625 2.7001953125 167.299804688 -10.5 178.700195312 -21.2998046875 c 0
 190.099609375 -32.099609375 203.599609375 -37.5 219.200195312 -37.5 c 2
 781.700195312 -37.5 l 2
 797.299804688 -37.5 810.5 -32.099609375 821.299804688 -21.2998046875 c 0
 832.099609375 -10.5 837.5 2.7001953125 837.5 18.2998046875 c 2
 837.5 580.799804688 l 2
 838.099609375 595.799804688 832.700195312 609 821.299804688 620.400390625 c 0
 809.900390625 631.799804688 796.700195312 637.5 781.700195312 637.5 c 2
 219.200195312 637.5 l 2
 203 636.900390625 189.5 631.200195312 178.700195312 620.400390625 c 0
 167.900390625 609.599609375 162.5 596.400390625 162.5 580.799804688 c 2
 162.5 18.2998046875 l 2
275 300 m 0
 274.400390625 315.599609375 279.799804688 328.799804688 291.200195312 339.599609375 c 0
 302.599609375 350.400390625 316.099609375 355.799804688 331.700195312 355.799804688 c 2
 444.200195312 355.799804688 l 1
 444.200195312 468.299804688 l 2
 443.599609375 482.700195312 449 495.900390625 460.400390625 507.900390625 c 0
 471.799804688 519.900390625 485 525.599609375 500 525 c 0
 515 524.400390625 528.200195312 518.700195312 539.599609375 507.900390625 c 0
 551 497.099609375 556.700195312 483.900390625 556.700195312 468.299804688 c 2
 556.700195312 355.799804688 l 1
 669.200195312 355.799804688 l 2
 685.400390625 355.200195312 698.599609375 349.799804688 708.799804688 339.599609375 c 0
 719 329.400390625 724.400390625 316.200195312 725 300 c 0
 725.599609375 283.799804688 720.200195312 270.299804688 708.799804688 259.5 c 0
 697.400390625 248.700195312 684.200195312 243.299804688 669.200195312 243.299804688 c 2
 556.700195312 243.299804688 l 1
 556.700195312 130.799804688 l 2
 556.099609375 115.200195312 550.400390625 102 539.599609375 91.2001953125 c 0
 528.799804688 80.400390625 515.599609375 75 500 75 c 0
 484.400390625 75 471.200195312 80.400390625 460.400390625 91.2001953125 c 0
 449.599609375 102 444.200195312 115.200195312 444.200195312 130.799804688 c 2
 444.200195312 243.299804688 l 1
 331.700195312 243.299804688 l 2
 315.5 242.700195312 302 248.099609375 291.200195312 259.5 c 0
 280.400390625 270.900390625 275 284.400390625 275 300 c 0
EndSplineSet
Validated: 33
EndChar

StartChar: NameMe.50
Encoding: 50 57394 50
Width: 950
Flags: HW
LayerCount: 2
Fore
SplineSet
50 18.2998046875 m 2
 50 580.799804688 l 2
 50 627.599609375 66.5 667.5 99.5 700.5 c 0
 132.5 733.5 172.400390625 750 219.200195312 750 c 2
 781.700195312 750 l 2
 827.900390625 750 867.5 733.5 900.5 700.5 c 0
 933.5 667.5 950 627.599609375 950 580.799804688 c 2
 950 18.2998046875 l 2
 950 -27.900390625 933.5 -67.5 900.5 -100.5 c 0
 867.5 -133.5 827.900390625 -150 781.700195312 -150 c 2
 219.200195312 -150 l 2
 172.400390625 -149.400390625 132.5 -132.900390625 99.5 -100.5 c 0
 66.5 -68.099609375 50 -28.5 50 18.2998046875 c 2
162.5 18.2998046875 m 2
 161.900390625 2.7001953125 167.299804688 -10.5 178.700195312 -21.2998046875 c 0
 190.099609375 -32.099609375 203.599609375 -37.5 219.200195312 -37.5 c 2
 781.700195312 -37.5 l 2
 797.299804688 -37.5 810.5 -32.099609375 821.299804688 -21.2998046875 c 0
 832.099609375 -10.5 837.5 2.7001953125 837.5 18.2998046875 c 2
 837.5 580.799804688 l 2
 838.099609375 595.799804688 832.700195312 609 821.299804688 620.400390625 c 0
 809.900390625 631.799804688 796.700195312 637.5 781.700195312 637.5 c 2
 219.200195312 637.5 l 2
 203 636.900390625 189.5 631.200195312 178.700195312 620.400390625 c 0
 167.900390625 609.599609375 162.5 596.400390625 162.5 580.799804688 c 2
 162.5 18.2998046875 l 2
275 300 m 0
 274.400390625 315.599609375 279.799804688 328.799804688 291.200195312 339.599609375 c 0
 302.599609375 350.400390625 316.099609375 355.799804688 331.700195312 355.799804688 c 2
 669.200195312 355.799804688 l 2
 685.400390625 355.200195312 698.599609375 349.799804688 708.799804688 339.599609375 c 0
 719 329.400390625 724.400390625 316.200195312 725 300 c 0
 725.599609375 283.799804688 720.200195312 270.299804688 708.799804688 259.5 c 0
 697.400390625 248.700195312 684.200195312 243.299804688 669.200195312 243.299804688 c 2
 331.700195312 243.299804688 l 2
 315.5 242.700195312 302 248.099609375 291.200195312 259.5 c 0
 280.400390625 270.900390625 275 284.400390625 275 300 c 0
EndSplineSet
Validated: 33
EndChar

StartChar: NameMe.51
Encoding: 51 57395 51
Width: 1000
Flags: H
LayerCount: 2
Fore
SplineSet
83.3330078125 -33.3330078125 m 1
 916.666992188 -33.3330078125 l 1025
208.333007812 -33.3330078125 m 1
 208.333007812 458.333007812 l 2
 208.333007812 462.932617188 212.067382812 466.666992188 216.666992188 466.666992188 c 1
 325 466.666992188 l 2
 329.599609375 466.666992188 333.333007812 462.932617188 333.333007812 458.333007812 c 2
 333.333007812 -33.3330078125 l 1025
458.333007812 -33.3330078125 m 1
 458.333007812 622.221679688 l 2
 458.333007812 628.358398438 462.064453125 633.333007812 466.666992188 633.333007812 c 2
 575 633.333007812 l 2
 579.602539062 633.333007812 583.333007812 628.358398438 583.333007812 622.221679688 c 2
 583.333007812 -33.3330078125 l 1025
708.333007812 -33.3330078125 m 1
 708.333007812 335.416992188 l 2
 708.333007812 338.868164062 712.064453125 341.666992188 716.666992188 341.666992188 c 2
 825 341.666992188 l 2
 829.602539062 341.666992188 833.333007812 338.868164062 833.333007812 335.416992188 c 2
 833.333007812 -33.3330078125 l 1025
EndSplineSet
Validated: 3
EndChar

StartChar: NameMe.52
Encoding: 52 57396 52
Width: 1000
Flags: H
LayerCount: 2
Fore
SplineSet
418.981445312 617.059570312 m 2
 418.981445312 592.6484375 l 1
 449.494140625 592.6484375 l 2
 472.07421875 592.6484375 489.975585938 574.543945312 489.975585938 551.963867188 c 2
 490.1796875 348.541015625 l 2
 490.1796875 325.9609375 472.075195312 307.856445312 449.495117188 307.856445312 c 2
 124.017578125 307.856445312 l 2
 101.438476562 307.856445312 83.3330078125 325.9609375 83.3330078125 348.541015625 c 2
 83.3330078125 551.963867188 l 2
 83.3330078125 574.543945312 101.438476562 592.6484375 124.017578125 592.6484375 c 2
 154.53125 592.6484375 l 1
 154.53125 617.059570312 l 2
 154.53125 622.755859375 154.53125 625.604492188 155.639648438 627.780273438 c 0
 156.615234375 629.693359375 158.170898438 631.25 160.084960938 632.224609375 c 0
 162.260742188 633.333007812 165.108398438 633.333007812 170.805664062 633.333007812 c 2
 219.626953125 633.333007812 l 2
 225.323242188 633.333007812 228.171875 633.333007812 230.34765625 632.224609375 c 0
 232.260742188 631.25 233.817382812 629.693359375 234.791992188 627.780273438 c 0
 235.900390625 625.604492188 235.900390625 622.755859375 235.900390625 617.059570312 c 2
 235.900390625 592.6484375 l 1
 337.612304688 592.6484375 l 1
 337.612304688 617.059570312 l 2
 337.612304688 622.755859375 337.612304688 625.604492188 338.720703125 627.780273438 c 0
 339.6953125 629.693359375 341.251953125 631.25 343.166015625 632.224609375 c 0
 345.342773438 633.333007812 348.190429688 633.333007812 353.885742188 633.333007812 c 2
 402.708007812 633.333007812 l 2
 408.403320312 633.333007812 411.250976562 633.333007812 413.427734375 632.224609375 c 0
 415.341796875 631.25 416.8984375 629.693359375 417.873046875 627.780273438 c 0
 418.981445312 625.604492188 418.981445312 622.755859375 418.981445312 617.059570312 c 2
124.017578125 348.541015625 m 1
 449.49609375 348.541015625 l 1
 449.291992188 551.923828125 l 1
 124.017578125 551.963867188 l 1
 124.017578125 348.541015625 l 1
898.678710938 257.807617188 m 2
 905.55078125 257.807617188 910.130859375 253.2265625 910.130859375 246.35546875 c 0
 910.130859375 239.484375 905.55078125 234.90234375 898.678710938 234.90234375 c 2
 875.772460938 234.90234375 l 2
 868.901367188 234.90234375 864.319335938 239.484375 864.319335938 246.35546875 c 0
 864.319335938 253.2265625 868.900390625 257.807617188 875.772460938 257.807617188 c 2
 898.678710938 257.807617188 l 2
898.678710938 211.99609375 m 2
 905.55078125 211.99609375 910.130859375 207.415039062 910.130859375 200.543945312 c 0
 910.130859375 193.672851562 905.55078125 189.091796875 898.678710938 189.091796875 c 2
 875.772460938 189.091796875 l 2
 868.901367188 189.091796875 864.319335938 193.672851562 864.319335938 200.543945312 c 0
 864.319335938 207.415039062 868.900390625 211.99609375 875.772460938 211.99609375 c 2
 898.678710938 211.99609375 l 2
532.185546875 257.807617188 m 2
 539.057617188 257.807617188 543.638671875 253.2265625 543.638671875 246.35546875 c 0
 543.638671875 239.484375 539.057617188 234.90234375 532.185546875 234.90234375 c 2
 509.279296875 234.90234375 l 2
 502.408203125 234.90234375 497.827148438 239.484375 497.827148438 246.35546875 c 0
 497.827148438 253.2265625 502.407226562 257.807617188 509.279296875 257.807617188 c 2
 532.185546875 257.807617188 l 2
532.185546875 211.99609375 m 2
 539.057617188 211.99609375 543.638671875 207.415039062 543.638671875 200.543945312 c 0
 543.638671875 193.672851562 539.057617188 189.091796875 532.185546875 189.091796875 c 2
 509.279296875 189.091796875 l 2
 502.408203125 189.091796875 497.827148438 193.672851562 497.827148438 200.543945312 c 0
 497.827148438 207.415039062 502.407226562 211.99609375 509.279296875 211.99609375 c 2
 532.185546875 211.99609375 l 2
903.259765625 302.474609375 m 2
 908.986328125 300.18359375 911.276367188 295.602539062 910.131835938 289.875976562 c 0
 908.987304688 284.149414062 904.405273438 280.713867188 898.6796875 280.713867188 c 2
 774.987304688 280.713867188 l 1
 839.123046875 -85.779296875 l 1
 864.319335938 -85.779296875 l 2
 867.754882812 -85.779296875 870.045898438 -86.9248046875 872.3359375 -89.21484375 c 2
 895.2421875 -112.12109375 l 2
 899.82421875 -116.702148438 899.82421875 -123.573242188 895.2421875 -128.155273438 c 0
 892.952148438 -130.4453125 889.516601562 -131.590820312 887.225585938 -131.590820312 c 0
 884.935546875 -131.590820312 881.5 -130.4453125 879.208984375 -128.155273438 c 2
 859.739257812 -108.684570312 l 1
 548.219726562 -108.684570312 l 1
 528.75 -128.155273438 l 2
 524.16796875 -132.736328125 517.296875 -132.736328125 512.715820312 -128.155273438 c 0
 508.133789062 -123.573242188 508.133789062 -116.702148438 512.715820312 -112.12109375 c 2
 535.62109375 -89.21484375 l 2
 537.912109375 -86.9248046875 540.202148438 -85.779296875 543.638671875 -85.779296875 c 2
 574.559570312 -85.779296875 l 1
 663.892578125 -19.3515625 l 2
 668.474609375 -15.916015625 676.491210938 -17.060546875 679.926757812 -21.642578125 c 0
 683.36328125 -26.2236328125 682.21875 -34.240234375 677.63671875 -37.6767578125 c 2
 612.35546875 -85.779296875 l 1
 816.217773438 -85.779296875 l 1
 793.3125 47.0751953125 l 1
 723.44921875 -4.462890625 l 1
 789.875976562 -53.7109375 l 2
 794.45703125 -57.146484375 795.602539062 -65.1630859375 792.166015625 -69.7451171875 c 0
 789.875976562 -73.1806640625 786.440429688 -74.326171875 783.00390625 -74.326171875 c 0
 780.713867188 -74.326171875 778.422851562 -73.181640625 776.131835938 -72.0361328125 c 2
 614.645507812 47.07421875 l 1
 600.90234375 -34.2412109375 l 2
 599.7578125 -39.9677734375 595.17578125 -43.4033203125 589.44921875 -43.4033203125 c 0
 588.3046875 -43.4033203125 588.3046875 -43.4033203125 587.159179688 -43.4033203125 c 0
 581.432617188 -42.2578125 576.8515625 -35.3857421875 577.997070312 -29.66015625 c 2
 632.971679688 280.713867188 l 1
 509.279296875 280.713867188 l 2
 503.553710938 280.713867188 498.97265625 284.149414062 497.827148438 289.875976562 c 0
 496.682617188 294.458007812 500.1171875 300.18359375 504.69921875 302.474609375 c 2
 653.5859375 371.19140625 l 2
 654.731445312 372.336914062 657.022460938 372.336914062 658.16796875 372.336914062 c 2
 749.791015625 372.336914062 l 2
 750.935546875 372.336914062 753.227539062 372.336914062 754.372070312 371.19140625 c 2
 903.259765625 302.474609375 l 2
788.73046875 73.416015625 m 1
 772.696289062 165.041015625 l 1
 723.44921875 129.536132812 l 1
 768.115234375 97.4677734375 l 2
 772.696289062 94.0322265625 773.841796875 86.015625 770.40625 81.43359375 c 0
 768.115234375 77.998046875 764.6796875 76.8525390625 761.244140625 76.8525390625 c 0
 758.953125 76.8525390625 756.662109375 77.9970703125 754.372070312 79.142578125 c 2
 635.26171875 163.893554688 l 1
 621.517578125 83.72265625 l 1
 662.748046875 113.500976562 l 2
 668.474609375 118.083007812 675.346679688 116.9375 678.782226562 111.2109375 c 0
 683.364257812 105.484375 681.07421875 98.6123046875 676.4921875 95.1767578125 c 2
 631.826171875 63.1083984375 l 1
 703.978515625 9.279296875 l 1
 788.73046875 73.416015625 l 1
750.935546875 209.706054688 m 2
 755.517578125 206.270507812 755.517578125 198.252929688 752.081054688 193.672851562 c 0
 749.791015625 190.237304688 746.35546875 189.091796875 742.918945312 189.091796875 c 0
 740.62890625 189.091796875 738.337890625 189.091796875 736.046875 191.381835938 c 2
 651.295898438 261.245117188 l 1
 639.84375 197.108398438 l 1
 661.603515625 214.288085938 l 2
 666.185546875 218.868164062 673.057617188 217.723632812 677.637695312 213.142578125 c 0
 682.21875 208.560546875 681.07421875 200.543945312 676.4921875 197.108398438 c 2
 653.5859375 178.783203125 l 1
 702.833007812 143.279296875 l 1
 766.969726562 189.090820312 l 1
 754.372070312 261.244140625 l 1
 721.159179688 233.756835938 l 1
 750.935546875 209.706054688 l 2
772.696289062 303.620117188 m 1
 772.696289062 303.62109375 l 1
 848.284179688 303.62109375 l 1
 748.64453125 349.432617188 l 1
 661.602539062 349.432617188 l 1
 561.962890625 303.62109375 l 1
 635.26171875 303.62109375 l 1
 636.407226562 303.62109375 l 1
 638.697265625 317.365234375 l 2
 639.84375 323.090820312 646.71484375 327.672851562 652.44140625 326.52734375 c 0
 658.16796875 325.381835938 662.749023438 319.655273438 661.603515625 313.928710938 c 2
 657.022460938 287.586914062 l 1
 703.978515625 248.646484375 l 1
 742.918945312 280.71484375 l 1
 692.526367188 280.71484375 l 2
 685.655273438 280.71484375 681.07421875 285.296875 681.07421875 292.166992188 c 0
 681.07421875 299.038085938 685.654296875 303.620117188 692.526367188 303.620117188 c 2
 748.645507812 303.620117188 l 1
 747.5 312.782226562 l 2
 746.354492188 319.654296875 750.935546875 325.380859375 756.662109375 326.526367188 c 0
 763.534179688 327.671875 769.260742188 323.08984375 770.40625 317.364257812 c 2
 772.696289062 303.620117188 l 1
EndSplineSet
Validated: 5
EndChar

StartChar: NameMe.53
Encoding: 53 57397 53
Width: 1000
Flags: H
LayerCount: 2
Fore
SplineSet
245 682.5 m 2
 337.5 682.5 320 572.5 292.5 560 c 1
 342.5 540 345 410 282.5 407.5 c 2
 85 405 l 2
 67.5 407.5 62.5 420 60 432.5 c 2
 60 652.5 l 2
 57.5 670 72.5 680 87.5 680 c 2
 245 682.5 l 2
120 620 m 1
 120 467.5 l 1
 270 467.5 l 1
 270 490 270 517.5 235 517.5 c 2
 127.5 515 l 1
 127.5 570 l 1
 222.5 572.5 l 2
 245 575 252.5 595 250 620 c 1
 120 620 l 1
860 682.5 m 2
 952.5 682.5 935 572.5 907.5 560 c 1
 957.5 540 960 410 897.5 407.5 c 2
 700 405 l 2
 682.5 407.5 677.5 420 675 432.5 c 2
 675 652.5 l 2
 672.5 670 687.5 680 702.5 680 c 2
 860 682.5 l 2
735 620 m 1
 735 467.5 l 1
 885 467.5 l 1
 885 490 885 517.5 850 517.5 c 2
 742.5 515 l 1
 742.5 570 l 1
 837.5 572.5 l 2
 860 575 867.5 595 865 620 c 1
 735 620 l 1
670 -75 m 1
 672.5 175 l 2
 677.5 210 707.5 215 745 177.5 c 2
 885 30 l 1
 885 202.5 l 1
 947.5 202.5 l 1
 945 -45 l 2
 947.5 -75 915 -87.5 890 -62.5 c 2
 732.5 97.5 l 1
 732.5 -75 l 1
 670 -75 l 1
507.5 357.5 m 1
 495 300 522.5 252.5 575 200 c 0
 642.5 135 680 7.5 537.5 -80 c 1
 547.5 -57.5 557.5 -52.5 557.5 20 c 1
 407.5 20 l 1
 405 -17.5 412.5 -47.5 422.5 -75 c 1
 340 -30 227.5 132.5 507.5 357.5 c 1
482.5 155 m 1
 442.5 125 435 102.5 422.5 80 c 1
 542.5 80 l 1
 527.5 105 515 130 482.5 155 c 1
52.5 202.5 m 1
 115 202.5 l 1
 115 -12.5 l 1
 307.5 -12.5 l 1
 307.5 -75 l 1
 82.5 -72.5 l 1
 82.5 -72.5 55 -75 55 -42.5 c 2
 52.5 202.5 l 1
615 682.5 m 1
 615 620 l 1
 445 620 l 2
 420 617.5 417.5 575 447.5 575 c 2
 565 572.5 l 2
 667.5 565 657.5 415 570 407.5 c 2
 365 405 l 1
 365 467.5 l 1
 557.5 467.5 l 2
 585 467.5 587.5 512.5 557.5 512.5 c 2
 437.5 512.5 l 1
 332.5 525 345 680 437.5 680 c 2
 615 682.5 l 1
EndSplineSet
Validated: 33
EndChar

StartChar: NameMe.54
Encoding: 54 57398 54
Width: 950
Flags: HW
LayerCount: 2
Fore
SplineSet
892.25 750 m 2
 924.094726562 750 950 724.094726562 950 692.25 c 2
 950 -92.25 l 2
 950 -124.094726562 924.094726562 -150 892.25 -150 c 2
 107.75 -150 l 2
 75.9052734375 -150 50 -124.094726562 50 -92.25 c 2
 50 692.25 l 2
 50 724.094726562 75.9052734375 750 107.75 750 c 2
 892.25 750 l 2
920 -92.25 m 2
 920 692.25 l 2
 920 707.549804688 907.549804688 720 892.25 720 c 2
 107.75 720 l 2
 92.4501953125 720 80 707.549804688 80 692.25 c 2
 80 -92.25 l 2
 80 -107.549804688 92.4501953125 -120 107.75 -120 c 2
 892.25 -120 l 2
 907.549804688 -120 920 -107.549804688 920 -92.25 c 2
845 15 m 0
 878.08984375 15 905 -11.91015625 905 -45 c 0
 905 -78.08984375 878.08984375 -105 845 -105 c 0
 811.91015625 -105 785 -78.08984375 785 -45 c 0
 785 -11.91015625 811.91015625 15 845 15 c 0
845 -75 m 0
 861.544921875 -75 875 -61.544921875 875 -45 c 0
 875 -28.455078125 861.544921875 -15 845 -15 c 0
 828.455078125 -15 815 -28.455078125 815 -45 c 0
 815 -61.544921875 828.455078125 -75 845 -75 c 0
845 585 m 0
 811.91015625 585 785 611.91015625 785 645 c 0
 785 678.08984375 811.91015625 705 845 705 c 0
 878.08984375 705 905 678.08984375 905 645 c 0
 905 611.91015625 878.08984375 585 845 585 c 0
845 675 m 0
 828.455078125 675 815 661.544921875 815 645 c 0
 815 628.455078125 828.455078125 615 845 615 c 0
 861.544921875 615 875 628.455078125 875 645 c 0
 875 661.544921875 861.544921875 675 845 675 c 0
155 15 m 0
 188.08984375 15 215 -11.91015625 215 -45 c 0
 215 -78.08984375 188.08984375 -105 155 -105 c 0
 121.91015625 -105 95 -78.08984375 95 -45 c 0
 95 -11.91015625 121.91015625 15 155 15 c 0
155 -75 m 0
 171.544921875 -75 185 -61.544921875 185 -45 c 0
 185 -28.455078125 171.544921875 -15 155 -15 c 0
 138.455078125 -15 125 -28.455078125 125 -45 c 0
 125 -61.544921875 138.455078125 -75 155 -75 c 0
155 585 m 0
 121.91015625 585 95 611.91015625 95 645 c 0
 95 678.08984375 121.91015625 705 155 705 c 0
 188.08984375 705 215 678.08984375 215 645 c 0
 215 611.91015625 188.08984375 585 155 585 c 0
155 675 m 0
 138.455078125 675 125 661.544921875 125 645 c 0
 125 628.455078125 138.455078125 615 155 615 c 0
 171.544921875 615 185 628.455078125 185 645 c 0
 185 661.544921875 171.544921875 675 155 675 c 0
904.399414062 321.735351562 m 1
 905.104492188 322.094726562 l 1
 904.985351562 300.5703125 l 2
 904.985351562 300.375 905 300.1953125 905 300 c 0
 905 299.700195312 904.985351562 299.415039062 904.955078125 299.115234375 c 2
 904.955078125 297.794921875 l 2
 904.955078125 297.149414062 904.879882812 296.489257812 904.879882812 295.845703125 c 0
 904.8046875 288.209960938 904.490234375 280.650390625 903.995117188 273.120117188 c 0
 903.860351562 271.049804688 903.6796875 268.979492188 903.514648438 266.91015625 c 0
 902.959960938 260.040039062 902.225585938 253.21484375 901.325195312 246.435546875 c 0
 901.115234375 244.844726562 900.950195312 243.254882812 900.724609375 241.6796875 c 0
 899.510742188 233.33984375 898.084960938 225.08984375 896.375 216.9296875 c 0
 896.120117188 215.760742188 895.8203125 214.620117188 895.564453125 213.44921875 c 0
 894.095703125 206.729492188 892.459960938 200.0703125 890.66015625 193.485351562 c 0
 889.939453125 190.815429688 889.17578125 188.16015625 888.39453125 185.504882812 c 0
 886.864257812 180.314453125 885.21484375 175.169921875 883.474609375 170.0703125 c 0
 882.514648438 167.219726562 881.615234375 164.354492188 880.580078125 161.520507812 c 0
 878.1796875 154.934570312 875.614257812 148.439453125 872.884765625 142.020507812 c 0
 871.0703125 137.745117188 869.104492188 133.544921875 867.140625 129.330078125 c 0
 865.955078125 126.794921875 864.76953125 124.259765625 863.540039062 121.754882812 c 0
 861.229492188 117.030273438 858.860351562 112.349609375 856.35546875 107.729492188 c 0
 855.860351562 106.814453125 855.334960938 105.915039062 854.825195312 105 c 0
 852.065429688 99.974609375 849.395507812 94.904296875 846.41015625 90 c 2
 842.330078125 83.3251953125 l 1
 841.864257812 83.294921875 l 2
 829.745117188 64.2294921875 816.125 46.21484375 801.080078125 29.490234375 c 1
 802.0703125 29.16015625 l 1
 784.8046875 12.07421875 l 2
 781.17578125 8.4892578125 777.350585938 5.1455078125 773.599609375 1.7099609375 c 0
 772.879882812 1.0498046875 772.17578125 0.3896484375 771.455078125 -0.2705078125 c 0
 767.015625 -4.2900390625 762.5 -8.205078125 757.89453125 -12.015625 c 0
 757.325195312 -12.48046875 756.754882812 -12.9296875 756.185546875 -13.3955078125 c 0
 742.129882812 -24.884765625 727.385742188 -35.400390625 712.009765625 -44.8798828125 c 0
 710.405273438 -45.8701171875 708.78515625 -46.830078125 707.165039062 -47.8046875 c 0
 692.975585938 -56.279296875 678.3046875 -63.8544921875 663.184570312 -70.5302734375 c 0
 660.365234375 -71.7744140625 657.57421875 -73.0205078125 654.725585938 -74.205078125 c 0
 650.599609375 -75.9150390625 646.474609375 -77.5498046875 642.3046875 -79.1103515625 c 0
 638.720703125 -80.4599609375 635.08984375 -81.720703125 631.459960938 -82.96484375 c 0
 627.740234375 -84.240234375 624.064453125 -85.5751953125 620.315429688 -86.7451171875 c 0
 613.4453125 -88.8896484375 606.484375 -90.810546875 599.479492188 -92.5947265625 c 0
 598.459960938 -92.849609375 597.469726562 -93.1953125 596.450195312 -93.4501953125 c 2
 588.844726562 -95.294921875 l 1
 588.634765625 -95.115234375 l 2
 566.915039062 -99.990234375 544.580078125 -103.200195312 521.720703125 -104.415039062 c 1
 522.080078125 -105.150390625 l 1
 497.794921875 -105.014648438 l 2
 496.4453125 -105.014648438 495.094726562 -104.879882812 493.745117188 -104.864257812 c 0
 487.0703125 -104.759765625 480.439453125 -104.504882812 473.85546875 -104.084960938 c 0
 471.245117188 -103.919921875 468.620117188 -103.709960938 466.009765625 -103.484375 c 0
 459.875 -102.974609375 453.770507812 -102.314453125 447.709960938 -101.53515625 c 0
 445.520507812 -101.25 443.314453125 -101.009765625 441.125 -100.6953125 c 0
 433.145507812 -99.525390625 425.209960938 -98.16015625 417.379882812 -96.5244140625 c 0
 415.474609375 -96.1357421875 413.615234375 -95.6396484375 411.725585938 -95.220703125 c 0
 405.799804688 -93.900390625 399.919921875 -92.4599609375 394.099609375 -90.884765625 c 0
 390.979492188 -90.029296875 387.875 -89.1455078125 384.78515625 -88.2294921875 c 0
 380.209960938 -86.8642578125 375.6796875 -85.41015625 371.1796875 -83.89453125 c 0
 367.8203125 -82.76953125 364.4296875 -81.689453125 361.100585938 -80.474609375 c 0
 354.770507812 -78.1650390625 348.530273438 -75.705078125 342.349609375 -73.080078125 c 0
 337.669921875 -71.099609375 333.080078125 -68.9404296875 328.475585938 -66.794921875 c 0
 326.375 -65.8046875 324.275390625 -64.830078125 322.205078125 -63.810546875 c 0
 317.225585938 -61.3798828125 312.290039062 -58.8603515625 307.400390625 -56.2197265625 c 0
 306.935546875 -55.96484375 306.469726562 -55.6953125 306.004882812 -55.4404296875 c 0
 300.650390625 -52.515625 295.25 -49.634765625 290.015625 -46.455078125 c 2
 283.33984375 -42.390625 l 1
 283.310546875 -41.91015625 l 2
 264.245117188 -29.775390625 246.229492188 -16.169921875 229.504882812 -1.125 c 1
 229.174804688 -2.115234375 l 1
 212.08984375 15.150390625 l 2
 208.520507812 18.75 205.205078125 22.560546875 201.78515625 26.294921875 c 0
 201.080078125 27.044921875 200.375 27.794921875 199.684570312 28.560546875 c 0
 195.709960938 32.955078125 191.83984375 37.4248046875 188.075195312 41.9697265625 c 0
 187.490234375 42.689453125 186.935546875 43.41015625 186.349609375 44.115234375 c 0
 178.610351562 53.5947265625 171.275390625 63.359375 164.450195312 73.455078125 c 0
 164.375 73.560546875 164.299804688 73.6650390625 164.225585938 73.7705078125 c 0
 161.150390625 78.330078125 158.224609375 82.94921875 155.344726562 87.615234375 c 0
 154.174804688 89.4892578125 153.03515625 91.3798828125 151.91015625 93.26953125 c 0
 149.224609375 97.7548828125 146.584960938 102.26953125 144.080078125 106.860351562 c 0
 143.375 108.149414062 142.745117188 109.484375 142.0546875 110.790039062 c 0
 137.690429688 119.040039062 133.625 127.424804688 129.830078125 135.959960938 c 0
 128.404296875 139.184570312 126.979492188 142.395507812 125.629882812 145.650390625 c 0
 124.040039062 149.504882812 122.509765625 153.375 121.040039062 157.275390625 c 0
 119.525390625 161.264648438 118.115234375 165.314453125 116.735351562 169.364257812 c 0
 115.595703125 172.709960938 114.379882812 176.040039062 113.330078125 179.415039062 c 0
 111.140625 186.434570312 109.16015625 193.544921875 107.344726562 200.71484375 c 0
 107.10546875 201.66015625 106.790039062 202.560546875 106.564453125 203.504882812 c 2
 104.719726562 211.110351562 l 1
 104.900390625 211.3046875 l 2
 100.024414062 233.009765625 96.814453125 255.345703125 95.6005859375 278.205078125 c 1
 94.8955078125 277.860351562 l 1
 95.0146484375 299.4296875 l 2
 95.0146484375 299.625 95 299.8046875 95 300 c 0
 95 300.299804688 95.0146484375 300.584960938 94.9853515625 300.85546875 c 2
 94.9853515625 302.099609375 l 2
 94.9853515625 302.71484375 95.0595703125 303.330078125 95.0595703125 303.9453125 c 0
 95.1357421875 311.655273438 95.46484375 319.3046875 95.9599609375 326.895507812 c 0
 96.080078125 328.889648438 96.2451171875 330.870117188 96.41015625 332.865234375 c 0
 96.98046875 339.899414062 97.71484375 346.875 98.64453125 353.8046875 c 0
 98.83984375 355.245117188 98.990234375 356.685546875 99.2001953125 358.109375 c 0
 100.415039062 366.5546875 101.854492188 374.924804688 103.594726562 383.190429688 c 0
 103.775390625 384.029296875 104 384.854492188 104.1796875 385.6953125 c 0
 105.725585938 392.8046875 107.46484375 399.825195312 109.370117188 406.78515625 c 0
 110.030273438 409.19921875 110.719726562 411.599609375 111.424804688 414.015625 c 0
 113.07421875 419.625 114.844726562 425.16015625 116.720703125 430.650390625 c 0
 117.57421875 433.140625 118.35546875 435.629882812 119.254882812 438.10546875 c 0
 121.73046875 444.9296875 124.385742188 451.650390625 127.219726562 458.294921875 c 0
 128.83984375 462.07421875 130.594726562 465.794921875 132.3203125 469.544921875 c 0
 133.774414062 472.665039062 135.23046875 475.78515625 136.760742188 478.875 c 0
 138.875 483.150390625 141.020507812 487.395507812 143.28515625 491.595703125 c 0
 144.3046875 493.485351562 145.384765625 495.330078125 146.435546875 497.205078125 c 0
 148.8046875 501.44921875 151.0546875 505.754882812 153.57421875 509.91015625 c 2
 157.639648438 516.584960938 l 1
 158.07421875 516.615234375 l 2
 170.1953125 535.6796875 183.815429688 553.6953125 198.860351562 570.435546875 c 1
 197.915039062 570.75 l 1
 215.1796875 587.834960938 l 2
 218.134765625 590.759765625 221.26953125 593.459960938 224.315429688 596.294921875 c 0
 226.040039062 597.900390625 227.764648438 599.53515625 229.520507812 601.109375 c 0
 233.315429688 604.514648438 237.155273438 607.859375 241.0703125 611.115234375 c 0
 242.899414062 612.645507812 244.790039062 614.115234375 246.650390625 615.615234375 c 0
 253.775390625 621.359375 261.080078125 626.834960938 268.564453125 632.0546875 c 0
 270.559570312 633.46484375 272.540039062 634.904296875 274.564453125 636.270507812 c 0
 278.434570312 638.865234375 282.365234375 641.33984375 286.309570312 643.799804688 c 0
 289.115234375 645.5546875 291.94921875 647.264648438 294.799804688 648.9453125 c 0
 298.55078125 651.150390625 302.28515625 653.370117188 306.109375 655.455078125 c 0
 311.1796875 658.229492188 316.33984375 660.870117188 321.544921875 663.434570312 c 0
 325.594726562 665.4296875 329.689453125 667.3046875 333.799804688 669.165039062 c 0
 338.044921875 671.084960938 342.3203125 672.959960938 346.639648438 674.745117188 c 0
 349.850585938 676.049804688 353.060546875 677.325195312 356.299804688 678.5546875 c 0
 361.325195312 680.474609375 366.424804688 682.259765625 371.540039062 683.985351562 c 0
 373.969726562 684.794921875 376.354492188 685.6796875 378.799804688 686.4453125 c 0
 386.239257812 688.78515625 393.770507812 690.884765625 401.375 692.790039062 c 0
 402.094726562 692.970703125 402.78515625 693.209960938 403.504882812 693.389648438 c 2
 411.094726562 695.235351562 l 1
 411.275390625 695.084960938 l 2
 432.995117188 699.9453125 455.345703125 703.169921875 478.219726562 704.384765625 c 1
 477.890625 705.059570312 l 1
 498.484375 704.955078125 l 2
 498.995117188 704.969726562 499.490234375 705 500 705 c 0
 509.299804688 705 518.509765625 704.564453125 527.645507812 703.934570312 c 0
 529.114257812 703.844726562 530.5703125 703.724609375 532.040039062 703.60546875 c 0
 539.765625 702.990234375 547.4296875 702.1796875 555.03515625 701.145507812 c 0
 555.904296875 701.024414062 556.774414062 700.935546875 557.64453125 700.814453125 c 0
 566.375 699.5703125 575.029296875 698.0703125 583.580078125 696.26953125 c 0
 583.865234375 696.209960938 584.134765625 696.135742188 584.405273438 696.07421875 c 0
 592.099609375 694.439453125 599.705078125 692.53515625 607.235351562 690.46484375 c 0
 609.379882812 689.879882812 611.510742188 689.264648438 613.639648438 688.649414062 c 0
 619.564453125 686.91015625 625.4296875 685.03515625 631.25 683.040039062 c 0
 633.5 682.275390625 635.75 681.5703125 637.955078125 680.729492188 c 0
 644.85546875 678.224609375 651.6796875 675.525390625 658.400390625 672.66015625 c 0
 662.120117188 671.084960938 665.765625 669.360351562 669.424804688 667.665039062 c 0
 672.620117188 666.1796875 675.799804688 664.6953125 678.94921875 663.134765625 c 0
 683.209960938 661.03515625 687.439453125 658.875 691.625 656.625 c 0
 693.469726562 655.635742188 695.28515625 654.5703125 697.115234375 653.549804688 c 0
 701.405273438 651.165039062 705.739257812 648.900390625 709.939453125 646.349609375 c 2
 716.615234375 642.28515625 l 1
 716.645507812 641.849609375 l 2
 735.709960938 629.729492188 753.740234375 616.110351562 770.46484375 601.064453125 c 1
 770.794921875 602.024414062 l 1
 787.879882812 584.760742188 l 2
 790.955078125 581.640625 793.790039062 578.33984375 796.759765625 575.145507812 c 0
 798.155273438 573.64453125 799.564453125 572.16015625 800.9296875 570.645507812 c 0
 804.484375 566.71484375 807.950195312 562.725585938 811.325195312 558.66015625 c 0
 812.629882812 557.084960938 813.875 555.479492188 815.165039062 553.889648438 c 0
 821.375 546.1953125 827.30078125 538.3046875 832.91015625 530.189453125 c 0
 833.989257812 528.66015625 835.099609375 527.145507812 836.150390625 525.584960938 c 0
 838.865234375 521.53515625 841.459960938 517.424804688 844.040039062 513.28515625 c 0
 845.615234375 510.75 847.16015625 508.184570312 848.690429688 505.60546875 c 0
 851.044921875 501.629882812 853.400390625 497.654296875 855.604492188 493.604492188 c 0
 857.67578125 489.825195312 859.594726562 485.970703125 861.544921875 482.114257812 c 0
 864.364257812 476.565429688 867.03515625 470.955078125 869.584960938 465.270507812 c 0
 871.294921875 461.459960938 872.990234375 457.635742188 874.580078125 453.764648438 c 0
 876.03515625 450.254882812 877.415039062 446.745117188 878.764648438 443.189453125 c 0
 880.474609375 438.689453125 882.064453125 434.14453125 883.610351562 429.5703125 c 0
 884.599609375 426.66015625 885.665039062 423.764648438 886.580078125 420.825195312 c 0
 888.830078125 413.655273438 890.854492188 406.379882812 892.69921875 399.044921875 c 0
 892.91015625 398.174804688 893.209960938 397.334960938 893.419921875 396.46484375 c 2
 895.265625 388.860351562 l 1
 895.099609375 388.665039062 l 2
 899.975585938 366.9453125 903.185546875 344.609375 904.399414062 321.735351562 c 1
873.514648438 267.735351562 m 0
 873.620117188 268.830078125 873.6796875 269.939453125 873.724609375 271.049804688 c 1
 872.705078125 270.404296875 871.685546875 269.745117188 870.634765625 269.100585938 c 0
 817.294921875 235.60546875 719.705078125 174.314453125 590.5703125 247.03515625 c 0
 590.120117188 246.240234375 589.549804688 245.520507812 589.0703125 244.739257812 c 0
 587.990234375 242.985351562 586.865234375 241.245117188 585.6796875 239.564453125 c 0
 584.735351562 238.229492188 583.729492188 236.92578125 582.725585938 235.620117188 c 0
 581.629882812 234.209960938 580.504882812 232.814453125 579.334960938 231.46484375 c 0
 578.165039062 230.114257812 576.979492188 228.810546875 575.75 227.520507812 c 0
 574.564453125 226.274414062 573.334960938 225.075195312 572.08984375 223.890625 c 0
 570.815429688 222.674804688 569.525390625 221.474609375 568.189453125 220.334960938 c 0
 566.780273438 219.120117188 565.32421875 217.979492188 563.85546875 216.854492188 c 0
 563 216.1953125 562.205078125 215.4453125 561.3203125 214.814453125 c 0
 613.400390625 138.450195312 697.669921875 105.83984375 824.419921875 112.290039062 c 0
 829.174804688 120.479492188 833.705078125 128.8046875 837.845703125 137.370117188 c 0
 837.950195312 137.580078125 838.040039062 137.8046875 838.145507812 138.014648438 c 0
 840.6796875 143.279296875 843.094726562 148.604492188 845.389648438 154.004882812 c 0
 845.540039062 154.365234375 845.674804688 154.724609375 845.825195312 155.0703125 c 0
 851.405273438 168.330078125 856.16015625 181.995117188 860.1953125 195.959960938 c 0
 861.3203125 199.860351562 862.474609375 203.745117188 863.46484375 207.67578125 c 0
 864.020507812 209.879882812 864.485351562 212.129882812 865.009765625 214.349609375 c 0
 866.030273438 218.73046875 867.03515625 223.109375 867.905273438 227.520507812 c 0
 868.325195312 229.665039062 868.669921875 231.83984375 869.059570312 234 c 0
 869.85546875 238.5 870.620117188 243.015625 871.25 247.560546875 c 0
 871.564453125 249.75 871.8203125 251.955078125 872.08984375 254.14453125 c 0
 872.64453125 258.66015625 873.125 263.189453125 873.514648438 267.735351562 c 0
662.9453125 -37.6953125 m 0
 692.165039062 -23.5498046875 719.209960938 -5.6396484375 743.629882812 15.2705078125 c 1
 742.520507812 15.525390625 741.41015625 15.7802734375 740.254882812 16.03515625 c 0
 678.875 30.07421875 566.510742188 55.78515625 526.654296875 198.48046875 c 0
 526.0703125 198.330078125 525.484375 198.270507812 524.900390625 198.120117188 c 0
 522.530273438 197.55078125 520.16015625 197.0546875 517.745117188 196.635742188 c 0
 516.484375 196.41015625 515.225585938 196.21484375 513.96484375 196.049804688 c 0
 511.759765625 195.75 509.524414062 195.525390625 507.274414062 195.375 c 0
 505.849609375 195.270507812 504.42578125 195.1953125 502.984375 195.150390625 c 0
 501.98046875 195.120117188 501.004882812 195 500 195 c 0
 498.78515625 195 497.599609375 195.150390625 496.35546875 195.1796875 c 0
 494.975585938 195.224609375 493.610351562 195.28515625 492.229492188 195.389648438 c 0
 489.860351562 195.5703125 487.520507812 195.83984375 485.1953125 196.169921875 c 0
 484.504882812 196.259765625 483.814453125 196.290039062 483.125 196.395507812 c 0
 465.96484375 105.540039062 502.400390625 22.814453125 596.809570312 -62.25 c 0
 600.439453125 -61.2900390625 604.0546875 -60.2548828125 607.639648438 -59.1748046875 c 0
 609.260742188 -58.6953125 610.879882812 -58.2451171875 612.485351562 -57.7353515625 c 0
 617.120117188 -56.279296875 621.6953125 -54.705078125 626.240234375 -53.0703125 c 0
 627.58984375 -52.58984375 628.939453125 -52.1103515625 630.290039062 -51.615234375 c 0
 635.044921875 -49.8447265625 639.754882812 -47.9853515625 644.419921875 -46.03515625 c 0
 645.379882812 -45.6298828125 646.32421875 -45.224609375 647.28515625 -44.8203125 c 0
 652.294921875 -42.6748046875 657.275390625 -40.439453125 662.165039062 -38.0849609375 c 0
 662.419921875 -37.9501953125 662.689453125 -37.814453125 662.9453125 -37.6953125 c 0
466.8046875 -73.4404296875 m 0
 468.21484375 -73.57421875 469.639648438 -73.6650390625 471.080078125 -73.7548828125 c 1
 470.450195312 -72.75 469.8046875 -71.7294921875 469.16015625 -70.6953125 c 0
 435.6796875 -17.3544921875 374.390625 80.279296875 447.094726562 209.370117188 c 0
 446.209960938 209.879882812 445.399414062 210.495117188 444.544921875 211.03515625 c 0
 442.89453125 212.0703125 441.275390625 213.10546875 439.700195312 214.21484375 c 0
 438.275390625 215.205078125 436.91015625 216.254882812 435.544921875 217.3203125 c 0
 434.1796875 218.384765625 432.830078125 219.479492188 431.525390625 220.604492188 c 0
 430.16015625 221.774414062 428.83984375 222.990234375 427.53515625 224.234375 c 0
 426.274414062 225.435546875 425.075195312 226.665039062 423.890625 227.91015625 c 0
 422.705078125 229.169921875 421.51953125 230.4296875 420.39453125 231.75 c 0
 419.150390625 233.219726562 417.96484375 234.719726562 416.794921875 236.25 c 0
 416.165039062 237.059570312 415.459960938 237.810546875 414.860351562 238.649414062 c 0
 338.509765625 186.584960938 305.780273438 102.390625 312.334960938 -24.435546875 c 0
 339.544921875 -40.2451171875 368.884765625 -52.7099609375 399.860351562 -61.3046875 c 0
 402.3046875 -61.98046875 404.735351562 -62.71484375 407.1953125 -63.3447265625 c 0
 410.224609375 -64.125 413.315429688 -64.76953125 416.375 -65.474609375 c 0
 419.884765625 -66.2705078125 423.379882812 -67.080078125 426.919921875 -67.78515625 c 0
 429.740234375 -68.3544921875 432.58984375 -68.8203125 435.439453125 -69.314453125 c 0
 439.219726562 -69.974609375 443 -70.6201171875 446.810546875 -71.16015625 c 0
 449.629882812 -71.564453125 452.48046875 -71.8955078125 455.314453125 -72.2392578125 c 0
 459.139648438 -72.689453125 462.96484375 -73.109375 466.8046875 -73.4404296875 c 0
162.665039062 136.334960938 m 0
 176.779296875 107.384765625 194.540039062 80.55078125 215.30078125 56.3544921875 c 1
 215.5546875 57.46484375 215.810546875 58.5751953125 216.064453125 59.7294921875 c 0
 230.104492188 121.110351562 255.815429688 233.474609375 398.495117188 273.330078125 c 0
 398.359375 273.83984375 398.299804688 274.379882812 398.165039062 274.904296875 c 0
 397.53515625 277.440429688 397.009765625 279.990234375 396.57421875 282.584960938 c 0
 396.41015625 283.58984375 396.245117188 284.595703125 396.109375 285.599609375 c 0
 395.765625 288.104492188 395.510742188 290.639648438 395.344726562 293.205078125 c 0
 395.270507812 294.315429688 395.209960938 295.42578125 395.1796875 296.53515625 c 0
 395.134765625 297.690429688 395 298.830078125 395 300 c 0
 395 301.41015625 395.150390625 302.790039062 395.224609375 304.21484375 c 0
 395.254882812 305.234375 395.30078125 306.240234375 395.375 307.259765625 c 0
 395.5703125 310.065429688 395.884765625 312.825195312 396.290039062 315.5546875 c 0
 396.349609375 315.974609375 396.349609375 316.41015625 396.42578125 316.844726562 c 0
 305.479492188 334.064453125 222.859375 297.614257812 137.75 203.17578125 c 0
 138.620117188 199.875 139.564453125 196.604492188 140.540039062 193.349609375 c 0
 141.139648438 191.294921875 141.725585938 189.225585938 142.370117188 187.185546875 c 0
 143.720703125 182.91015625 145.174804688 178.6796875 146.67578125 174.46484375 c 0
 147.290039062 172.724609375 147.889648438 171 148.53515625 169.275390625 c 0
 150.184570312 164.849609375 151.924804688 160.455078125 153.740234375 156.104492188 c 0
 154.294921875 154.770507812 154.849609375 153.46484375 155.419921875 152.145507812 c 0
 157.4453125 147.450195312 159.530273438 142.799804688 161.735351562 138.209960938 c 0
 162.03515625 137.580078125 162.364257812 136.96484375 162.665039062 136.334960938 c 0
125.165039062 293.32421875 m 0
 125.495117188 274.799804688 127.145507812 256.58984375 130.0703125 238.799804688 c 1
 197.46484375 308.53515625 266.1796875 345.479492188 338.08984375 350.279296875 c 1
 253.639648438 373.169921875 190.279296875 333.690429688 145.264648438 305.4296875 c 0
 137.870117188 300.794921875 131.360351562 296.849609375 125.165039062 293.32421875 c 0
126.469726562 332.0546875 m 0
 126.379882812 331.004882812 126.3046875 329.955078125 126.21484375 328.875 c 1
 127.234375 329.51953125 128.254882812 330.165039062 129.3046875 330.825195312 c 0
 182.629882812 364.3046875 280.264648438 425.609375 409.354492188 352.889648438 c 0
 409.73046875 353.53515625 410.1796875 354.120117188 410.5703125 354.75 c 0
 411.814453125 356.774414062 413.10546875 358.76953125 414.485351562 360.705078125 c 0
 415.25 361.78515625 416.044921875 362.8203125 416.854492188 363.870117188 c 0
 418.189453125 365.595703125 419.5546875 367.275390625 420.995117188 368.924804688 c 0
 421.91015625 369.974609375 422.83984375 370.995117188 423.78515625 372 c 0
 425.299804688 373.604492188 426.860351562 375.150390625 428.479492188 376.650390625 c 0
 429.41015625 377.520507812 430.33984375 378.389648438 431.30078125 379.21484375 c 0
 433.189453125 380.864257812 435.169921875 382.41015625 437.1796875 383.924804688 c 0
 437.689453125 384.30078125 438.155273438 384.735351562 438.665039062 385.109375 c 0
 386.584960938 461.475585938 302.209960938 494.310546875 175.53515625 487.634765625 c 0
 173.9296875 484.860351562 172.279296875 482.114257812 170.735351562 479.294921875 c 0
 170.44921875 478.78515625 170.1796875 478.274414062 169.91015625 477.764648438 c 0
 167.330078125 472.98046875 164.854492188 468.149414062 162.469726562 463.245117188 c 0
 162.020507812 462.330078125 161.599609375 461.399414062 161.165039062 460.484375 c 0
 158.959960938 455.850585938 156.830078125 451.169921875 154.8046875 446.4296875 c 0
 154.234375 445.094726562 153.724609375 443.745117188 153.169921875 442.395507812 c 0
 151.33984375 437.955078125 149.540039062 433.5 147.875 428.969726562 c 0
 146.719726562 425.8203125 145.69921875 422.625 144.635742188 419.4453125 c 0
 143.1953125 415.185546875 141.814453125 410.895507812 140.524414062 406.560546875 c 0
 139.084960938 401.729492188 137.690429688 396.900390625 136.459960938 392.009765625 c 0
 136.009765625 390.224609375 135.635742188 388.41015625 135.21484375 386.610351562 c 0
 134.075195312 381.825195312 132.995117188 377.024414062 132.05078125 372.1953125 c 0
 131.674804688 370.3046875 131.375 368.400390625 131.030273438 366.495117188 c 0
 130.174804688 361.739257812 129.395507812 356.969726562 128.719726562 352.185546875 c 0
 128.435546875 350.174804688 128.1953125 348.134765625 127.939453125 346.110351562 c 0
 127.370117188 341.4453125 126.875 336.75 126.469726562 332.0546875 c 0
261.290039062 588.989257812 m 0
 259.595703125 587.594726562 257.989257812 586.110351562 256.33984375 584.684570312 c 1
 257.450195312 584.415039062 258.58984375 584.16015625 259.759765625 583.905273438 c 0
 321.139648438 569.864257812 433.504882812 544.155273438 473.360351562 401.474609375 c 0
 473.645507812 401.549804688 473.9296875 401.580078125 474.21484375 401.655273438 c 0
 477.139648438 402.405273438 480.110351562 403.020507812 483.125 403.514648438 c 0
 483.78515625 403.620117188 484.4296875 403.724609375 485.08984375 403.814453125 c 0
 487.939453125 404.219726562 490.849609375 404.520507812 493.774414062 404.684570312 c 0
 494.540039062 404.729492188 495.290039062 404.775390625 496.040039062 404.8046875 c 0
 497.359375 404.849609375 498.665039062 405 500 405 c 0
 501.604492188 405 503.165039062 404.834960938 504.740234375 404.790039062 c 0
 505.4453125 404.760742188 506.134765625 404.729492188 506.82421875 404.684570312 c 0
 509.85546875 404.489257812 512.854492188 404.16015625 515.809570312 403.709960938 c 0
 516.155273438 403.665039062 516.484375 403.665039062 516.830078125 403.604492188 c 0
 533.990234375 494.459960938 497.5546875 577.200195312 403.114257812 662.280273438 c 0
 400.71484375 661.634765625 398.344726562 660.9296875 395.959960938 660.240234375 c 0
 392.75 659.310546875 389.525390625 658.395507812 386.344726562 657.375 c 0
 382.91015625 656.279296875 379.520507812 655.094726562 376.129882812 653.91015625 c 0
 373.504882812 652.995117188 370.865234375 652.05078125 368.254882812 651.07421875 c 0
 364.594726562 649.6796875 360.950195312 648.240234375 357.334960938 646.754882812 c 0
 355.14453125 645.854492188 352.970703125 644.924804688 350.810546875 643.98046875 c 0
 346.91015625 642.28515625 343.024414062 640.544921875 339.184570312 638.71484375 c 0
 337.580078125 637.950195312 335.990234375 637.154296875 334.400390625 636.360351562 c 0
 330.094726562 634.229492188 325.8046875 632.0703125 321.604492188 629.790039062 c 0
 321.229492188 629.580078125 320.870117188 629.370117188 320.495117188 629.16015625 c 0
 299.854492188 617.850585938 280.384765625 604.665039062 262.325195312 589.830078125 c 0
 261.979492188 589.544921875 261.635742188 589.275390625 261.290039062 588.989257812 c 0
531.139648438 673.604492188 m 0
 530.389648438 673.665039062 529.655273438 673.724609375 528.859375 673.76953125 c 1
 529.504882812 672.75 530.165039062 671.71484375 530.825195312 670.649414062 c 0
 564.3046875 617.309570312 625.594726562 519.674804688 552.889648438 390.600585938 c 0
 553.4453125 390.28515625 553.955078125 389.879882812 554.495117188 389.549804688 c 0
 556.640625 388.229492188 558.754882812 386.865234375 560.794921875 385.41015625 c 0
 561.815429688 384.689453125 562.790039062 383.939453125 563.764648438 383.190429688 c 0
 565.549804688 381.825195312 567.290039062 380.399414062 568.970703125 378.9296875 c 0
 569.990234375 378.030273438 570.995117188 377.115234375 571.985351562 376.185546875 c 0
 573.58984375 374.669921875 575.134765625 373.094726562 576.635742188 371.490234375 c 0
 577.520507812 370.544921875 578.389648438 369.599609375 579.245117188 368.625 c 0
 580.849609375 366.780273438 582.365234375 364.859375 583.834960938 362.91015625 c 0
 584.239257812 362.370117188 584.720703125 361.860351562 585.125 361.3046875 c 0
 661.490234375 413.384765625 694.219726562 497.594726562 687.650390625 624.450195312 c 0
 684.860351562 626.0703125 682.099609375 627.735351562 679.265625 629.279296875 c 0
 678.770507812 629.55078125 678.274414062 629.8203125 677.780273438 630.08984375 c 0
 673.025390625 632.669921875 668.1953125 635.145507812 663.3203125 637.514648438 c 0
 662.330078125 637.995117188 661.325195312 638.459960938 660.3203125 638.924804688 c 0
 655.774414062 641.084960938 651.200195312 643.169921875 646.564453125 645.150390625 c 0
 644.9296875 645.854492188 643.25 646.485351562 641.599609375 647.16015625 c 0
 637.490234375 648.83984375 633.365234375 650.520507812 629.1796875 652.065429688 c 0
 623.270507812 654.224609375 617.314453125 656.279296875 611.30078125 658.140625 c 0
 610.625 658.350585938 609.919921875 658.514648438 609.245117188 658.724609375 c 0
 603.41015625 660.495117188 597.529296875 662.145507812 591.620117188 663.629882812 c 0
 590.524414062 663.899414062 589.399414062 664.125 588.290039062 664.395507812 c 0
 582.770507812 665.729492188 577.219726562 666.974609375 571.639648438 668.0546875 c 0
 570.379882812 668.294921875 569.104492188 668.490234375 567.845703125 668.73046875 c 0
 562.415039062 669.719726562 556.955078125 670.620117188 551.46484375 671.370117188 c 0
 550.0703125 671.564453125 548.66015625 671.729492188 547.25 671.91015625 c 0
 541.89453125 672.599609375 536.524414062 673.154296875 531.139648438 673.604492188 c 0
789.229492188 538.42578125 m 0
 787.775390625 540.1953125 786.21484375 541.889648438 784.69921875 543.629882812 c 1
 784.459960938 542.504882812 784.189453125 541.379882812 783.935546875 540.225585938 c 0
 769.895507812 478.844726562 744.184570312 366.46484375 601.504882812 326.609375 c 1
 601.625 326.205078125 601.669921875 325.770507812 601.774414062 325.350585938 c 0
 602.44921875 322.6796875 603.020507812 319.96484375 603.469726562 317.205078125 c 0
 603.620117188 316.3203125 603.754882812 315.419921875 603.875 314.520507812 c 0
 604.234375 311.939453125 604.489257812 309.330078125 604.655273438 306.690429688 c 0
 604.729492188 305.610351562 604.790039062 304.544921875 604.8203125 303.46484375 c 0
 604.865234375 302.309570312 605 301.169921875 605 300 c 0
 605 298.58984375 604.849609375 297.225585938 604.790039062 295.845703125 c 0
 604.745117188 294.780273438 604.69921875 293.729492188 604.625 292.665039062 c 0
 604.4453125 289.94921875 604.129882812 287.264648438 603.740234375 284.595703125 c 0
 603.665039062 284.114257812 603.650390625 283.634765625 603.57421875 283.155273438 c 0
 694.415039062 265.935546875 777.140625 302.400390625 862.25 396.83984375 c 0
 861.455078125 399.779296875 860.600585938 402.705078125 859.745117188 405.614257812 c 0
 859.010742188 408.150390625 858.290039062 410.685546875 857.495117188 413.189453125 c 0
 856.264648438 417.059570312 854.9453125 420.884765625 853.595703125 424.6953125 c 0
 852.814453125 426.884765625 852.03515625 429.08984375 851.224609375 431.264648438 c 0
 849.724609375 435.26953125 848.165039062 439.23046875 846.530273438 443.16015625 c 0
 845.765625 445.004882812 844.984375 446.850585938 844.190429688 448.6796875 c 0
 842.375 452.864257812 840.514648438 457.020507812 838.55078125 461.129882812 c 0
 837.935546875 462.419921875 837.275390625 463.6953125 836.64453125 464.984375 c 0
 823.700195312 491.309570312 807.799804688 515.92578125 789.3046875 538.334960938 c 0
 789.290039062 538.364257812 789.260742188 538.395507812 789.229492188 538.42578125 c 0
563.014648438 259.650390625 m 0
 564.275390625 261.614257812 565.294921875 263.745117188 566.389648438 265.814453125 c 0
 567.514648438 268.004882812 568.69921875 270.134765625 569.614257812 272.4453125 c 0
 570.58984375 274.919921875 571.280273438 277.514648438 572 280.110351562 c 0
 572.719726562 282.689453125 573.365234375 285.28515625 573.799804688 287.91015625 c 0
 574.16015625 290.16015625 574.32421875 292.455078125 574.490234375 294.765625 c 0
 574.669921875 297.270507812 574.865234375 299.759765625 574.790039062 302.264648438 c 0
 574.71484375 304.635742188 574.370117188 306.9296875 574.084960938 309.240234375 c 0
 573.78515625 311.745117188 573.560546875 314.264648438 572.989257812 316.739257812 c 0
 572.540039062 318.674804688 571.8203125 320.490234375 571.235351562 322.364257812 c 0
 570.395507812 325.049804688 569.629882812 327.75 568.474609375 330.344726562 c 0
 567.440429688 332.684570312 566.10546875 334.830078125 564.844726562 337.03515625 c 0
 563.495117188 339.389648438 562.129882812 341.729492188 560.540039062 343.919921875 c 0
 559.279296875 345.645507812 557.870117188 347.235351562 556.474609375 348.83984375 c 0
 554.810546875 350.760742188 553.16015625 352.6796875 551.314453125 354.419921875 c 0
 549.754882812 355.889648438 548.044921875 357.165039062 546.365234375 358.5 c 0
 544.325195312 360.104492188 542.314453125 361.754882812 540.109375 363.150390625 c 0
 538.490234375 364.184570312 536.734375 364.995117188 535.025390625 365.91015625 c 0
 532.520507812 367.245117188 530.014648438 368.610351562 527.330078125 369.66015625 c 0
 525.01953125 370.575195312 522.57421875 371.220703125 520.16015625 371.895507812 c 0
 517.4453125 372.66015625 514.69921875 373.334960938 511.939453125 373.78515625 c 0
 509.870117188 374.129882812 507.754882812 374.264648438 505.625 374.4296875 c 0
 502.955078125 374.625 500.28515625 374.834960938 497.614257812 374.745117188 c 0
 495.455078125 374.669921875 493.370117188 374.354492188 491.254882812 374.099609375 c 0
 488.5546875 373.78515625 485.83984375 373.530273438 483.169921875 372.915039062 c 0
 481.504882812 372.524414062 479.9296875 371.895507812 478.310546875 371.399414062 c 0
 475.370117188 370.5 472.415039062 369.645507812 469.580078125 368.384765625 c 0
 467.330078125 367.379882812 465.260742188 366.10546875 463.14453125 364.889648438 c 0
 460.71484375 363.495117188 458.315429688 362.084960938 456.065429688 360.450195312 c 0
 454.370117188 359.219726562 452.809570312 357.825195312 451.219726562 356.459960938 c 0
 449.28515625 354.794921875 447.349609375 353.129882812 445.594726562 351.270507812 c 0
 444.110351562 349.6796875 442.8046875 347.955078125 441.455078125 346.245117188 c 0
 439.879882812 344.25 438.275390625 342.270507812 436.895507812 340.109375 c 0
 435.80078125 338.400390625 434.9296875 336.540039062 433.970703125 334.739257812 c 0
 432.6953125 332.325195312 431.389648438 329.939453125 430.385742188 327.375 c 0
 429.439453125 324.974609375 428.764648438 322.469726562 428.07421875 319.96484375 c 0
 427.33984375 317.325195312 426.6796875 314.684570312 426.245117188 312 c 0
 425.900390625 309.779296875 425.735351562 307.514648438 425.5703125 305.25 c 0
 425.389648438 302.729492188 425.1953125 300.209960938 425.270507812 297.705078125 c 0
 425.344726562 295.275390625 425.690429688 292.919921875 425.990234375 290.564453125 c 0
 426.290039062 288.134765625 426.514648438 285.705078125 427.0546875 283.3046875 c 0
 427.549804688 281.16015625 428.330078125 279.120117188 429.004882812 277.049804688 c 0
 429.799804688 274.604492188 430.474609375 272.129882812 431.525390625 269.760742188 c 0
 432.665039062 267.1796875 434.120117188 264.810546875 435.529296875 262.395507812 c 0
 436.759765625 260.310546875 437.974609375 258.224609375 439.370117188 256.275390625 c 0
 440.810546875 254.265625 442.4453125 252.404296875 444.080078125 250.559570312 c 0
 445.520507812 248.924804688 446.9296875 247.245117188 448.51953125 245.745117188 c 0
 450.379882812 243.974609375 452.419921875 242.4296875 454.4453125 240.854492188 c 0
 456.155273438 239.53515625 457.8203125 238.155273438 459.650390625 236.985351562 c 0
 461.705078125 235.665039062 463.92578125 234.599609375 466.114257812 233.474609375 c 0
 468.185546875 232.42578125 470.209960938 231.28515625 472.399414062 230.415039062 c 0
 475.009765625 229.379882812 477.740234375 228.645507812 480.484375 227.895507812 c 0
 482.900390625 227.25 485.315429688 226.634765625 487.760742188 226.229492188 c 0
 490.205078125 225.82421875 492.725585938 225.645507812 495.245117188 225.48046875 c 0
 497.525390625 225.330078125 499.8203125 225.149414062 502.099609375 225.209960938 c 0
 504.754882812 225.28515625 507.334960938 225.66015625 509.915039062 226.004882812 c 0
 512.150390625 226.3046875 514.384765625 226.5 516.58984375 226.995117188 c 0
 518.83984375 227.504882812 520.984375 228.314453125 523.16015625 229.03515625 c 0
 525.529296875 229.814453125 527.9296875 230.474609375 530.239257812 231.495117188 c 0
 532.865234375 232.650390625 535.294921875 234.120117188 537.740234375 235.560546875 c 0
 539.765625 236.745117188 541.775390625 237.9296875 543.665039062 239.280273438 c 0
 545.689453125 240.75 547.580078125 242.400390625 549.455078125 244.064453125 c 0
 551.075195312 245.504882812 552.724609375 246.900390625 554.224609375 248.474609375 c 0
 555.96484375 250.3046875 557.495117188 252.314453125 559.0546875 254.325195312 c 0
 560.404296875 256.065429688 561.815429688 257.774414062 563.014648438 259.650390625 c 0
754.685546875 546.9296875 m 0
 756.635742188 555.375 758.435546875 562.725585938 760.294921875 569.564453125 c 0
 747.185546875 582.239257812 733.14453125 593.955078125 718.309570312 604.620117188 c 1
 719.9296875 507.734375 697.459960938 433.064453125 650.030273438 378.870117188 c 1
 725.9453125 422.370117188 742.834960938 495.120117188 754.685546875 546.9296875 c 0
505.459960938 654.689453125 m 0
 500.825195312 662.099609375 496.865234375 668.625 493.33984375 674.8203125 c 0
 474.799804688 674.489257812 456.58984375 672.854492188 438.799804688 669.915039062 c 1
 508.564453125 602.520507812 545.524414062 533.759765625 550.310546875 461.834960938 c 1
 573.21484375 546.28515625 533.719726562 609.674804688 505.459960938 654.689453125 c 0
253.0546875 554.669921875 m 0
 244.610351562 556.604492188 237.259765625 558.404296875 230.419921875 560.294921875 c 0
 217.745117188 547.169921875 206.029296875 533.14453125 195.365234375 518.294921875 c 1
 292.16015625 519.884765625 366.919921875 497.399414062 421.16015625 449.939453125 c 1
 377.66015625 525.915039062 304.879882812 542.8203125 253.0546875 554.669921875 c 0
245.314453125 53.0244140625 m 0
 243.379882812 44.6103515625 241.564453125 37.259765625 239.705078125 30.419921875 c 0
 252.814453125 17.7451171875 266.83984375 6.044921875 281.67578125 -4.6201171875 c 1
 280.0703125 92.2353515625 302.540039062 166.889648438 349.955078125 221.0703125 c 1
 274.0546875 177.5546875 257.165039062 104.8203125 245.314453125 53.0244140625 c 0
494.540039062 -54.75 m 0
 499.16015625 -62.1455078125 503.10546875 -68.6396484375 506.629882812 -74.8203125 c 0
 525.169921875 -74.4892578125 543.379882812 -72.83984375 561.169921875 -69.9150390625 c 1
 491.419921875 -2.53515625 454.475585938 66.1953125 449.689453125 138.104492188 c 1
 426.78515625 53.6552734375 466.280273438 -9.7353515625 494.540039062 -54.75 c 0
746.9453125 45.28515625 m 0
 755.375 43.349609375 762.709960938 41.5498046875 769.53515625 39.689453125 c 0
 782.270507812 52.8603515625 794.015625 66.9453125 804.724609375 81.8544921875 c 1
 801.469726562 81.794921875 798.03515625 81.525390625 794.83984375 81.525390625 c 0
 702.5 81.509765625 631.0546875 104.309570312 578.66015625 150.330078125 c 1
 622.145507812 74.0703125 695.060546875 57.150390625 746.9453125 45.28515625 c 0
854.720703125 294.510742188 m 0
 862.129882812 299.14453125 868.639648438 303.08984375 874.8203125 306.614257812 c 0
 874.504882812 325.169921875 872.854492188 343.395507812 869.915039062 361.200195312 c 1
 802.520507812 291.450195312 733.775390625 254.4296875 661.849609375 249.66015625 c 1
 746.330078125 226.739257812 809.720703125 266.25 854.720703125 294.510742188 c 0
EndSplineSet
Validated: 524321
EndChar

